<?xml version="1.0" encoding="utf-8" standalone="no"?>
<!DOCTYPE svg PUBLIC "-//W3C//DTD SVG 1.1//EN"
  "http://www.w3.org/Graphics/SVG/1.1/DTD/svg11.dtd">
<svg xmlns:xlink="http://www.w3.org/1999/xlink" width="460.8pt" height="345.6pt" viewBox="0 0 460.8 345.6" xmlns="http://www.w3.org/2000/svg" version="1.1">
 <metadata>
  <rdf:RDF xmlns:dc="http://purl.org/dc/elements/1.1/" xmlns:cc="http://creativecommons.org/ns#" xmlns:rdf="http://www.w3.org/1999/02/22-rdf-syntax-ns#">
   <cc:Work>
    <dc:type rdf:resource="http://purl.org/dc/dcmitype/StillImage"/>
    <dc:date>2025-03-02T11:10:04.338808</dc:date>
    <dc:format>image/svg+xml</dc:format>
    <dc:creator>
     <cc:Agent>
      <dc:title>Matplotlib v3.10.1, https://matplotlib.org/</dc:title>
     </cc:Agent>
    </dc:creator>
   </cc:Work>
  </rdf:RDF>
 </metadata>
 <defs>
  <style type="text/css">*{stroke-linejoin: round; stroke-linecap: butt}</style>
 </defs>
 <g id="figure_1">
  <g id="patch_1">
   <path d="M 0 345.6 
L 460.8 345.6 
L 460.8 0 
L 0 0 
L 0 345.6 
z
" style="fill: none"/>
  </g>
  <g id="axes_1">
   <g id="patch_2">
    <path d="M 54.29 302.2 
L 450 302.2 
L 450 10.8 
L 54.29 10.8 
L 54.29 302.2 
z
" style="fill: none"/>
   </g>
   <g id="PathCollection_1">
    <defs>
     <path id="C0_0_580ad21f4b" d="M 0 3 
C 0.795609 3 1.55874 2.683901 2.12132 2.12132 
C 2.683901 1.55874 3 0.795609 3 -0 
C 3 -0.795609 2.683901 -1.55874 2.12132 -2.12132 
C 1.55874 -2.683901 0.795609 -3 0 -3 
C -0.795609 -3 -1.55874 -2.683901 -2.12132 -2.12132 
C -2.683901 -1.55874 -3 -0.795609 -3 0 
C -3 0.795609 -2.683901 1.55874 -2.12132 2.12132 
C -1.55874 2.683901 -0.795609 3 0 3 
z
"/>
    </defs>
    <g clip-path="url(#p73a0f24eae)">
     <use xlink:href="#C0_0_580ad21f4b" x="261.551221" y="228.695624" style="fill: none; stroke: #cc3311"/>
    </g>
    <g clip-path="url(#p73a0f24eae)">
     <use xlink:href="#C0_0_580ad21f4b" x="264.769313" y="221.645298" style="fill: none; stroke: #cc3311"/>
    </g>
    <g clip-path="url(#p73a0f24eae)">
     <use xlink:href="#C0_0_580ad21f4b" x="269.502776" y="213.373853" style="fill: none; stroke: #cc3311"/>
    </g>
    <g clip-path="url(#p73a0f24eae)">
     <use xlink:href="#C0_0_580ad21f4b" x="276.259095" y="204.037076" style="fill: none; stroke: #cc3311"/>
    </g>
    <g clip-path="url(#p73a0f24eae)">
     <use xlink:href="#C0_0_580ad21f4b" x="285.493492" y="194.301318" style="fill: none; stroke: #cc3311"/>
    </g>
    <g clip-path="url(#p73a0f24eae)">
     <use xlink:href="#C0_0_580ad21f4b" x="297.846561" y="184.67881" style="fill: none; stroke: #cc3311"/>
    </g>
    <g clip-path="url(#p73a0f24eae)">
     <use xlink:href="#C0_0_580ad21f4b" x="313.439758" y="176.464435" style="fill: none; stroke: #cc3311"/>
    </g>
    <g clip-path="url(#p73a0f24eae)">
     <use xlink:href="#C0_0_580ad21f4b" x="331.428604" y="171.029638" style="fill: none; stroke: #cc3311"/>
    </g>
    <g clip-path="url(#p73a0f24eae)">
     <use xlink:href="#C0_0_580ad21f4b" x="350.633103" y="169.165528" style="fill: none; stroke: #cc3311"/>
    </g>
    <g clip-path="url(#p73a0f24eae)">
     <use xlink:href="#C0_0_580ad21f4b" x="369.576017" y="171.056516" style="fill: none; stroke: #cc3311"/>
    </g>
    <g clip-path="url(#p73a0f24eae)">
     <use xlink:href="#C0_0_580ad21f4b" x="386.348297" y="175.875774" style="fill: none; stroke: #cc3311"/>
    </g>
    <g clip-path="url(#p73a0f24eae)">
     <use xlink:href="#C0_0_580ad21f4b" x="400.275871" y="182.711775" style="fill: none; stroke: #cc3311"/>
    </g>
    <g clip-path="url(#p73a0f24eae)">
     <use xlink:href="#C0_0_580ad21f4b" x="411.121781" y="190.000519" style="fill: none; stroke: #cc3311"/>
    </g>
    <g clip-path="url(#p73a0f24eae)">
     <use xlink:href="#C0_0_580ad21f4b" x="418.808996" y="196.613751" style="fill: none; stroke: #cc3311"/>
    </g>
    <g clip-path="url(#p73a0f24eae)">
     <use xlink:href="#C0_0_580ad21f4b" x="424.397874" y="201.569638" style="fill: none; stroke: #cc3311"/>
    </g>
    <g clip-path="url(#p73a0f24eae)">
     <use xlink:href="#C0_0_580ad21f4b" x="428.280443" y="204.824331" style="fill: none; stroke: #cc3311"/>
    </g>
    <g clip-path="url(#p73a0f24eae)">
     <use xlink:href="#C0_0_580ad21f4b" x="430.59291" y="205.796517" style="fill: none; stroke: #cc3311"/>
    </g>
    <g clip-path="url(#p73a0f24eae)">
     <use xlink:href="#C0_0_580ad21f4b" x="431.966256" y="204.529895" style="fill: none; stroke: #cc3311"/>
    </g>
    <g clip-path="url(#p73a0f24eae)">
     <use xlink:href="#C0_0_580ad21f4b" x="432.013182" y="201.001532" style="fill: none; stroke: #cc3311"/>
    </g>
    <g clip-path="url(#p73a0f24eae)">
     <use xlink:href="#C0_0_580ad21f4b" x="430.997719" y="194.629197" style="fill: none; stroke: #cc3311"/>
    </g>
    <g clip-path="url(#p73a0f24eae)">
     <use xlink:href="#C0_0_580ad21f4b" x="428.909861" y="185.142843" style="fill: none; stroke: #cc3311"/>
    </g>
    <g clip-path="url(#p73a0f24eae)">
     <use xlink:href="#C0_0_580ad21f4b" x="424.295566" y="172.849206" style="fill: none; stroke: #cc3311"/>
    </g>
    <g clip-path="url(#p73a0f24eae)">
     <use xlink:href="#C0_0_580ad21f4b" x="417.011727" y="157.204016" style="fill: none; stroke: #cc3311"/>
    </g>
    <g clip-path="url(#p73a0f24eae)">
     <use xlink:href="#C0_0_580ad21f4b" x="405.429427" y="138.593662" style="fill: none; stroke: #cc3311"/>
    </g>
    <g clip-path="url(#p73a0f24eae)">
     <use xlink:href="#C0_0_580ad21f4b" x="388.556383" y="118.106999" style="fill: none; stroke: #cc3311"/>
    </g>
    <g clip-path="url(#p73a0f24eae)">
     <use xlink:href="#C0_0_580ad21f4b" x="364.705606" y="97.262717" style="fill: none; stroke: #cc3311"/>
    </g>
    <g clip-path="url(#p73a0f24eae)">
     <use xlink:href="#C0_0_580ad21f4b" x="332.994543" y="78.511361" style="fill: none; stroke: #cc3311"/>
    </g>
    <g clip-path="url(#p73a0f24eae)">
     <use xlink:href="#C0_0_580ad21f4b" x="294.749046" y="65.910658" style="fill: none; stroke: #cc3311"/>
    </g>
    <g clip-path="url(#p73a0f24eae)">
     <use xlink:href="#C0_0_580ad21f4b" x="252.215047" y="61.479415" style="fill: none; stroke: #cc3311"/>
    </g>
    <g clip-path="url(#p73a0f24eae)">
     <use xlink:href="#C0_0_580ad21f4b" x="210.032095" y="67.701507" style="fill: none; stroke: #cc3311"/>
    </g>
    <g clip-path="url(#p73a0f24eae)">
     <use xlink:href="#C0_0_580ad21f4b" x="172.165299" y="82.083682" style="fill: none; stroke: #cc3311"/>
    </g>
    <g clip-path="url(#p73a0f24eae)">
     <use xlink:href="#C0_0_580ad21f4b" x="141.526296" y="102.057794" style="fill: none; stroke: #cc3311"/>
    </g>
    <g clip-path="url(#p73a0f24eae)">
     <use xlink:href="#C0_0_580ad21f4b" x="118.111822" y="124.315545" style="fill: none; stroke: #cc3311"/>
    </g>
    <g clip-path="url(#p73a0f24eae)">
     <use xlink:href="#C0_0_580ad21f4b" x="101.56387" y="145.974034" style="fill: none; stroke: #cc3311"/>
    </g>
    <g clip-path="url(#p73a0f24eae)">
     <use xlink:href="#C0_0_580ad21f4b" x="90.598035" y="165.994813" style="fill: none; stroke: #cc3311"/>
    </g>
    <g clip-path="url(#p73a0f24eae)">
     <use xlink:href="#C0_0_580ad21f4b" x="83.198789" y="183.293119" style="fill: none; stroke: #cc3311"/>
    </g>
    <g clip-path="url(#p73a0f24eae)">
     <use xlink:href="#C0_0_580ad21f4b" x="78.733942" y="197.908363" style="fill: none; stroke: #cc3311"/>
    </g>
    <g clip-path="url(#p73a0f24eae)">
     <use xlink:href="#C0_0_580ad21f4b" x="75.756044" y="209.762625" style="fill: none; stroke: #cc3311"/>
    </g>
    <g clip-path="url(#p73a0f24eae)">
     <use xlink:href="#C0_0_580ad21f4b" x="74.124448" y="219.545665" style="fill: none; stroke: #cc3311"/>
    </g>
    <g clip-path="url(#p73a0f24eae)">
     <use xlink:href="#C0_0_580ad21f4b" x="73.272207" y="227.51726" style="fill: none; stroke: #cc3311"/>
    </g>
    <g clip-path="url(#p73a0f24eae)">
     <use xlink:href="#C0_0_580ad21f4b" x="72.786511" y="234.037781" style="fill: none; stroke: #cc3311"/>
    </g>
    <g clip-path="url(#p73a0f24eae)">
     <use xlink:href="#C0_0_580ad21f4b" x="72.484863" y="239.15928" style="fill: none; stroke: #cc3311"/>
    </g>
    <g clip-path="url(#p73a0f24eae)">
     <use xlink:href="#C0_0_580ad21f4b" x="72.360282" y="243.248197" style="fill: none; stroke: #cc3311"/>
    </g>
    <g clip-path="url(#p73a0f24eae)">
     <use xlink:href="#C0_0_580ad21f4b" x="72.331433" y="246.659789" style="fill: none; stroke: #cc3311"/>
    </g>
    <g clip-path="url(#p73a0f24eae)">
     <use xlink:href="#C0_0_580ad21f4b" x="72.276818" y="249.307135" style="fill: none; stroke: #cc3311"/>
    </g>
    <g clip-path="url(#p73a0f24eae)">
     <use xlink:href="#C0_0_580ad21f4b" x="72.385824" y="251.520585" style="fill: none; stroke: #cc3311"/>
    </g>
   </g>
   <g id="matplotlib.axis_1">
    <g id="xtick_1">
     <g id="line2d_1">
      <defs>
       <path id="m1cb75673e9" d="M 0 0 
L 0 3.5 
" style="stroke: #000000; stroke-width: 0.8"/>
      </defs>
      <g>
       <use xlink:href="#m1cb75673e9" x="72.916858" y="302.2" style="stroke: #000000; stroke-width: 0.8"/>
      </g>
     </g>
     <g id="text_1">
      <!-- −100 -->
      <g transform="translate(59.183264 316.798437) scale(0.1 -0.1)">
       <defs>
        <path id="DejaVuSans-2212" d="M 678 2272 
L 4684 2272 
L 4684 1741 
L 678 1741 
L 678 2272 
z
" transform="scale(0.015625)"/>
        <path id="DejaVuSans-31" d="M 794 531 
L 1825 531 
L 1825 4091 
L 703 3866 
L 703 4441 
L 1819 4666 
L 2450 4666 
L 2450 531 
L 3481 531 
L 3481 0 
L 794 0 
L 794 531 
z
" transform="scale(0.015625)"/>
        <path id="DejaVuSans-30" d="M 2034 4250 
Q 1547 4250 1301 3770 
Q 1056 3291 1056 2328 
Q 1056 1369 1301 889 
Q 1547 409 2034 409 
Q 2525 409 2770 889 
Q 3016 1369 3016 2328 
Q 3016 3291 2770 3770 
Q 2525 4250 2034 4250 
z
M 2034 4750 
Q 2819 4750 3233 4129 
Q 3647 3509 3647 2328 
Q 3647 1150 3233 529 
Q 2819 -91 2034 -91 
Q 1250 -91 836 529 
Q 422 1150 422 2328 
Q 422 3509 836 4129 
Q 1250 4750 2034 4750 
z
" transform="scale(0.015625)"/>
       </defs>
       <use xlink:href="#DejaVuSans-2212"/>
       <use xlink:href="#DejaVuSans-31" transform="translate(83.789062 0)"/>
       <use xlink:href="#DejaVuSans-30" transform="translate(147.412109 0)"/>
       <use xlink:href="#DejaVuSans-30" transform="translate(211.035156 0)"/>
      </g>
     </g>
    </g>
    <g id="xtick_2">
     <g id="line2d_2">
      <g>
       <use xlink:href="#m1cb75673e9" x="145.580846" y="302.2" style="stroke: #000000; stroke-width: 0.8"/>
      </g>
     </g>
     <g id="text_2">
      <!-- −50 -->
      <g transform="translate(135.028503 316.798437) scale(0.1 -0.1)">
       <defs>
        <path id="DejaVuSans-35" d="M 691 4666 
L 3169 4666 
L 3169 4134 
L 1269 4134 
L 1269 2991 
Q 1406 3038 1543 3061 
Q 1681 3084 1819 3084 
Q 2600 3084 3056 2656 
Q 3513 2228 3513 1497 
Q 3513 744 3044 326 
Q 2575 -91 1722 -91 
Q 1428 -91 1123 -41 
Q 819 9 494 109 
L 494 744 
Q 775 591 1075 516 
Q 1375 441 1709 441 
Q 2250 441 2565 725 
Q 2881 1009 2881 1497 
Q 2881 1984 2565 2268 
Q 2250 2553 1709 2553 
Q 1456 2553 1204 2497 
Q 953 2441 691 2322 
L 691 4666 
z
" transform="scale(0.015625)"/>
       </defs>
       <use xlink:href="#DejaVuSans-2212"/>
       <use xlink:href="#DejaVuSans-35" transform="translate(83.789062 0)"/>
       <use xlink:href="#DejaVuSans-30" transform="translate(147.412109 0)"/>
      </g>
     </g>
    </g>
    <g id="xtick_3">
     <g id="line2d_3">
      <g>
       <use xlink:href="#m1cb75673e9" x="218.244835" y="302.2" style="stroke: #000000; stroke-width: 0.8"/>
      </g>
     </g>
     <g id="text_3">
      <!-- 0 -->
      <g transform="translate(215.063585 316.798437) scale(0.1 -0.1)">
       <use xlink:href="#DejaVuSans-30"/>
      </g>
     </g>
    </g>
    <g id="xtick_4">
     <g id="line2d_4">
      <g>
       <use xlink:href="#m1cb75673e9" x="290.908824" y="302.2" style="stroke: #000000; stroke-width: 0.8"/>
      </g>
     </g>
     <g id="text_4">
      <!-- 50 -->
      <g transform="translate(284.546324 316.798437) scale(0.1 -0.1)">
       <use xlink:href="#DejaVuSans-35"/>
       <use xlink:href="#DejaVuSans-30" transform="translate(63.623047 0)"/>
      </g>
     </g>
    </g>
    <g id="xtick_5">
     <g id="line2d_5">
      <g>
       <use xlink:href="#m1cb75673e9" x="363.572813" y="302.2" style="stroke: #000000; stroke-width: 0.8"/>
      </g>
     </g>
     <g id="text_5">
      <!-- 100 -->
      <g transform="translate(354.029063 316.798437) scale(0.1 -0.1)">
       <use xlink:href="#DejaVuSans-31"/>
       <use xlink:href="#DejaVuSans-30" transform="translate(63.623047 0)"/>
       <use xlink:href="#DejaVuSans-30" transform="translate(127.246094 0)"/>
      </g>
     </g>
    </g>
    <g id="xtick_6">
     <g id="line2d_6">
      <g>
       <use xlink:href="#m1cb75673e9" x="436.236802" y="302.2" style="stroke: #000000; stroke-width: 0.8"/>
      </g>
     </g>
     <g id="text_6">
      <!-- 150 -->
      <g transform="translate(426.693052 316.798437) scale(0.1 -0.1)">
       <use xlink:href="#DejaVuSans-31"/>
       <use xlink:href="#DejaVuSans-35" transform="translate(63.623047 0)"/>
       <use xlink:href="#DejaVuSans-30" transform="translate(127.246094 0)"/>
      </g>
     </g>
    </g>
    <g id="text_7">
     <!-- ${\rm Re}(Z)\ (\Omega)$ -->
     <g transform="translate(228.895 330.476562) scale(0.1 -0.1)">
      <defs>
       <path id="DejaVuSans-52" d="M 2841 2188 
Q 3044 2119 3236 1894 
Q 3428 1669 3622 1275 
L 4263 0 
L 3584 0 
L 2988 1197 
Q 2756 1666 2539 1819 
Q 2322 1972 1947 1972 
L 1259 1972 
L 1259 0 
L 628 0 
L 628 4666 
L 2053 4666 
Q 2853 4666 3247 4331 
Q 3641 3997 3641 3322 
Q 3641 2881 3436 2590 
Q 3231 2300 2841 2188 
z
M 1259 4147 
L 1259 2491 
L 2053 2491 
Q 2509 2491 2742 2702 
Q 2975 2913 2975 3322 
Q 2975 3731 2742 3939 
Q 2509 4147 2053 4147 
L 1259 4147 
z
" transform="scale(0.015625)"/>
       <path id="DejaVuSans-65" d="M 3597 1894 
L 3597 1613 
L 953 1613 
Q 991 1019 1311 708 
Q 1631 397 2203 397 
Q 2534 397 2845 478 
Q 3156 559 3463 722 
L 3463 178 
Q 3153 47 2828 -22 
Q 2503 -91 2169 -91 
Q 1331 -91 842 396 
Q 353 884 353 1716 
Q 353 2575 817 3079 
Q 1281 3584 2069 3584 
Q 2775 3584 3186 3129 
Q 3597 2675 3597 1894 
z
M 3022 2063 
Q 3016 2534 2758 2815 
Q 2500 3097 2075 3097 
Q 1594 3097 1305 2825 
Q 1016 2553 972 2059 
L 3022 2063 
z
" transform="scale(0.015625)"/>
       <path id="DejaVuSans-28" d="M 1984 4856 
Q 1566 4138 1362 3434 
Q 1159 2731 1159 2009 
Q 1159 1288 1364 580 
Q 1569 -128 1984 -844 
L 1484 -844 
Q 1016 -109 783 600 
Q 550 1309 550 2009 
Q 550 2706 781 3412 
Q 1013 4119 1484 4856 
L 1984 4856 
z
" transform="scale(0.015625)"/>
       <path id="DejaVuSans-Oblique-5a" d="M 838 4666 
L 4500 4666 
L 4409 4184 
L 794 531 
L 3769 531 
L 3669 0 
L -141 0 
L -50 481 
L 3566 4134 
L 738 4134 
L 838 4666 
z
" transform="scale(0.015625)"/>
       <path id="DejaVuSans-29" d="M 513 4856 
L 1013 4856 
Q 1481 4119 1714 3412 
Q 1947 2706 1947 2009 
Q 1947 1309 1714 600 
Q 1481 -109 1013 -844 
L 513 -844 
Q 928 -128 1133 580 
Q 1338 1288 1338 2009 
Q 1338 2731 1133 3434 
Q 928 4138 513 4856 
z
" transform="scale(0.015625)"/>
       <path id="DejaVuSans-3a9" d="M 4647 556 
L 4647 0 
L 2772 0 
L 2772 556 
Q 3325 859 3634 1378 
Q 3944 1897 3944 2528 
Q 3944 3278 3531 3731 
Q 3119 4184 2444 4184 
Q 1769 4184 1355 3729 
Q 941 3275 941 2528 
Q 941 1897 1250 1378 
Q 1563 859 2119 556 
L 2119 0 
L 244 0 
L 244 556 
L 1241 556 
Q 747 991 519 1456 
Q 294 1922 294 2497 
Q 294 3491 894 4106 
Q 1491 4722 2444 4722 
Q 3391 4722 3994 4106 
Q 4594 3494 4594 2528 
Q 4594 1922 4372 1459 
Q 4150 997 3647 556 
L 4647 556 
z
" transform="scale(0.015625)"/>
      </defs>
      <use xlink:href="#DejaVuSans-52" transform="translate(0 0.125)"/>
      <use xlink:href="#DejaVuSans-65" transform="translate(69.482422 0.125)"/>
      <use xlink:href="#DejaVuSans-28" transform="translate(131.005859 0.125)"/>
      <use xlink:href="#DejaVuSans-Oblique-5a" transform="translate(170.019531 0.125)"/>
      <use xlink:href="#DejaVuSans-29" transform="translate(238.525391 0.125)"/>
      <use xlink:href="#DejaVuSans-28" transform="translate(310.009441 0.125)"/>
      <use xlink:href="#DejaVuSans-3a9" transform="translate(349.023113 0.125)"/>
      <use xlink:href="#DejaVuSans-29" transform="translate(425.439128 0.125)"/>
     </g>
    </g>
   </g>
   <g id="matplotlib.axis_2">
    <g id="ytick_1">
     <g id="line2d_7">
      <defs>
       <path id="m26c8d6c252" d="M 0 0 
L -3.5 0 
" style="stroke: #000000; stroke-width: 0.8"/>
      </defs>
      <g>
       <use xlink:href="#m26c8d6c252" x="54.29" y="296.545989" style="stroke: #000000; stroke-width: 0.8"/>
      </g>
     </g>
     <g id="text_8">
      <!-- −25 -->
      <g transform="translate(26.185313 300.345208) scale(0.1 -0.1)">
       <defs>
        <path id="DejaVuSans-32" d="M 1228 531 
L 3431 531 
L 3431 0 
L 469 0 
L 469 531 
Q 828 903 1448 1529 
Q 2069 2156 2228 2338 
Q 2531 2678 2651 2914 
Q 2772 3150 2772 3378 
Q 2772 3750 2511 3984 
Q 2250 4219 1831 4219 
Q 1534 4219 1204 4116 
Q 875 4013 500 3803 
L 500 4441 
Q 881 4594 1212 4672 
Q 1544 4750 1819 4750 
Q 2544 4750 2975 4387 
Q 3406 4025 3406 3419 
Q 3406 3131 3298 2873 
Q 3191 2616 2906 2266 
Q 2828 2175 2409 1742 
Q 1991 1309 1228 531 
z
" transform="scale(0.015625)"/>
       </defs>
       <use xlink:href="#DejaVuSans-2212"/>
       <use xlink:href="#DejaVuSans-32" transform="translate(83.789062 0)"/>
       <use xlink:href="#DejaVuSans-35" transform="translate(147.412109 0)"/>
      </g>
     </g>
    </g>
    <g id="ytick_2">
     <g id="line2d_8">
      <g>
       <use xlink:href="#m26c8d6c252" x="54.29" y="260.213995" style="stroke: #000000; stroke-width: 0.8"/>
      </g>
     </g>
     <g id="text_9">
      <!-- 0 -->
      <g transform="translate(40.9275 264.013213) scale(0.1 -0.1)">
       <use xlink:href="#DejaVuSans-30"/>
      </g>
     </g>
    </g>
    <g id="ytick_3">
     <g id="line2d_9">
      <g>
       <use xlink:href="#m26c8d6c252" x="54.29" y="223.882" style="stroke: #000000; stroke-width: 0.8"/>
      </g>
     </g>
     <g id="text_10">
      <!-- 25 -->
      <g transform="translate(34.565 227.681219) scale(0.1 -0.1)">
       <use xlink:href="#DejaVuSans-32"/>
       <use xlink:href="#DejaVuSans-35" transform="translate(63.623047 0)"/>
      </g>
     </g>
    </g>
    <g id="ytick_4">
     <g id="line2d_10">
      <g>
       <use xlink:href="#m26c8d6c252" x="54.29" y="187.550006" style="stroke: #000000; stroke-width: 0.8"/>
      </g>
     </g>
     <g id="text_11">
      <!-- 50 -->
      <g transform="translate(34.565 191.349225) scale(0.1 -0.1)">
       <use xlink:href="#DejaVuSans-35"/>
       <use xlink:href="#DejaVuSans-30" transform="translate(63.623047 0)"/>
      </g>
     </g>
    </g>
    <g id="ytick_5">
     <g id="line2d_11">
      <g>
       <use xlink:href="#m26c8d6c252" x="54.29" y="151.218011" style="stroke: #000000; stroke-width: 0.8"/>
      </g>
     </g>
     <g id="text_12">
      <!-- 75 -->
      <g transform="translate(34.565 155.01723) scale(0.1 -0.1)">
       <defs>
        <path id="DejaVuSans-37" d="M 525 4666 
L 3525 4666 
L 3525 4397 
L 1831 0 
L 1172 0 
L 2766 4134 
L 525 4134 
L 525 4666 
z
" transform="scale(0.015625)"/>
       </defs>
       <use xlink:href="#DejaVuSans-37"/>
       <use xlink:href="#DejaVuSans-35" transform="translate(63.623047 0)"/>
      </g>
     </g>
    </g>
    <g id="ytick_6">
     <g id="line2d_12">
      <g>
       <use xlink:href="#m26c8d6c252" x="54.29" y="114.886017" style="stroke: #000000; stroke-width: 0.8"/>
      </g>
     </g>
     <g id="text_13">
      <!-- 100 -->
      <g transform="translate(28.2025 118.685236) scale(0.1 -0.1)">
       <use xlink:href="#DejaVuSans-31"/>
       <use xlink:href="#DejaVuSans-30" transform="translate(63.623047 0)"/>
       <use xlink:href="#DejaVuSans-30" transform="translate(127.246094 0)"/>
      </g>
     </g>
    </g>
    <g id="ytick_7">
     <g id="line2d_13">
      <g>
       <use xlink:href="#m26c8d6c252" x="54.29" y="78.554023" style="stroke: #000000; stroke-width: 0.8"/>
      </g>
     </g>
     <g id="text_14">
      <!-- 125 -->
      <g transform="translate(28.2025 82.353241) scale(0.1 -0.1)">
       <use xlink:href="#DejaVuSans-31"/>
       <use xlink:href="#DejaVuSans-32" transform="translate(63.623047 0)"/>
       <use xlink:href="#DejaVuSans-35" transform="translate(127.246094 0)"/>
      </g>
     </g>
    </g>
    <g id="ytick_8">
     <g id="line2d_14">
      <g>
       <use xlink:href="#m26c8d6c252" x="54.29" y="42.222028" style="stroke: #000000; stroke-width: 0.8"/>
      </g>
     </g>
     <g id="text_15">
      <!-- 150 -->
      <g transform="translate(28.2025 46.021247) scale(0.1 -0.1)">
       <use xlink:href="#DejaVuSans-31"/>
       <use xlink:href="#DejaVuSans-35" transform="translate(63.623047 0)"/>
       <use xlink:href="#DejaVuSans-30" transform="translate(127.246094 0)"/>
      </g>
     </g>
    </g>
    <g id="text_16">
     <!-- $-{\rm Im}(Z)\ (\Omega)$ -->
     <g transform="translate(20.105625 183.55) rotate(-90) scale(0.1 -0.1)">
      <defs>
       <path id="DejaVuSans-49" d="M 628 4666 
L 1259 4666 
L 1259 0 
L 628 0 
L 628 4666 
z
" transform="scale(0.015625)"/>
       <path id="DejaVuSans-6d" d="M 3328 2828 
Q 3544 3216 3844 3400 
Q 4144 3584 4550 3584 
Q 5097 3584 5394 3201 
Q 5691 2819 5691 2113 
L 5691 0 
L 5113 0 
L 5113 2094 
Q 5113 2597 4934 2840 
Q 4756 3084 4391 3084 
Q 3944 3084 3684 2787 
Q 3425 2491 3425 1978 
L 3425 0 
L 2847 0 
L 2847 2094 
Q 2847 2600 2669 2842 
Q 2491 3084 2119 3084 
Q 1678 3084 1418 2786 
Q 1159 2488 1159 1978 
L 1159 0 
L 581 0 
L 581 3500 
L 1159 3500 
L 1159 2956 
Q 1356 3278 1631 3431 
Q 1906 3584 2284 3584 
Q 2666 3584 2933 3390 
Q 3200 3197 3328 2828 
z
" transform="scale(0.015625)"/>
      </defs>
      <use xlink:href="#DejaVuSans-2212" transform="translate(0 0.125)"/>
      <use xlink:href="#DejaVuSans-49" transform="translate(83.789062 0.125)"/>
      <use xlink:href="#DejaVuSans-6d" transform="translate(109.65625 0.125)"/>
      <use xlink:href="#DejaVuSans-28" transform="translate(207.068359 0.125)"/>
      <use xlink:href="#DejaVuSans-Oblique-5a" transform="translate(246.082031 0.125)"/>
      <use xlink:href="#DejaVuSans-29" transform="translate(314.587891 0.125)"/>
      <use xlink:href="#DejaVuSans-28" transform="translate(386.071941 0.125)"/>
      <use xlink:href="#DejaVuSans-3a9" transform="translate(425.085613 0.125)"/>
      <use xlink:href="#DejaVuSans-29" transform="translate(501.501628 0.125)"/>
     </g>
    </g>
   </g>
   <g id="patch_3">
    <path d="M 54.29 302.2 
L 54.29 10.8 
" style="fill: none; stroke: #000000; stroke-width: 0.8; stroke-linejoin: miter; stroke-linecap: square"/>
   </g>
   <g id="patch_4">
    <path d="M 450 302.2 
L 450 10.8 
" style="fill: none; stroke: #000000; stroke-width: 0.8; stroke-linejoin: miter; stroke-linecap: square"/>
   </g>
   <g id="patch_5">
    <path d="M 54.29 302.2 
L 450 302.2 
" style="fill: none; stroke: #000000; stroke-width: 0.8; stroke-linejoin: miter; stroke-linecap: square"/>
   </g>
   <g id="patch_6">
    <path d="M 54.29 10.8 
L 450 10.8 
" style="fill: none; stroke: #000000; stroke-width: 0.8; stroke-linejoin: miter; stroke-linecap: square"/>
   </g>
   <g id="legend_1">
    <g id="patch_7">
     <path d="M 331.934375 33.478125 
L 443 33.478125 
Q 445 33.478125 445 31.478125 
L 445 17.8 
Q 445 15.8 443 15.8 
L 331.934375 15.8 
Q 329.934375 15.8 329.934375 17.8 
L 329.934375 31.478125 
Q 329.934375 33.478125 331.934375 33.478125 
z
" style="fill: #ffffff; opacity: 0.8; stroke: #cccccc; stroke-linejoin: miter"/>
    </g>
    <g id="PathCollection_2">
     <path d="M 343.934375 27.773438 
C 344.729984 27.773438 345.493115 27.457339 346.055695 26.894758 
C 346.618276 26.332177 346.934375 25.569047 346.934375 24.773438 
C 346.934375 23.977828 346.618276 23.214698 346.055695 22.652117 
C 345.493115 22.089536 344.729984 21.773438 343.934375 21.773438 
C 343.138766 21.773438 342.375635 22.089536 341.813055 22.652117 
C 341.250474 23.214698 340.934375 23.977828 340.934375 24.773438 
C 340.934375 25.569047 341.250474 26.332177 341.813055 26.894758 
C 342.375635 27.457339 343.138766 27.773438 343.934375 27.773438 
L 343.934375 27.773438 
z
" style="fill: none; stroke: #cc3311"/>
    </g>
    <g id="text_17">
     <!-- Circuit 8 (noisy) -->
     <g transform="translate(361.934375 27.398438) scale(0.1 -0.1)">
      <defs>
       <path id="DejaVuSans-43" d="M 4122 4306 
L 4122 3641 
Q 3803 3938 3442 4084 
Q 3081 4231 2675 4231 
Q 1875 4231 1450 3742 
Q 1025 3253 1025 2328 
Q 1025 1406 1450 917 
Q 1875 428 2675 428 
Q 3081 428 3442 575 
Q 3803 722 4122 1019 
L 4122 359 
Q 3791 134 3420 21 
Q 3050 -91 2638 -91 
Q 1578 -91 968 557 
Q 359 1206 359 2328 
Q 359 3453 968 4101 
Q 1578 4750 2638 4750 
Q 3056 4750 3426 4639 
Q 3797 4528 4122 4306 
z
" transform="scale(0.015625)"/>
       <path id="DejaVuSans-69" d="M 603 3500 
L 1178 3500 
L 1178 0 
L 603 0 
L 603 3500 
z
M 603 4863 
L 1178 4863 
L 1178 4134 
L 603 4134 
L 603 4863 
z
" transform="scale(0.015625)"/>
       <path id="DejaVuSans-72" d="M 2631 2963 
Q 2534 3019 2420 3045 
Q 2306 3072 2169 3072 
Q 1681 3072 1420 2755 
Q 1159 2438 1159 1844 
L 1159 0 
L 581 0 
L 581 3500 
L 1159 3500 
L 1159 2956 
Q 1341 3275 1631 3429 
Q 1922 3584 2338 3584 
Q 2397 3584 2469 3576 
Q 2541 3569 2628 3553 
L 2631 2963 
z
" transform="scale(0.015625)"/>
       <path id="DejaVuSans-63" d="M 3122 3366 
L 3122 2828 
Q 2878 2963 2633 3030 
Q 2388 3097 2138 3097 
Q 1578 3097 1268 2742 
Q 959 2388 959 1747 
Q 959 1106 1268 751 
Q 1578 397 2138 397 
Q 2388 397 2633 464 
Q 2878 531 3122 666 
L 3122 134 
Q 2881 22 2623 -34 
Q 2366 -91 2075 -91 
Q 1284 -91 818 406 
Q 353 903 353 1747 
Q 353 2603 823 3093 
Q 1294 3584 2113 3584 
Q 2378 3584 2631 3529 
Q 2884 3475 3122 3366 
z
" transform="scale(0.015625)"/>
       <path id="DejaVuSans-75" d="M 544 1381 
L 544 3500 
L 1119 3500 
L 1119 1403 
Q 1119 906 1312 657 
Q 1506 409 1894 409 
Q 2359 409 2629 706 
Q 2900 1003 2900 1516 
L 2900 3500 
L 3475 3500 
L 3475 0 
L 2900 0 
L 2900 538 
Q 2691 219 2414 64 
Q 2138 -91 1772 -91 
Q 1169 -91 856 284 
Q 544 659 544 1381 
z
M 1991 3584 
L 1991 3584 
z
" transform="scale(0.015625)"/>
       <path id="DejaVuSans-74" d="M 1172 4494 
L 1172 3500 
L 2356 3500 
L 2356 3053 
L 1172 3053 
L 1172 1153 
Q 1172 725 1289 603 
Q 1406 481 1766 481 
L 2356 481 
L 2356 0 
L 1766 0 
Q 1100 0 847 248 
Q 594 497 594 1153 
L 594 3053 
L 172 3053 
L 172 3500 
L 594 3500 
L 594 4494 
L 1172 4494 
z
" transform="scale(0.015625)"/>
       <path id="DejaVuSans-20" transform="scale(0.015625)"/>
       <path id="DejaVuSans-38" d="M 2034 2216 
Q 1584 2216 1326 1975 
Q 1069 1734 1069 1313 
Q 1069 891 1326 650 
Q 1584 409 2034 409 
Q 2484 409 2743 651 
Q 3003 894 3003 1313 
Q 3003 1734 2745 1975 
Q 2488 2216 2034 2216 
z
M 1403 2484 
Q 997 2584 770 2862 
Q 544 3141 544 3541 
Q 544 4100 942 4425 
Q 1341 4750 2034 4750 
Q 2731 4750 3128 4425 
Q 3525 4100 3525 3541 
Q 3525 3141 3298 2862 
Q 3072 2584 2669 2484 
Q 3125 2378 3379 2068 
Q 3634 1759 3634 1313 
Q 3634 634 3220 271 
Q 2806 -91 2034 -91 
Q 1263 -91 848 271 
Q 434 634 434 1313 
Q 434 1759 690 2068 
Q 947 2378 1403 2484 
z
M 1172 3481 
Q 1172 3119 1398 2916 
Q 1625 2713 2034 2713 
Q 2441 2713 2670 2916 
Q 2900 3119 2900 3481 
Q 2900 3844 2670 4047 
Q 2441 4250 2034 4250 
Q 1625 4250 1398 4047 
Q 1172 3844 1172 3481 
z
" transform="scale(0.015625)"/>
       <path id="DejaVuSans-6e" d="M 3513 2113 
L 3513 0 
L 2938 0 
L 2938 2094 
Q 2938 2591 2744 2837 
Q 2550 3084 2163 3084 
Q 1697 3084 1428 2787 
Q 1159 2491 1159 1978 
L 1159 0 
L 581 0 
L 581 3500 
L 1159 3500 
L 1159 2956 
Q 1366 3272 1645 3428 
Q 1925 3584 2291 3584 
Q 2894 3584 3203 3211 
Q 3513 2838 3513 2113 
z
" transform="scale(0.015625)"/>
       <path id="DejaVuSans-6f" d="M 1959 3097 
Q 1497 3097 1228 2736 
Q 959 2375 959 1747 
Q 959 1119 1226 758 
Q 1494 397 1959 397 
Q 2419 397 2687 759 
Q 2956 1122 2956 1747 
Q 2956 2369 2687 2733 
Q 2419 3097 1959 3097 
z
M 1959 3584 
Q 2709 3584 3137 3096 
Q 3566 2609 3566 1747 
Q 3566 888 3137 398 
Q 2709 -91 1959 -91 
Q 1206 -91 779 398 
Q 353 888 353 1747 
Q 353 2609 779 3096 
Q 1206 3584 1959 3584 
z
" transform="scale(0.015625)"/>
       <path id="DejaVuSans-73" d="M 2834 3397 
L 2834 2853 
Q 2591 2978 2328 3040 
Q 2066 3103 1784 3103 
Q 1356 3103 1142 2972 
Q 928 2841 928 2578 
Q 928 2378 1081 2264 
Q 1234 2150 1697 2047 
L 1894 2003 
Q 2506 1872 2764 1633 
Q 3022 1394 3022 966 
Q 3022 478 2636 193 
Q 2250 -91 1575 -91 
Q 1294 -91 989 -36 
Q 684 19 347 128 
L 347 722 
Q 666 556 975 473 
Q 1284 391 1588 391 
Q 1994 391 2212 530 
Q 2431 669 2431 922 
Q 2431 1156 2273 1281 
Q 2116 1406 1581 1522 
L 1381 1569 
Q 847 1681 609 1914 
Q 372 2147 372 2553 
Q 372 3047 722 3315 
Q 1072 3584 1716 3584 
Q 2034 3584 2315 3537 
Q 2597 3491 2834 3397 
z
" transform="scale(0.015625)"/>
       <path id="DejaVuSans-79" d="M 2059 -325 
Q 1816 -950 1584 -1140 
Q 1353 -1331 966 -1331 
L 506 -1331 
L 506 -850 
L 844 -850 
Q 1081 -850 1212 -737 
Q 1344 -625 1503 -206 
L 1606 56 
L 191 3500 
L 800 3500 
L 1894 763 
L 2988 3500 
L 3597 3500 
L 2059 -325 
z
" transform="scale(0.015625)"/>
      </defs>
      <use xlink:href="#DejaVuSans-43"/>
      <use xlink:href="#DejaVuSans-69" transform="translate(69.824219 0)"/>
      <use xlink:href="#DejaVuSans-72" transform="translate(97.607422 0)"/>
      <use xlink:href="#DejaVuSans-63" transform="translate(136.470703 0)"/>
      <use xlink:href="#DejaVuSans-75" transform="translate(191.451172 0)"/>
      <use xlink:href="#DejaVuSans-69" transform="translate(254.830078 0)"/>
      <use xlink:href="#DejaVuSans-74" transform="translate(282.613281 0)"/>
      <use xlink:href="#DejaVuSans-20" transform="translate(321.822266 0)"/>
      <use xlink:href="#DejaVuSans-38" transform="translate(353.609375 0)"/>
      <use xlink:href="#DejaVuSans-20" transform="translate(417.232422 0)"/>
      <use xlink:href="#DejaVuSans-28" transform="translate(449.019531 0)"/>
      <use xlink:href="#DejaVuSans-6e" transform="translate(488.033203 0)"/>
      <use xlink:href="#DejaVuSans-6f" transform="translate(551.412109 0)"/>
      <use xlink:href="#DejaVuSans-69" transform="translate(612.59375 0)"/>
      <use xlink:href="#DejaVuSans-73" transform="translate(640.376953 0)"/>
      <use xlink:href="#DejaVuSans-79" transform="translate(692.476562 0)"/>
      <use xlink:href="#DejaVuSans-29" transform="translate(751.65625 0)"/>
     </g>
    </g>
   </g>
  </g>
 </g>
 <defs>
  <clipPath id="p73a0f24eae">
   <rect x="54.29" y="10.8" width="395.71" height="291.4"/>
  </clipPath>
 </defs>
</svg>
