<?xml version="1.0" encoding="utf-8" standalone="no"?>
<!DOCTYPE svg PUBLIC "-//W3C//DTD SVG 1.1//EN"
  "http://www.w3.org/Graphics/SVG/1.1/DTD/svg11.dtd">
<svg xmlns:xlink="http://www.w3.org/1999/xlink" width="322.74pt" height="79.2pt" viewBox="0 0 322.74 79.2" xmlns="http://www.w3.org/2000/svg" version="1.1">
 <metadata>
  <rdf:RDF xmlns:dc="http://purl.org/dc/elements/1.1/" xmlns:cc="http://creativecommons.org/ns#" xmlns:rdf="http://www.w3.org/1999/02/22-rdf-syntax-ns#">
   <cc:Work>
    <dc:type rdf:resource="http://purl.org/dc/dcmitype/StillImage"/>
    <dc:date>2024-03-14T17:42:15.744295</dc:date>
    <dc:format>image/svg+xml</dc:format>
    <dc:creator>
     <cc:Agent>
      <dc:title>Matplotlib v3.8.3, https://matplotlib.org/</dc:title>
     </cc:Agent>
    </dc:creator>
   </cc:Work>
  </rdf:RDF>
 </metadata>
 <defs>
  <style type="text/css">*{stroke-linejoin: round; stroke-linecap: butt}</style>
 </defs>
 <g id="figure_1">
  <g id="patch_1">
   <path d="M 0 79.2 
L 322.74 79.2 
L 322.74 0 
L 0 0 
L 0 79.2 
z
" style="fill: none"/>
  </g>
  <g id="axes_1">
   <g id="line2d_1">
    <path d="M 17.37 12.6 
L 35.37 12.6 
L 53.37 12.6 
" clip-path="url(#p4524d176fc)" style="fill: none; stroke: #000000; stroke-width: 2; stroke-linecap: round"/>
   </g>
   <g id="line2d_2">
    <path d="M 53.37 12.6 
L 71.37 12.6 
L 74.37 3.6 
L 80.37 21.6 
L 86.37 3.6 
L 92.37 21.6 
L 98.37 3.6 
L 104.37 21.6 
L 107.37 12.6 
L 125.37 12.6 
" clip-path="url(#p4524d176fc)" style="fill: none; stroke: #000000; stroke-width: 2; stroke-linecap: round"/>
   </g>
   <g id="line2d_3">
    <path d="M 125.37 12.6 
L 125.37 39.6 
L 125.37 66.6 
" clip-path="url(#p4524d176fc)" style="fill: none; stroke: #000000; stroke-width: 2; stroke-linecap: round"/>
   </g>
   <g id="line2d_4">
    <path d="M 125.37 66.6 
L 143.37 66.6 
L 146.37 57.6 
L 152.37 75.6 
L 158.37 57.6 
L 164.37 75.6 
L 170.37 57.6 
L 176.37 75.6 
L 179.37 66.6 
L 197.37 66.6 
" clip-path="url(#p4524d176fc)" style="fill: none; stroke: #000000; stroke-width: 2; stroke-linecap: round"/>
   </g>
   <g id="line2d_5">
    <path d="M 197.37 66.6 
L 215.37 66.6 
L 215.37 57.6 
L 251.37 57.6 
L 251.37 75.6 
L 215.37 75.6 
L 215.37 66.6 
M 251.37 66.6 
L 269.37 66.6 
" clip-path="url(#p4524d176fc)" style="fill: none; stroke: #000000; stroke-width: 2; stroke-linecap: round"/>
   </g>
   <g id="line2d_6">
    <path d="M 269.37 66.6 
L 269.37 39.6 
L 269.37 12.6 
" clip-path="url(#p4524d176fc)" style="fill: none; stroke: #000000; stroke-width: 2; stroke-linecap: round"/>
   </g>
   <g id="line2d_7">
    <path d="M 125.37 12.6 
L 158.13 12.6 
M 158.13 3.6 
L 158.13 21.6 
M 164.61 3.6 
L 164.61 21.6 
M 164.61 12.6 
L 197.37 12.6 
" clip-path="url(#p4524d176fc)" style="fill: none; stroke: #000000; stroke-width: 2; stroke-linecap: round"/>
   </g>
   <g id="line2d_8">
    <path d="M 197.37 12.6 
L 233.37 12.6 
L 269.37 12.6 
" clip-path="url(#p4524d176fc)" style="fill: none; stroke: #000000; stroke-width: 2; stroke-linecap: round"/>
   </g>
   <g id="line2d_9">
    <path d="M 269.37 12.6 
L 287.37 12.6 
L 305.37 12.6 
" clip-path="url(#p4524d176fc)" style="fill: none; stroke: #000000; stroke-width: 2; stroke-linecap: round"/>
   </g>
   <g id="text_1">
    <!-- $R_{\rm 1}$ -->
    <g transform="translate(82.0575 -2.599609) scale(0.125 -0.125)">
     <defs>
      <path id="DejaVuSans-Oblique-52" d="M 1613 4147 
L 1294 2491 
L 2106 2491 
Q 2584 2491 2879 2755 
Q 3175 3019 3175 3444 
Q 3175 3784 2976 3965 
Q 2778 4147 2406 4147 
L 1613 4147 
z
M 2772 2241 
Q 2972 2194 3105 2009 
Q 3238 1825 3413 1275 
L 3809 0 
L 3144 0 
L 2778 1197 
Q 2638 1659 2453 1815 
Q 2269 1972 1888 1972 
L 1191 1972 
L 806 0 
L 172 0 
L 1081 4666 
L 2503 4666 
Q 3150 4666 3495 4373 
Q 3841 4081 3841 3531 
Q 3841 3044 3547 2687 
Q 3253 2331 2772 2241 
z
" transform="scale(0.015625)"/>
      <path id="DejaVuSans-31" d="M 794 531 
L 1825 531 
L 1825 4091 
L 703 3866 
L 703 4441 
L 1819 4666 
L 2450 4666 
L 2450 531 
L 3481 531 
L 3481 0 
L 794 0 
L 794 531 
z
" transform="scale(0.015625)"/>
     </defs>
     <use xlink:href="#DejaVuSans-Oblique-52" transform="translate(0 0.09375)"/>
     <use xlink:href="#DejaVuSans-31" transform="translate(69.482422 -16.3125) scale(0.7)"/>
    </g>
   </g>
   <g id="text_2">
    <!-- $R_{\rm 2}$ -->
    <g transform="translate(154.0575 51.400391) scale(0.125 -0.125)">
     <defs>
      <path id="DejaVuSans-32" d="M 1228 531 
L 3431 531 
L 3431 0 
L 469 0 
L 469 531 
Q 828 903 1448 1529 
Q 2069 2156 2228 2338 
Q 2531 2678 2651 2914 
Q 2772 3150 2772 3378 
Q 2772 3750 2511 3984 
Q 2250 4219 1831 4219 
Q 1534 4219 1204 4116 
Q 875 4013 500 3803 
L 500 4441 
Q 881 4594 1212 4672 
Q 1544 4750 1819 4750 
Q 2544 4750 2975 4387 
Q 3406 4025 3406 3419 
Q 3406 3131 3298 2873 
Q 3191 2616 2906 2266 
Q 2828 2175 2409 1742 
Q 1991 1309 1228 531 
z
" transform="scale(0.015625)"/>
     </defs>
     <use xlink:href="#DejaVuSans-Oblique-52" transform="translate(0 0.09375)"/>
     <use xlink:href="#DejaVuSans-32" transform="translate(69.482422 -16.3125) scale(0.7)"/>
    </g>
   </g>
   <g id="text_3">
    <!-- $W_{\rm 1}$ -->
    <g transform="translate(224.1825 51.400391) scale(0.125 -0.125)">
     <defs>
      <path id="DejaVuSans-Oblique-57" d="M 616 4666 
L 1228 4666 
L 1453 697 
L 3213 4666 
L 3916 4666 
L 4147 697 
L 5888 4666 
L 6528 4666 
L 4453 0 
L 3659 0 
L 3444 3891 
L 1697 0 
L 903 0 
L 616 4666 
z
" transform="scale(0.015625)"/>
     </defs>
     <use xlink:href="#DejaVuSans-Oblique-57" transform="translate(0 0.09375)"/>
     <use xlink:href="#DejaVuSans-31" transform="translate(98.876953 -16.3125) scale(0.7)"/>
    </g>
   </g>
   <g id="text_4">
    <!-- $C_{\rm 1}$ -->
    <g transform="translate(153.995 -2.599609) scale(0.125 -0.125)">
     <defs>
      <path id="DejaVuSans-Oblique-43" d="M 4447 4306 
L 4319 3641 
Q 4019 3944 3683 4091 
Q 3347 4238 2956 4238 
Q 2422 4238 2017 3981 
Q 1613 3725 1319 3200 
Q 1131 2863 1032 2486 
Q 934 2109 934 1728 
Q 934 1091 1264 756 
Q 1594 422 2222 422 
Q 2656 422 3056 561 
Q 3456 700 3834 978 
L 3688 231 
Q 3316 72 2936 -9 
Q 2556 -91 2175 -91 
Q 1278 -91 773 396 
Q 269 884 269 1753 
Q 269 2309 461 2846 
Q 653 3384 1013 3828 
Q 1394 4300 1883 4525 
Q 2372 4750 3022 4750 
Q 3422 4750 3780 4639 
Q 4138 4528 4447 4306 
z
" transform="scale(0.015625)"/>
     </defs>
     <use xlink:href="#DejaVuSans-Oblique-43" transform="translate(0 0.78125)"/>
     <use xlink:href="#DejaVuSans-31" transform="translate(69.824219 -15.625) scale(0.7)"/>
    </g>
   </g>
   <g id="patch_2">
    <path d="M 17.37 15.3 
C 18.086048 15.3 18.772866 15.015511 19.279188 14.509188 
C 19.785511 14.002866 20.07 13.316048 20.07 12.6 
C 20.07 11.883952 19.785511 11.197134 19.279188 10.690812 
C 18.772866 10.184489 18.086048 9.9 17.37 9.9 
C 16.653952 9.9 15.967134 10.184489 15.460812 10.690812 
C 14.954489 11.197134 14.67 11.883952 14.67 12.6 
C 14.67 13.316048 14.954489 14.002866 15.460812 14.509188 
C 15.967134 15.015511 16.653952 15.3 17.37 15.3 
z
" clip-path="url(#p4524d176fc)" style="fill: #ffffff; stroke: #000000; stroke-width: 2; stroke-linejoin: miter"/>
   </g>
   <g id="patch_3">
    <path d="M 305.37 15.3 
C 306.086048 15.3 306.772866 15.015511 307.279188 14.509188 
C 307.785511 14.002866 308.07 13.316048 308.07 12.6 
C 308.07 11.883952 307.785511 11.197134 307.279188 10.690812 
C 306.772866 10.184489 306.086048 9.9 305.37 9.9 
C 304.653952 9.9 303.967134 10.184489 303.460812 10.690812 
C 302.954489 11.197134 302.67 11.883952 302.67 12.6 
C 302.67 13.316048 302.954489 14.002866 303.460812 14.509188 
C 303.967134 15.015511 304.653952 15.3 305.37 15.3 
z
" clip-path="url(#p4524d176fc)" style="fill: #ffffff; stroke: #000000; stroke-width: 2; stroke-linejoin: miter"/>
   </g>
  </g>
 </g>
 <defs>
  <clipPath id="p4524d176fc">
   <rect x="0" y="0" width="322.74" height="79.2"/>
  </clipPath>
 </defs>
</svg>
