<?xml version="1.0" encoding="utf-8" standalone="no"?>
<!DOCTYPE svg PUBLIC "-//W3C//DTD SVG 1.1//EN"
  "http://www.w3.org/Graphics/SVG/1.1/DTD/svg11.dtd">
<svg xmlns:xlink="http://www.w3.org/1999/xlink" width="460.8pt" height="345.6pt" viewBox="0 0 460.8 345.6" xmlns="http://www.w3.org/2000/svg" version="1.1">
 <metadata>
  <rdf:RDF xmlns:dc="http://purl.org/dc/elements/1.1/" xmlns:cc="http://creativecommons.org/ns#" xmlns:rdf="http://www.w3.org/1999/02/22-rdf-syntax-ns#">
   <cc:Work>
    <dc:type rdf:resource="http://purl.org/dc/dcmitype/StillImage"/>
    <dc:date>2025-03-02T11:09:48.993207</dc:date>
    <dc:format>image/svg+xml</dc:format>
    <dc:creator>
     <cc:Agent>
      <dc:title>Matplotlib v3.10.1, https://matplotlib.org/</dc:title>
     </cc:Agent>
    </dc:creator>
   </cc:Work>
  </rdf:RDF>
 </metadata>
 <defs>
  <style type="text/css">*{stroke-linejoin: round; stroke-linecap: butt}</style>
 </defs>
 <g id="figure_1">
  <g id="patch_1">
   <path d="M 0 345.6 
L 460.8 345.6 
L 460.8 0 
L 0 0 
L 0 345.6 
z
" style="fill: none"/>
  </g>
  <g id="axes_1">
   <g id="patch_2">
    <path d="M 60.68 302.2 
L 450 302.2 
L 450 10.8 
L 60.68 10.8 
L 60.68 302.2 
z
" style="fill: none"/>
   </g>
   <g id="PathCollection_1">
    <defs>
     <path id="C0_0_b1dfd6192f" d="M 0 3 
C 0.795609 3 1.55874 2.683901 2.12132 2.12132 
C 2.683901 1.55874 3 0.795609 3 -0 
C 3 -0.795609 2.683901 -1.55874 2.12132 -2.12132 
C 1.55874 -2.683901 0.795609 -3 0 -3 
C -0.795609 -3 -1.55874 -2.683901 -2.12132 -2.12132 
C -2.683901 -1.55874 -3 -0.795609 -3 0 
C -3 0.795609 -2.683901 1.55874 -2.12132 2.12132 
C -1.55874 2.683901 -0.795609 3 0 3 
z
"/>
    </defs>
    <g clip-path="url(#p5616c07610)">
     <use xlink:href="#C0_0_b1dfd6192f" x="78.376375" y="219.695492" style="fill: none; stroke: #000000"/>
    </g>
    <g clip-path="url(#p5616c07610)">
     <use xlink:href="#C0_0_b1dfd6192f" x="78.379595" y="219.486623" style="fill: none; stroke: #000000"/>
    </g>
    <g clip-path="url(#p5616c07610)">
     <use xlink:href="#C0_0_b1dfd6192f" x="78.384699" y="219.223701" style="fill: none; stroke: #000000"/>
    </g>
    <g clip-path="url(#p5616c07610)">
     <use xlink:href="#C0_0_b1dfd6192f" x="78.392787" y="218.892758" style="fill: none; stroke: #000000"/>
    </g>
    <g clip-path="url(#p5616c07610)">
     <use xlink:href="#C0_0_b1dfd6192f" x="78.405602" y="218.476237" style="fill: none; stroke: #000000"/>
    </g>
    <g clip-path="url(#p5616c07610)">
     <use xlink:href="#C0_0_b1dfd6192f" x="78.425908" y="217.95209" style="fill: none; stroke: #000000"/>
    </g>
    <g clip-path="url(#p5616c07610)">
     <use xlink:href="#C0_0_b1dfd6192f" x="78.458075" y="217.292672" style="fill: none; stroke: #000000"/>
    </g>
    <g clip-path="url(#p5616c07610)">
     <use xlink:href="#C0_0_b1dfd6192f" x="78.50902" y="216.463399" style="fill: none; stroke: #000000"/>
    </g>
    <g clip-path="url(#p5616c07610)">
     <use xlink:href="#C0_0_b1dfd6192f" x="78.589669" y="215.421168" style="fill: none; stroke: #000000"/>
    </g>
    <g clip-path="url(#p5616c07610)">
     <use xlink:href="#C0_0_b1dfd6192f" x="78.717259" y="214.112585" style="fill: none; stroke: #000000"/>
    </g>
    <g clip-path="url(#p5616c07610)">
     <use xlink:href="#C0_0_b1dfd6192f" x="78.918894" y="212.472146" style="fill: none; stroke: #000000"/>
    </g>
    <g clip-path="url(#p5616c07610)">
     <use xlink:href="#C0_0_b1dfd6192f" x="79.237016" y="210.420777" style="fill: none; stroke: #000000"/>
    </g>
    <g clip-path="url(#p5616c07610)">
     <use xlink:href="#C0_0_b1dfd6192f" x="79.7376" y="207.865563" style="fill: none; stroke: #000000"/>
    </g>
    <g clip-path="url(#p5616c07610)">
     <use xlink:href="#C0_0_b1dfd6192f" x="80.522038" y="204.702381" style="fill: none; stroke: #000000"/>
    </g>
    <g clip-path="url(#p5616c07610)">
     <use xlink:href="#C0_0_b1dfd6192f" x="81.743345" y="200.824609" style="fill: none; stroke: #000000"/>
    </g>
    <g clip-path="url(#p5616c07610)">
     <use xlink:href="#C0_0_b1dfd6192f" x="83.625752" y="196.143294" style="fill: none; stroke: #000000"/>
    </g>
    <g clip-path="url(#p5616c07610)">
     <use xlink:href="#C0_0_b1dfd6192f" x="86.482507" y="190.626592" style="fill: none; stroke: #000000"/>
    </g>
    <g clip-path="url(#p5616c07610)">
     <use xlink:href="#C0_0_b1dfd6192f" x="90.717588" y="184.36627" style="fill: none; stroke: #000000"/>
    </g>
    <g clip-path="url(#p5616c07610)">
     <use xlink:href="#C0_0_b1dfd6192f" x="96.78294" y="177.669596" style="fill: none; stroke: #000000"/>
    </g>
    <g clip-path="url(#p5616c07610)">
     <use xlink:href="#C0_0_b1dfd6192f" x="105.053467" y="171.145081" style="fill: none; stroke: #000000"/>
    </g>
    <g clip-path="url(#p5616c07610)">
     <use xlink:href="#C0_0_b1dfd6192f" x="115.606956" y="165.700045" style="fill: none; stroke: #000000"/>
    </g>
    <g clip-path="url(#p5616c07610)">
     <use xlink:href="#C0_0_b1dfd6192f" x="127.989751" y="162.344612" style="fill: none; stroke: #000000"/>
    </g>
    <g clip-path="url(#p5616c07610)">
     <use xlink:href="#C0_0_b1dfd6192f" x="141.165931" y="161.798817" style="fill: none; stroke: #000000"/>
    </g>
    <g clip-path="url(#p5616c07610)">
     <use xlink:href="#C0_0_b1dfd6192f" x="153.805664" y="164.123819" style="fill: none; stroke: #000000"/>
    </g>
    <g clip-path="url(#p5616c07610)">
     <use xlink:href="#C0_0_b1dfd6192f" x="164.781539" y="168.680231" style="fill: none; stroke: #000000"/>
    </g>
    <g clip-path="url(#p5616c07610)">
     <use xlink:href="#C0_0_b1dfd6192f" x="173.519696" y="174.450986" style="fill: none; stroke: #000000"/>
    </g>
    <g clip-path="url(#p5616c07610)">
     <use xlink:href="#C0_0_b1dfd6192f" x="180.010357" y="180.45244" style="fill: none; stroke: #000000"/>
    </g>
    <g clip-path="url(#p5616c07610)">
     <use xlink:href="#C0_0_b1dfd6192f" x="184.592138" y="185.973655" style="fill: none; stroke: #000000"/>
    </g>
    <g clip-path="url(#p5616c07610)">
     <use xlink:href="#C0_0_b1dfd6192f" x="187.719138" y="190.607644" style="fill: none; stroke: #000000"/>
    </g>
    <g clip-path="url(#p5616c07610)">
     <use xlink:href="#C0_0_b1dfd6192f" x="189.817147" y="194.17258" style="fill: none; stroke: #000000"/>
    </g>
    <g clip-path="url(#p5616c07610)">
     <use xlink:href="#C0_0_b1dfd6192f" x="191.229025" y="196.61443" style="fill: none; stroke: #000000"/>
    </g>
    <g clip-path="url(#p5616c07610)">
     <use xlink:href="#C0_0_b1dfd6192f" x="192.212657" y="197.931441" style="fill: none; stroke: #000000"/>
    </g>
    <g clip-path="url(#p5616c07610)">
     <use xlink:href="#C0_0_b1dfd6192f" x="192.960736" y="198.126078" style="fill: none; stroke: #000000"/>
    </g>
    <g clip-path="url(#p5616c07610)">
     <use xlink:href="#C0_0_b1dfd6192f" x="193.626339" y="197.177563" style="fill: none; stroke: #000000"/>
    </g>
    <g clip-path="url(#p5616c07610)">
     <use xlink:href="#C0_0_b1dfd6192f" x="194.348816" y="195.027265" style="fill: none; stroke: #000000"/>
    </g>
    <g clip-path="url(#p5616c07610)">
     <use xlink:href="#C0_0_b1dfd6192f" x="195.280072" y="191.57207" style="fill: none; stroke: #000000"/>
    </g>
    <g clip-path="url(#p5616c07610)">
     <use xlink:href="#C0_0_b1dfd6192f" x="196.613782" y="186.664324" style="fill: none; stroke: #000000"/>
    </g>
    <g clip-path="url(#p5616c07610)">
     <use xlink:href="#C0_0_b1dfd6192f" x="198.620761" y="180.120753" style="fill: none; stroke: #000000"/>
    </g>
    <g clip-path="url(#p5616c07610)">
     <use xlink:href="#C0_0_b1dfd6192f" x="201.692841" y="171.747392" style="fill: none; stroke: #000000"/>
    </g>
    <g clip-path="url(#p5616c07610)">
     <use xlink:href="#C0_0_b1dfd6192f" x="206.393385" y="161.393662" style="fill: none; stroke: #000000"/>
    </g>
    <g clip-path="url(#p5616c07610)">
     <use xlink:href="#C0_0_b1dfd6192f" x="213.501493" y="149.054966" style="fill: none; stroke: #000000"/>
    </g>
    <g clip-path="url(#p5616c07610)">
     <use xlink:href="#C0_0_b1dfd6192f" x="224.013655" y="135.043018" style="fill: none; stroke: #000000"/>
    </g>
    <g clip-path="url(#p5616c07610)">
     <use xlink:href="#C0_0_b1dfd6192f" x="239.031104" y="120.21885" style="fill: none; stroke: #000000"/>
    </g>
    <g clip-path="url(#p5616c07610)">
     <use xlink:href="#C0_0_b1dfd6192f" x="259.437784" y="106.207371" style="fill: none; stroke: #000000"/>
    </g>
    <g clip-path="url(#p5616c07610)">
     <use xlink:href="#C0_0_b1dfd6192f" x="285.338222" y="95.385129" style="fill: none; stroke: #000000"/>
    </g>
    <g clip-path="url(#p5616c07610)">
     <use xlink:href="#C0_0_b1dfd6192f" x="315.461635" y="90.375593" style="fill: none; stroke: #000000"/>
    </g>
    <g clip-path="url(#p5616c07610)">
     <use xlink:href="#C0_0_b1dfd6192f" x="347.03127" y="93.045726" style="fill: none; stroke: #000000"/>
    </g>
    <g clip-path="url(#p5616c07610)">
     <use xlink:href="#C0_0_b1dfd6192f" x="376.487929" y="103.558865" style="fill: none; stroke: #000000"/>
    </g>
    <g clip-path="url(#p5616c07610)">
     <use xlink:href="#C0_0_b1dfd6192f" x="400.740599" y="120.235726" style="fill: none; stroke: #000000"/>
    </g>
    <g clip-path="url(#p5616c07610)">
     <use xlink:href="#C0_0_b1dfd6192f" x="418.079996" y="140.311193" style="fill: none; stroke: #000000"/>
    </g>
    <g clip-path="url(#p5616c07610)">
     <use xlink:href="#C0_0_b1dfd6192f" x="428.298663" y="160.920937" style="fill: none; stroke: #000000"/>
    </g>
    <g clip-path="url(#p5616c07610)">
     <use xlink:href="#C0_0_b1dfd6192f" x="432.303636" y="179.736567" style="fill: none; stroke: #000000"/>
    </g>
    <g clip-path="url(#p5616c07610)">
     <use xlink:href="#C0_0_b1dfd6192f" x="431.660697" y="195.222993" style="fill: none; stroke: #000000"/>
    </g>
    <g clip-path="url(#p5616c07610)">
     <use xlink:href="#C0_0_b1dfd6192f" x="428.193818" y="206.718739" style="fill: none; stroke: #000000"/>
    </g>
    <g clip-path="url(#p5616c07610)">
     <use xlink:href="#C0_0_b1dfd6192f" x="423.589008" y="214.380972" style="fill: none; stroke: #000000"/>
    </g>
    <g clip-path="url(#p5616c07610)">
     <use xlink:href="#C0_0_b1dfd6192f" x="419.068129" y="218.936173" style="fill: none; stroke: #000000"/>
    </g>
    <g clip-path="url(#p5616c07610)">
     <use xlink:href="#C0_0_b1dfd6192f" x="415.27713" y="221.312585" style="fill: none; stroke: #000000"/>
    </g>
    <g clip-path="url(#p5616c07610)">
     <use xlink:href="#C0_0_b1dfd6192f" x="412.397683" y="222.340995" style="fill: none; stroke: #000000"/>
    </g>
    <g clip-path="url(#p5616c07610)">
     <use xlink:href="#C0_0_b1dfd6192f" x="410.348191" y="222.624407" style="fill: none; stroke: #000000"/>
    </g>
    <g clip-path="url(#p5616c07610)">
     <use xlink:href="#C0_0_b1dfd6192f" x="408.950523" y="222.541849" style="fill: none; stroke: #000000"/>
    </g>
    <g clip-path="url(#p5616c07610)">
     <use xlink:href="#C0_0_b1dfd6192f" x="408.02362" y="222.307375" style="fill: none; stroke: #000000"/>
    </g>
   </g>
   <g id="PathCollection_2">
    <defs>
     <path id="m982f8f629e" d="M -3 0 
L 3 0 
M 0 3 
L 0 -3 
" style="stroke: #ff0000; stroke-width: 1.5"/>
    </defs>
    <g clip-path="url(#p5616c07610)">
     <use xlink:href="#m982f8f629e" x="78.376364" y="219.696224" style="fill: #ff0000; stroke: #ff0000; stroke-width: 1.5"/>
     <use xlink:href="#m982f8f629e" x="78.379584" y="219.487205" style="fill: #ff0000; stroke: #ff0000; stroke-width: 1.5"/>
     <use xlink:href="#m982f8f629e" x="78.384687" y="219.224163" style="fill: #ff0000; stroke: #ff0000; stroke-width: 1.5"/>
     <use xlink:href="#m982f8f629e" x="78.392775" y="218.893125" style="fill: #ff0000; stroke: #ff0000; stroke-width: 1.5"/>
     <use xlink:href="#m982f8f629e" x="78.405591" y="218.476528" style="fill: #ff0000; stroke: #ff0000; stroke-width: 1.5"/>
     <use xlink:href="#m982f8f629e" x="78.425896" y="217.952321" style="fill: #ff0000; stroke: #ff0000; stroke-width: 1.5"/>
     <use xlink:href="#m982f8f629e" x="78.458063" y="217.292856" style="fill: #ff0000; stroke: #ff0000; stroke-width: 1.5"/>
     <use xlink:href="#m982f8f629e" x="78.509008" y="216.463545" style="fill: #ff0000; stroke: #ff0000; stroke-width: 1.5"/>
     <use xlink:href="#m982f8f629e" x="78.589658" y="215.421284" style="fill: #ff0000; stroke: #ff0000; stroke-width: 1.5"/>
     <use xlink:href="#m982f8f629e" x="78.717247" y="214.112676" style="fill: #ff0000; stroke: #ff0000; stroke-width: 1.5"/>
     <use xlink:href="#m982f8f629e" x="78.918883" y="212.472218" style="fill: #ff0000; stroke: #ff0000; stroke-width: 1.5"/>
     <use xlink:href="#m982f8f629e" x="79.237005" y="210.420833" style="fill: #ff0000; stroke: #ff0000; stroke-width: 1.5"/>
     <use xlink:href="#m982f8f629e" x="79.737588" y="207.865607" style="fill: #ff0000; stroke: #ff0000; stroke-width: 1.5"/>
     <use xlink:href="#m982f8f629e" x="80.522027" y="204.702415" style="fill: #ff0000; stroke: #ff0000; stroke-width: 1.5"/>
     <use xlink:href="#m982f8f629e" x="81.743334" y="200.824635" style="fill: #ff0000; stroke: #ff0000; stroke-width: 1.5"/>
     <use xlink:href="#m982f8f629e" x="83.625741" y="196.143313" style="fill: #ff0000; stroke: #ff0000; stroke-width: 1.5"/>
     <use xlink:href="#m982f8f629e" x="86.482497" y="190.626606" style="fill: #ff0000; stroke: #ff0000; stroke-width: 1.5"/>
     <use xlink:href="#m982f8f629e" x="90.717579" y="184.366279" style="fill: #ff0000; stroke: #ff0000; stroke-width: 1.5"/>
     <use xlink:href="#m982f8f629e" x="96.782932" y="177.669601" style="fill: #ff0000; stroke: #ff0000; stroke-width: 1.5"/>
     <use xlink:href="#m982f8f629e" x="105.053461" y="171.145084" style="fill: #ff0000; stroke: #ff0000; stroke-width: 1.5"/>
     <use xlink:href="#m982f8f629e" x="115.606951" y="165.700046" style="fill: #ff0000; stroke: #ff0000; stroke-width: 1.5"/>
     <use xlink:href="#m982f8f629e" x="127.989748" y="162.344612" style="fill: #ff0000; stroke: #ff0000; stroke-width: 1.5"/>
     <use xlink:href="#m982f8f629e" x="141.165929" y="161.798816" style="fill: #ff0000; stroke: #ff0000; stroke-width: 1.5"/>
     <use xlink:href="#m982f8f629e" x="153.805663" y="164.123818" style="fill: #ff0000; stroke: #ff0000; stroke-width: 1.5"/>
     <use xlink:href="#m982f8f629e" x="164.781538" y="168.68023" style="fill: #ff0000; stroke: #ff0000; stroke-width: 1.5"/>
     <use xlink:href="#m982f8f629e" x="173.519696" y="174.450986" style="fill: #ff0000; stroke: #ff0000; stroke-width: 1.5"/>
     <use xlink:href="#m982f8f629e" x="180.010357" y="180.45244" style="fill: #ff0000; stroke: #ff0000; stroke-width: 1.5"/>
     <use xlink:href="#m982f8f629e" x="184.592138" y="185.973654" style="fill: #ff0000; stroke: #ff0000; stroke-width: 1.5"/>
     <use xlink:href="#m982f8f629e" x="187.719138" y="190.607644" style="fill: #ff0000; stroke: #ff0000; stroke-width: 1.5"/>
     <use xlink:href="#m982f8f629e" x="189.817147" y="194.17258" style="fill: #ff0000; stroke: #ff0000; stroke-width: 1.5"/>
     <use xlink:href="#m982f8f629e" x="191.229025" y="196.61443" style="fill: #ff0000; stroke: #ff0000; stroke-width: 1.5"/>
     <use xlink:href="#m982f8f629e" x="192.212657" y="197.931441" style="fill: #ff0000; stroke: #ff0000; stroke-width: 1.5"/>
     <use xlink:href="#m982f8f629e" x="192.960736" y="198.126078" style="fill: #ff0000; stroke: #ff0000; stroke-width: 1.5"/>
     <use xlink:href="#m982f8f629e" x="193.626339" y="197.177563" style="fill: #ff0000; stroke: #ff0000; stroke-width: 1.5"/>
     <use xlink:href="#m982f8f629e" x="194.348816" y="195.027265" style="fill: #ff0000; stroke: #ff0000; stroke-width: 1.5"/>
     <use xlink:href="#m982f8f629e" x="195.280072" y="191.57207" style="fill: #ff0000; stroke: #ff0000; stroke-width: 1.5"/>
     <use xlink:href="#m982f8f629e" x="196.613782" y="186.664324" style="fill: #ff0000; stroke: #ff0000; stroke-width: 1.5"/>
     <use xlink:href="#m982f8f629e" x="198.620761" y="180.120753" style="fill: #ff0000; stroke: #ff0000; stroke-width: 1.5"/>
     <use xlink:href="#m982f8f629e" x="201.692841" y="171.747392" style="fill: #ff0000; stroke: #ff0000; stroke-width: 1.5"/>
     <use xlink:href="#m982f8f629e" x="206.393385" y="161.393662" style="fill: #ff0000; stroke: #ff0000; stroke-width: 1.5"/>
     <use xlink:href="#m982f8f629e" x="213.501493" y="149.054966" style="fill: #ff0000; stroke: #ff0000; stroke-width: 1.5"/>
     <use xlink:href="#m982f8f629e" x="224.013655" y="135.043018" style="fill: #ff0000; stroke: #ff0000; stroke-width: 1.5"/>
     <use xlink:href="#m982f8f629e" x="239.031104" y="120.21885" style="fill: #ff0000; stroke: #ff0000; stroke-width: 1.5"/>
     <use xlink:href="#m982f8f629e" x="259.437784" y="106.207371" style="fill: #ff0000; stroke: #ff0000; stroke-width: 1.5"/>
     <use xlink:href="#m982f8f629e" x="285.338222" y="95.385129" style="fill: #ff0000; stroke: #ff0000; stroke-width: 1.5"/>
     <use xlink:href="#m982f8f629e" x="315.461635" y="90.375593" style="fill: #ff0000; stroke: #ff0000; stroke-width: 1.5"/>
     <use xlink:href="#m982f8f629e" x="347.03127" y="93.045726" style="fill: #ff0000; stroke: #ff0000; stroke-width: 1.5"/>
     <use xlink:href="#m982f8f629e" x="376.487929" y="103.558865" style="fill: #ff0000; stroke: #ff0000; stroke-width: 1.5"/>
     <use xlink:href="#m982f8f629e" x="400.740599" y="120.235726" style="fill: #ff0000; stroke: #ff0000; stroke-width: 1.5"/>
     <use xlink:href="#m982f8f629e" x="418.079996" y="140.311193" style="fill: #ff0000; stroke: #ff0000; stroke-width: 1.5"/>
     <use xlink:href="#m982f8f629e" x="428.298663" y="160.920937" style="fill: #ff0000; stroke: #ff0000; stroke-width: 1.5"/>
     <use xlink:href="#m982f8f629e" x="432.303636" y="179.736567" style="fill: #ff0000; stroke: #ff0000; stroke-width: 1.5"/>
     <use xlink:href="#m982f8f629e" x="431.660697" y="195.222993" style="fill: #ff0000; stroke: #ff0000; stroke-width: 1.5"/>
     <use xlink:href="#m982f8f629e" x="428.193818" y="206.718739" style="fill: #ff0000; stroke: #ff0000; stroke-width: 1.5"/>
     <use xlink:href="#m982f8f629e" x="423.589008" y="214.380972" style="fill: #ff0000; stroke: #ff0000; stroke-width: 1.5"/>
     <use xlink:href="#m982f8f629e" x="419.068129" y="218.936173" style="fill: #ff0000; stroke: #ff0000; stroke-width: 1.5"/>
     <use xlink:href="#m982f8f629e" x="415.27713" y="221.312585" style="fill: #ff0000; stroke: #ff0000; stroke-width: 1.5"/>
     <use xlink:href="#m982f8f629e" x="412.397683" y="222.340995" style="fill: #ff0000; stroke: #ff0000; stroke-width: 1.5"/>
     <use xlink:href="#m982f8f629e" x="410.348191" y="222.624407" style="fill: #ff0000; stroke: #ff0000; stroke-width: 1.5"/>
     <use xlink:href="#m982f8f629e" x="408.950523" y="222.541849" style="fill: #ff0000; stroke: #ff0000; stroke-width: 1.5"/>
     <use xlink:href="#m982f8f629e" x="408.02362" y="222.307375" style="fill: #ff0000; stroke: #ff0000; stroke-width: 1.5"/>
    </g>
   </g>
   <g id="matplotlib.axis_1">
    <g id="xtick_1">
     <g id="line2d_1">
      <defs>
       <path id="m19413bedb7" d="M 0 0 
L 0 3.5 
" style="stroke: #000000; stroke-width: 0.8"/>
      </defs>
      <g>
       <use xlink:href="#m19413bedb7" x="83.370588" y="302.2" style="stroke: #000000; stroke-width: 0.8"/>
      </g>
     </g>
     <g id="text_1">
      <!-- 300 -->
      <g transform="translate(73.826838 316.798437) scale(0.1 -0.1)">
       <defs>
        <path id="DejaVuSans-33" d="M 2597 2516 
Q 3050 2419 3304 2112 
Q 3559 1806 3559 1356 
Q 3559 666 3084 287 
Q 2609 -91 1734 -91 
Q 1441 -91 1130 -33 
Q 819 25 488 141 
L 488 750 
Q 750 597 1062 519 
Q 1375 441 1716 441 
Q 2309 441 2620 675 
Q 2931 909 2931 1356 
Q 2931 1769 2642 2001 
Q 2353 2234 1838 2234 
L 1294 2234 
L 1294 2753 
L 1863 2753 
Q 2328 2753 2575 2939 
Q 2822 3125 2822 3475 
Q 2822 3834 2567 4026 
Q 2313 4219 1838 4219 
Q 1578 4219 1281 4162 
Q 984 4106 628 3988 
L 628 4550 
Q 988 4650 1302 4700 
Q 1616 4750 1894 4750 
Q 2613 4750 3031 4423 
Q 3450 4097 3450 3541 
Q 3450 3153 3228 2886 
Q 3006 2619 2597 2516 
z
" transform="scale(0.015625)"/>
        <path id="DejaVuSans-30" d="M 2034 4250 
Q 1547 4250 1301 3770 
Q 1056 3291 1056 2328 
Q 1056 1369 1301 889 
Q 1547 409 2034 409 
Q 2525 409 2770 889 
Q 3016 1369 3016 2328 
Q 3016 3291 2770 3770 
Q 2525 4250 2034 4250 
z
M 2034 4750 
Q 2819 4750 3233 4129 
Q 3647 3509 3647 2328 
Q 3647 1150 3233 529 
Q 2819 -91 2034 -91 
Q 1250 -91 836 529 
Q 422 1150 422 2328 
Q 422 3509 836 4129 
Q 1250 4750 2034 4750 
z
" transform="scale(0.015625)"/>
       </defs>
       <use xlink:href="#DejaVuSans-33"/>
       <use xlink:href="#DejaVuSans-30" transform="translate(63.623047 0)"/>
       <use xlink:href="#DejaVuSans-30" transform="translate(127.246094 0)"/>
      </g>
     </g>
    </g>
    <g id="xtick_2">
     <g id="line2d_2">
      <g>
       <use xlink:href="#m19413bedb7" x="133.367776" y="302.2" style="stroke: #000000; stroke-width: 0.8"/>
      </g>
     </g>
     <g id="text_2">
      <!-- 400 -->
      <g transform="translate(123.824026 316.798437) scale(0.1 -0.1)">
       <defs>
        <path id="DejaVuSans-34" d="M 2419 4116 
L 825 1625 
L 2419 1625 
L 2419 4116 
z
M 2253 4666 
L 3047 4666 
L 3047 1625 
L 3713 1625 
L 3713 1100 
L 3047 1100 
L 3047 0 
L 2419 0 
L 2419 1100 
L 313 1100 
L 313 1709 
L 2253 4666 
z
" transform="scale(0.015625)"/>
       </defs>
       <use xlink:href="#DejaVuSans-34"/>
       <use xlink:href="#DejaVuSans-30" transform="translate(63.623047 0)"/>
       <use xlink:href="#DejaVuSans-30" transform="translate(127.246094 0)"/>
      </g>
     </g>
    </g>
    <g id="xtick_3">
     <g id="line2d_3">
      <g>
       <use xlink:href="#m19413bedb7" x="183.364965" y="302.2" style="stroke: #000000; stroke-width: 0.8"/>
      </g>
     </g>
     <g id="text_3">
      <!-- 500 -->
      <g transform="translate(173.821215 316.798437) scale(0.1 -0.1)">
       <defs>
        <path id="DejaVuSans-35" d="M 691 4666 
L 3169 4666 
L 3169 4134 
L 1269 4134 
L 1269 2991 
Q 1406 3038 1543 3061 
Q 1681 3084 1819 3084 
Q 2600 3084 3056 2656 
Q 3513 2228 3513 1497 
Q 3513 744 3044 326 
Q 2575 -91 1722 -91 
Q 1428 -91 1123 -41 
Q 819 9 494 109 
L 494 744 
Q 775 591 1075 516 
Q 1375 441 1709 441 
Q 2250 441 2565 725 
Q 2881 1009 2881 1497 
Q 2881 1984 2565 2268 
Q 2250 2553 1709 2553 
Q 1456 2553 1204 2497 
Q 953 2441 691 2322 
L 691 4666 
z
" transform="scale(0.015625)"/>
       </defs>
       <use xlink:href="#DejaVuSans-35"/>
       <use xlink:href="#DejaVuSans-30" transform="translate(63.623047 0)"/>
       <use xlink:href="#DejaVuSans-30" transform="translate(127.246094 0)"/>
      </g>
     </g>
    </g>
    <g id="xtick_4">
     <g id="line2d_4">
      <g>
       <use xlink:href="#m19413bedb7" x="233.362153" y="302.2" style="stroke: #000000; stroke-width: 0.8"/>
      </g>
     </g>
     <g id="text_4">
      <!-- 600 -->
      <g transform="translate(223.818403 316.798437) scale(0.1 -0.1)">
       <defs>
        <path id="DejaVuSans-36" d="M 2113 2584 
Q 1688 2584 1439 2293 
Q 1191 2003 1191 1497 
Q 1191 994 1439 701 
Q 1688 409 2113 409 
Q 2538 409 2786 701 
Q 3034 994 3034 1497 
Q 3034 2003 2786 2293 
Q 2538 2584 2113 2584 
z
M 3366 4563 
L 3366 3988 
Q 3128 4100 2886 4159 
Q 2644 4219 2406 4219 
Q 1781 4219 1451 3797 
Q 1122 3375 1075 2522 
Q 1259 2794 1537 2939 
Q 1816 3084 2150 3084 
Q 2853 3084 3261 2657 
Q 3669 2231 3669 1497 
Q 3669 778 3244 343 
Q 2819 -91 2113 -91 
Q 1303 -91 875 529 
Q 447 1150 447 2328 
Q 447 3434 972 4092 
Q 1497 4750 2381 4750 
Q 2619 4750 2861 4703 
Q 3103 4656 3366 4563 
z
" transform="scale(0.015625)"/>
       </defs>
       <use xlink:href="#DejaVuSans-36"/>
       <use xlink:href="#DejaVuSans-30" transform="translate(63.623047 0)"/>
       <use xlink:href="#DejaVuSans-30" transform="translate(127.246094 0)"/>
      </g>
     </g>
    </g>
    <g id="xtick_5">
     <g id="line2d_5">
      <g>
       <use xlink:href="#m19413bedb7" x="283.359341" y="302.2" style="stroke: #000000; stroke-width: 0.8"/>
      </g>
     </g>
     <g id="text_5">
      <!-- 700 -->
      <g transform="translate(273.815591 316.798437) scale(0.1 -0.1)">
       <defs>
        <path id="DejaVuSans-37" d="M 525 4666 
L 3525 4666 
L 3525 4397 
L 1831 0 
L 1172 0 
L 2766 4134 
L 525 4134 
L 525 4666 
z
" transform="scale(0.015625)"/>
       </defs>
       <use xlink:href="#DejaVuSans-37"/>
       <use xlink:href="#DejaVuSans-30" transform="translate(63.623047 0)"/>
       <use xlink:href="#DejaVuSans-30" transform="translate(127.246094 0)"/>
      </g>
     </g>
    </g>
    <g id="xtick_6">
     <g id="line2d_6">
      <g>
       <use xlink:href="#m19413bedb7" x="333.35653" y="302.2" style="stroke: #000000; stroke-width: 0.8"/>
      </g>
     </g>
     <g id="text_6">
      <!-- 800 -->
      <g transform="translate(323.81278 316.798437) scale(0.1 -0.1)">
       <defs>
        <path id="DejaVuSans-38" d="M 2034 2216 
Q 1584 2216 1326 1975 
Q 1069 1734 1069 1313 
Q 1069 891 1326 650 
Q 1584 409 2034 409 
Q 2484 409 2743 651 
Q 3003 894 3003 1313 
Q 3003 1734 2745 1975 
Q 2488 2216 2034 2216 
z
M 1403 2484 
Q 997 2584 770 2862 
Q 544 3141 544 3541 
Q 544 4100 942 4425 
Q 1341 4750 2034 4750 
Q 2731 4750 3128 4425 
Q 3525 4100 3525 3541 
Q 3525 3141 3298 2862 
Q 3072 2584 2669 2484 
Q 3125 2378 3379 2068 
Q 3634 1759 3634 1313 
Q 3634 634 3220 271 
Q 2806 -91 2034 -91 
Q 1263 -91 848 271 
Q 434 634 434 1313 
Q 434 1759 690 2068 
Q 947 2378 1403 2484 
z
M 1172 3481 
Q 1172 3119 1398 2916 
Q 1625 2713 2034 2713 
Q 2441 2713 2670 2916 
Q 2900 3119 2900 3481 
Q 2900 3844 2670 4047 
Q 2441 4250 2034 4250 
Q 1625 4250 1398 4047 
Q 1172 3844 1172 3481 
z
" transform="scale(0.015625)"/>
       </defs>
       <use xlink:href="#DejaVuSans-38"/>
       <use xlink:href="#DejaVuSans-30" transform="translate(63.623047 0)"/>
       <use xlink:href="#DejaVuSans-30" transform="translate(127.246094 0)"/>
      </g>
     </g>
    </g>
    <g id="xtick_7">
     <g id="line2d_7">
      <g>
       <use xlink:href="#m19413bedb7" x="383.353718" y="302.2" style="stroke: #000000; stroke-width: 0.8"/>
      </g>
     </g>
     <g id="text_7">
      <!-- 900 -->
      <g transform="translate(373.809968 316.798437) scale(0.1 -0.1)">
       <defs>
        <path id="DejaVuSans-39" d="M 703 97 
L 703 672 
Q 941 559 1184 500 
Q 1428 441 1663 441 
Q 2288 441 2617 861 
Q 2947 1281 2994 2138 
Q 2813 1869 2534 1725 
Q 2256 1581 1919 1581 
Q 1219 1581 811 2004 
Q 403 2428 403 3163 
Q 403 3881 828 4315 
Q 1253 4750 1959 4750 
Q 2769 4750 3195 4129 
Q 3622 3509 3622 2328 
Q 3622 1225 3098 567 
Q 2575 -91 1691 -91 
Q 1453 -91 1209 -44 
Q 966 3 703 97 
z
M 1959 2075 
Q 2384 2075 2632 2365 
Q 2881 2656 2881 3163 
Q 2881 3666 2632 3958 
Q 2384 4250 1959 4250 
Q 1534 4250 1286 3958 
Q 1038 3666 1038 3163 
Q 1038 2656 1286 2365 
Q 1534 2075 1959 2075 
z
" transform="scale(0.015625)"/>
       </defs>
       <use xlink:href="#DejaVuSans-39"/>
       <use xlink:href="#DejaVuSans-30" transform="translate(63.623047 0)"/>
       <use xlink:href="#DejaVuSans-30" transform="translate(127.246094 0)"/>
      </g>
     </g>
    </g>
    <g id="xtick_8">
     <g id="line2d_8">
      <g>
       <use xlink:href="#m19413bedb7" x="433.350907" y="302.2" style="stroke: #000000; stroke-width: 0.8"/>
      </g>
     </g>
     <g id="text_8">
      <!-- 1 k -->
      <g transform="translate(425.685282 316.798437) scale(0.1 -0.1)">
       <defs>
        <path id="DejaVuSans-31" d="M 794 531 
L 1825 531 
L 1825 4091 
L 703 3866 
L 703 4441 
L 1819 4666 
L 2450 4666 
L 2450 531 
L 3481 531 
L 3481 0 
L 794 0 
L 794 531 
z
" transform="scale(0.015625)"/>
        <path id="DejaVuSans-20" transform="scale(0.015625)"/>
        <path id="DejaVuSans-6b" d="M 581 4863 
L 1159 4863 
L 1159 1991 
L 2875 3500 
L 3609 3500 
L 1753 1863 
L 3688 0 
L 2938 0 
L 1159 1709 
L 1159 0 
L 581 0 
L 581 4863 
z
" transform="scale(0.015625)"/>
       </defs>
       <use xlink:href="#DejaVuSans-31"/>
       <use xlink:href="#DejaVuSans-20" transform="translate(63.623047 0)"/>
       <use xlink:href="#DejaVuSans-6b" transform="translate(95.410156 0)"/>
      </g>
     </g>
    </g>
    <g id="text_9">
     <!-- ${\rm Re}(Z)\ (\Omega)$ -->
     <g transform="translate(232.09 330.476562) scale(0.1 -0.1)">
      <defs>
       <path id="DejaVuSans-52" d="M 2841 2188 
Q 3044 2119 3236 1894 
Q 3428 1669 3622 1275 
L 4263 0 
L 3584 0 
L 2988 1197 
Q 2756 1666 2539 1819 
Q 2322 1972 1947 1972 
L 1259 1972 
L 1259 0 
L 628 0 
L 628 4666 
L 2053 4666 
Q 2853 4666 3247 4331 
Q 3641 3997 3641 3322 
Q 3641 2881 3436 2590 
Q 3231 2300 2841 2188 
z
M 1259 4147 
L 1259 2491 
L 2053 2491 
Q 2509 2491 2742 2702 
Q 2975 2913 2975 3322 
Q 2975 3731 2742 3939 
Q 2509 4147 2053 4147 
L 1259 4147 
z
" transform="scale(0.015625)"/>
       <path id="DejaVuSans-65" d="M 3597 1894 
L 3597 1613 
L 953 1613 
Q 991 1019 1311 708 
Q 1631 397 2203 397 
Q 2534 397 2845 478 
Q 3156 559 3463 722 
L 3463 178 
Q 3153 47 2828 -22 
Q 2503 -91 2169 -91 
Q 1331 -91 842 396 
Q 353 884 353 1716 
Q 353 2575 817 3079 
Q 1281 3584 2069 3584 
Q 2775 3584 3186 3129 
Q 3597 2675 3597 1894 
z
M 3022 2063 
Q 3016 2534 2758 2815 
Q 2500 3097 2075 3097 
Q 1594 3097 1305 2825 
Q 1016 2553 972 2059 
L 3022 2063 
z
" transform="scale(0.015625)"/>
       <path id="DejaVuSans-28" d="M 1984 4856 
Q 1566 4138 1362 3434 
Q 1159 2731 1159 2009 
Q 1159 1288 1364 580 
Q 1569 -128 1984 -844 
L 1484 -844 
Q 1016 -109 783 600 
Q 550 1309 550 2009 
Q 550 2706 781 3412 
Q 1013 4119 1484 4856 
L 1984 4856 
z
" transform="scale(0.015625)"/>
       <path id="DejaVuSans-Oblique-5a" d="M 838 4666 
L 4500 4666 
L 4409 4184 
L 794 531 
L 3769 531 
L 3669 0 
L -141 0 
L -50 481 
L 3566 4134 
L 738 4134 
L 838 4666 
z
" transform="scale(0.015625)"/>
       <path id="DejaVuSans-29" d="M 513 4856 
L 1013 4856 
Q 1481 4119 1714 3412 
Q 1947 2706 1947 2009 
Q 1947 1309 1714 600 
Q 1481 -109 1013 -844 
L 513 -844 
Q 928 -128 1133 580 
Q 1338 1288 1338 2009 
Q 1338 2731 1133 3434 
Q 928 4138 513 4856 
z
" transform="scale(0.015625)"/>
       <path id="DejaVuSans-3a9" d="M 4647 556 
L 4647 0 
L 2772 0 
L 2772 556 
Q 3325 859 3634 1378 
Q 3944 1897 3944 2528 
Q 3944 3278 3531 3731 
Q 3119 4184 2444 4184 
Q 1769 4184 1355 3729 
Q 941 3275 941 2528 
Q 941 1897 1250 1378 
Q 1563 859 2119 556 
L 2119 0 
L 244 0 
L 244 556 
L 1241 556 
Q 747 991 519 1456 
Q 294 1922 294 2497 
Q 294 3491 894 4106 
Q 1491 4722 2444 4722 
Q 3391 4722 3994 4106 
Q 4594 3494 4594 2528 
Q 4594 1922 4372 1459 
Q 4150 997 3647 556 
L 4647 556 
z
" transform="scale(0.015625)"/>
      </defs>
      <use xlink:href="#DejaVuSans-52" transform="translate(0 0.125)"/>
      <use xlink:href="#DejaVuSans-65" transform="translate(69.482422 0.125)"/>
      <use xlink:href="#DejaVuSans-28" transform="translate(131.005859 0.125)"/>
      <use xlink:href="#DejaVuSans-Oblique-5a" transform="translate(170.019531 0.125)"/>
      <use xlink:href="#DejaVuSans-29" transform="translate(238.525391 0.125)"/>
      <use xlink:href="#DejaVuSans-28" transform="translate(310.009441 0.125)"/>
      <use xlink:href="#DejaVuSans-3a9" transform="translate(349.023113 0.125)"/>
      <use xlink:href="#DejaVuSans-29" transform="translate(425.439128 0.125)"/>
     </g>
    </g>
   </g>
   <g id="matplotlib.axis_2">
    <g id="ytick_1">
     <g id="line2d_9">
      <defs>
       <path id="m0fb14fa733" d="M 0 0 
L -3.5 0 
" style="stroke: #000000; stroke-width: 0.8"/>
      </defs>
      <g>
       <use xlink:href="#m0fb14fa733" x="60.68" y="270.72244" style="stroke: #000000; stroke-width: 0.8"/>
      </g>
     </g>
     <g id="text_10">
      <!-- −100 -->
      <g transform="translate(26.212813 274.521658) scale(0.1 -0.1)">
       <defs>
        <path id="DejaVuSans-2212" d="M 678 2272 
L 4684 2272 
L 4684 1741 
L 678 1741 
L 678 2272 
z
" transform="scale(0.015625)"/>
       </defs>
       <use xlink:href="#DejaVuSans-2212"/>
       <use xlink:href="#DejaVuSans-31" transform="translate(83.789062 0)"/>
       <use xlink:href="#DejaVuSans-30" transform="translate(147.412109 0)"/>
       <use xlink:href="#DejaVuSans-30" transform="translate(211.035156 0)"/>
      </g>
     </g>
    </g>
    <g id="ytick_2">
     <g id="line2d_10">
      <g>
       <use xlink:href="#m0fb14fa733" x="60.68" y="220.502275" style="stroke: #000000; stroke-width: 0.8"/>
      </g>
     </g>
     <g id="text_11">
      <!-- 0 -->
      <g transform="translate(47.3175 224.301494) scale(0.1 -0.1)">
       <use xlink:href="#DejaVuSans-30"/>
      </g>
     </g>
    </g>
    <g id="ytick_3">
     <g id="line2d_11">
      <g>
       <use xlink:href="#m0fb14fa733" x="60.68" y="170.282111" style="stroke: #000000; stroke-width: 0.8"/>
      </g>
     </g>
     <g id="text_12">
      <!-- 100 -->
      <g transform="translate(34.5925 174.08133) scale(0.1 -0.1)">
       <use xlink:href="#DejaVuSans-31"/>
       <use xlink:href="#DejaVuSans-30" transform="translate(63.623047 0)"/>
       <use xlink:href="#DejaVuSans-30" transform="translate(127.246094 0)"/>
      </g>
     </g>
    </g>
    <g id="ytick_4">
     <g id="line2d_12">
      <g>
       <use xlink:href="#m0fb14fa733" x="60.68" y="120.061947" style="stroke: #000000; stroke-width: 0.8"/>
      </g>
     </g>
     <g id="text_13">
      <!-- 200 -->
      <g transform="translate(34.5925 123.861165) scale(0.1 -0.1)">
       <defs>
        <path id="DejaVuSans-32" d="M 1228 531 
L 3431 531 
L 3431 0 
L 469 0 
L 469 531 
Q 828 903 1448 1529 
Q 2069 2156 2228 2338 
Q 2531 2678 2651 2914 
Q 2772 3150 2772 3378 
Q 2772 3750 2511 3984 
Q 2250 4219 1831 4219 
Q 1534 4219 1204 4116 
Q 875 4013 500 3803 
L 500 4441 
Q 881 4594 1212 4672 
Q 1544 4750 1819 4750 
Q 2544 4750 2975 4387 
Q 3406 4025 3406 3419 
Q 3406 3131 3298 2873 
Q 3191 2616 2906 2266 
Q 2828 2175 2409 1742 
Q 1991 1309 1228 531 
z
" transform="scale(0.015625)"/>
       </defs>
       <use xlink:href="#DejaVuSans-32"/>
       <use xlink:href="#DejaVuSans-30" transform="translate(63.623047 0)"/>
       <use xlink:href="#DejaVuSans-30" transform="translate(127.246094 0)"/>
      </g>
     </g>
    </g>
    <g id="ytick_5">
     <g id="line2d_13">
      <g>
       <use xlink:href="#m0fb14fa733" x="60.68" y="69.841782" style="stroke: #000000; stroke-width: 0.8"/>
      </g>
     </g>
     <g id="text_14">
      <!-- 300 -->
      <g transform="translate(34.5925 73.641001) scale(0.1 -0.1)">
       <use xlink:href="#DejaVuSans-33"/>
       <use xlink:href="#DejaVuSans-30" transform="translate(63.623047 0)"/>
       <use xlink:href="#DejaVuSans-30" transform="translate(127.246094 0)"/>
      </g>
     </g>
    </g>
    <g id="ytick_6">
     <g id="line2d_14">
      <g>
       <use xlink:href="#m0fb14fa733" x="60.68" y="19.621618" style="stroke: #000000; stroke-width: 0.8"/>
      </g>
     </g>
     <g id="text_15">
      <!-- 400 -->
      <g transform="translate(34.5925 23.420837) scale(0.1 -0.1)">
       <use xlink:href="#DejaVuSans-34"/>
       <use xlink:href="#DejaVuSans-30" transform="translate(63.623047 0)"/>
       <use xlink:href="#DejaVuSans-30" transform="translate(127.246094 0)"/>
      </g>
     </g>
    </g>
    <g id="text_16">
     <!-- $-{\rm Im}(Z)\ (\Omega)$ -->
     <g transform="translate(20.133125 183.55) rotate(-90) scale(0.1 -0.1)">
      <defs>
       <path id="DejaVuSans-49" d="M 628 4666 
L 1259 4666 
L 1259 0 
L 628 0 
L 628 4666 
z
" transform="scale(0.015625)"/>
       <path id="DejaVuSans-6d" d="M 3328 2828 
Q 3544 3216 3844 3400 
Q 4144 3584 4550 3584 
Q 5097 3584 5394 3201 
Q 5691 2819 5691 2113 
L 5691 0 
L 5113 0 
L 5113 2094 
Q 5113 2597 4934 2840 
Q 4756 3084 4391 3084 
Q 3944 3084 3684 2787 
Q 3425 2491 3425 1978 
L 3425 0 
L 2847 0 
L 2847 2094 
Q 2847 2600 2669 2842 
Q 2491 3084 2119 3084 
Q 1678 3084 1418 2786 
Q 1159 2488 1159 1978 
L 1159 0 
L 581 0 
L 581 3500 
L 1159 3500 
L 1159 2956 
Q 1356 3278 1631 3431 
Q 1906 3584 2284 3584 
Q 2666 3584 2933 3390 
Q 3200 3197 3328 2828 
z
" transform="scale(0.015625)"/>
      </defs>
      <use xlink:href="#DejaVuSans-2212" transform="translate(0 0.125)"/>
      <use xlink:href="#DejaVuSans-49" transform="translate(83.789062 0.125)"/>
      <use xlink:href="#DejaVuSans-6d" transform="translate(109.65625 0.125)"/>
      <use xlink:href="#DejaVuSans-28" transform="translate(207.068359 0.125)"/>
      <use xlink:href="#DejaVuSans-Oblique-5a" transform="translate(246.082031 0.125)"/>
      <use xlink:href="#DejaVuSans-29" transform="translate(314.587891 0.125)"/>
      <use xlink:href="#DejaVuSans-28" transform="translate(386.071941 0.125)"/>
      <use xlink:href="#DejaVuSans-3a9" transform="translate(425.085613 0.125)"/>
      <use xlink:href="#DejaVuSans-29" transform="translate(501.501628 0.125)"/>
     </g>
    </g>
   </g>
   <g id="patch_3">
    <path d="M 60.68 302.2 
L 60.68 10.8 
" style="fill: none; stroke: #000000; stroke-width: 0.8; stroke-linejoin: miter; stroke-linecap: square"/>
   </g>
   <g id="patch_4">
    <path d="M 450 302.2 
L 450 10.8 
" style="fill: none; stroke: #000000; stroke-width: 0.8; stroke-linejoin: miter; stroke-linecap: square"/>
   </g>
   <g id="patch_5">
    <path d="M 60.68 302.2 
L 450 302.2 
" style="fill: none; stroke: #000000; stroke-width: 0.8; stroke-linejoin: miter; stroke-linecap: square"/>
   </g>
   <g id="patch_6">
    <path d="M 60.68 10.8 
L 450 10.8 
" style="fill: none; stroke: #000000; stroke-width: 0.8; stroke-linejoin: miter; stroke-linecap: square"/>
   </g>
   <g id="legend_1">
    <g id="patch_7">
     <path d="M 333.45625 48.15625 
L 443 48.15625 
Q 445 48.15625 445 46.15625 
L 445 17.8 
Q 445 15.8 443 15.8 
L 333.45625 15.8 
Q 331.45625 15.8 331.45625 17.8 
L 331.45625 46.15625 
Q 331.45625 48.15625 333.45625 48.15625 
z
" style="fill: #ffffff; opacity: 0.8; stroke: #cccccc; stroke-linejoin: miter"/>
    </g>
    <g id="PathCollection_3">
     <path d="M 345.45625 27.773438 
C 346.251859 27.773438 347.01499 27.457339 347.57757 26.894758 
C 348.140151 26.332177 348.45625 25.569047 348.45625 24.773438 
C 348.45625 23.977828 348.140151 23.214698 347.57757 22.652117 
C 347.01499 22.089536 346.251859 21.773438 345.45625 21.773438 
C 344.660641 21.773438 343.89751 22.089536 343.33493 22.652117 
C 342.772349 23.214698 342.45625 23.977828 342.45625 24.773438 
C 342.45625 25.569047 342.772349 26.332177 343.33493 26.894758 
C 343.89751 27.457339 344.660641 27.773438 345.45625 27.773438 
L 345.45625 27.773438 
z
" style="fill: none; stroke: #000000"/>
    </g>
    <g id="text_17">
     <!-- [R(RC)(RC)(RL)] -->
     <g transform="translate(363.45625 27.398438) scale(0.1 -0.1)">
      <defs>
       <path id="DejaVuSans-5b" d="M 550 4863 
L 1875 4863 
L 1875 4416 
L 1125 4416 
L 1125 -397 
L 1875 -397 
L 1875 -844 
L 550 -844 
L 550 4863 
z
" transform="scale(0.015625)"/>
       <path id="DejaVuSans-43" d="M 4122 4306 
L 4122 3641 
Q 3803 3938 3442 4084 
Q 3081 4231 2675 4231 
Q 1875 4231 1450 3742 
Q 1025 3253 1025 2328 
Q 1025 1406 1450 917 
Q 1875 428 2675 428 
Q 3081 428 3442 575 
Q 3803 722 4122 1019 
L 4122 359 
Q 3791 134 3420 21 
Q 3050 -91 2638 -91 
Q 1578 -91 968 557 
Q 359 1206 359 2328 
Q 359 3453 968 4101 
Q 1578 4750 2638 4750 
Q 3056 4750 3426 4639 
Q 3797 4528 4122 4306 
z
" transform="scale(0.015625)"/>
       <path id="DejaVuSans-4c" d="M 628 4666 
L 1259 4666 
L 1259 531 
L 3531 531 
L 3531 0 
L 628 0 
L 628 4666 
z
" transform="scale(0.015625)"/>
       <path id="DejaVuSans-5d" d="M 1947 4863 
L 1947 -844 
L 622 -844 
L 622 -397 
L 1369 -397 
L 1369 4416 
L 622 4416 
L 622 4863 
L 1947 4863 
z
" transform="scale(0.015625)"/>
      </defs>
      <use xlink:href="#DejaVuSans-5b"/>
      <use xlink:href="#DejaVuSans-52" transform="translate(39.013672 0)"/>
      <use xlink:href="#DejaVuSans-28" transform="translate(108.496094 0)"/>
      <use xlink:href="#DejaVuSans-52" transform="translate(147.509766 0)"/>
      <use xlink:href="#DejaVuSans-43" transform="translate(211.992188 0)"/>
      <use xlink:href="#DejaVuSans-29" transform="translate(281.816406 0)"/>
      <use xlink:href="#DejaVuSans-28" transform="translate(320.830078 0)"/>
      <use xlink:href="#DejaVuSans-52" transform="translate(359.84375 0)"/>
      <use xlink:href="#DejaVuSans-43" transform="translate(424.326172 0)"/>
      <use xlink:href="#DejaVuSans-29" transform="translate(494.150391 0)"/>
      <use xlink:href="#DejaVuSans-28" transform="translate(533.164062 0)"/>
      <use xlink:href="#DejaVuSans-52" transform="translate(572.177734 0)"/>
      <use xlink:href="#DejaVuSans-4c" transform="translate(641.660156 0)"/>
      <use xlink:href="#DejaVuSans-29" transform="translate(697.373047 0)"/>
      <use xlink:href="#DejaVuSans-5d" transform="translate(736.386719 0)"/>
     </g>
    </g>
    <g id="PathCollection_4">
     <g>
      <use xlink:href="#m982f8f629e" x="345.45625" y="39.451563" style="fill: #ff0000; stroke: #ff0000; stroke-width: 1.5"/>
     </g>
    </g>
    <g id="text_18">
     <!-- LM (k=4) -->
     <g transform="translate(363.45625 42.076563) scale(0.1 -0.1)">
      <defs>
       <path id="DejaVuSans-4d" d="M 628 4666 
L 1569 4666 
L 2759 1491 
L 3956 4666 
L 4897 4666 
L 4897 0 
L 4281 0 
L 4281 4097 
L 3078 897 
L 2444 897 
L 1241 4097 
L 1241 0 
L 628 0 
L 628 4666 
z
" transform="scale(0.015625)"/>
       <path id="DejaVuSans-3d" d="M 678 2906 
L 4684 2906 
L 4684 2381 
L 678 2381 
L 678 2906 
z
M 678 1631 
L 4684 1631 
L 4684 1100 
L 678 1100 
L 678 1631 
z
" transform="scale(0.015625)"/>
      </defs>
      <use xlink:href="#DejaVuSans-4c"/>
      <use xlink:href="#DejaVuSans-4d" transform="translate(55.712891 0)"/>
      <use xlink:href="#DejaVuSans-20" transform="translate(141.992188 0)"/>
      <use xlink:href="#DejaVuSans-28" transform="translate(173.779297 0)"/>
      <use xlink:href="#DejaVuSans-6b" transform="translate(212.792969 0)"/>
      <use xlink:href="#DejaVuSans-3d" transform="translate(270.703125 0)"/>
      <use xlink:href="#DejaVuSans-34" transform="translate(354.492188 0)"/>
      <use xlink:href="#DejaVuSans-29" transform="translate(418.115234 0)"/>
     </g>
    </g>
   </g>
  </g>
 </g>
 <defs>
  <clipPath id="p5616c07610">
   <rect x="60.68" y="10.8" width="389.32" height="291.4"/>
  </clipPath>
 </defs>
</svg>
