<?xml version="1.0" encoding="utf-8" standalone="no"?>
<!DOCTYPE svg PUBLIC "-//W3C//DTD SVG 1.1//EN"
  "http://www.w3.org/Graphics/SVG/1.1/DTD/svg11.dtd">
<svg xmlns:xlink="http://www.w3.org/1999/xlink" width="460.8pt" height="345.6pt" viewBox="0 0 460.8 345.6" xmlns="http://www.w3.org/2000/svg" version="1.1">
 <metadata>
  <rdf:RDF xmlns:dc="http://purl.org/dc/elements/1.1/" xmlns:cc="http://creativecommons.org/ns#" xmlns:rdf="http://www.w3.org/1999/02/22-rdf-syntax-ns#">
   <cc:Work>
    <dc:type rdf:resource="http://purl.org/dc/dcmitype/StillImage"/>
    <dc:date>2026-04-12T12:05:52.107260</dc:date>
    <dc:format>image/svg+xml</dc:format>
    <dc:creator>
     <cc:Agent>
      <dc:title>Matplotlib v3.10.8, https://matplotlib.org/</dc:title>
     </cc:Agent>
    </dc:creator>
   </cc:Work>
  </rdf:RDF>
 </metadata>
 <defs>
  <style type="text/css">*{stroke-linejoin: round; stroke-linecap: butt}</style>
 </defs>
 <g id="figure_1">
  <g id="patch_1">
   <path d="M 0 345.6 
L 460.8 345.6 
L 460.8 0 
L 0 0 
L 0 345.6 
z
" style="fill: none"/>
  </g>
  <g id="axes_1">
   <g id="patch_2">
    <path d="M 60.68 302.2 
L 450 302.2 
L 450 10.8 
L 60.68 10.8 
L 60.68 302.2 
z
" style="fill: none"/>
   </g>
   <g id="PathCollection_1">
    <defs>
     <path id="C0_0_df235ddeec" d="M 0 3 
C 0.795609 3 1.55874 2.683901 2.12132 2.12132 
C 2.683901 1.55874 3 0.795609 3 -0 
C 3 -0.795609 2.683901 -1.55874 2.12132 -2.12132 
C 1.55874 -2.683901 0.795609 -3 0 -3 
C -0.795609 -3 -1.55874 -2.683901 -2.12132 -2.12132 
C -2.683901 -1.55874 -3 -0.795609 -3 0 
C -3 0.795609 -2.683901 1.55874 -2.12132 2.12132 
C -1.55874 2.683901 -0.795609 3 0 3 
z
"/>
    </defs>
    <g clip-path="url(#pfd190d9d8b)">
     <use xlink:href="#C0_0_df235ddeec" x="78.547585" y="234.239969" style="fill: none; stroke: #000000"/>
    </g>
    <g clip-path="url(#pfd190d9d8b)">
     <use xlink:href="#C0_0_df235ddeec" x="78.532729" y="234.159645" style="fill: none; stroke: #000000"/>
    </g>
    <g clip-path="url(#pfd190d9d8b)">
     <use xlink:href="#C0_0_df235ddeec" x="78.551425" y="234.083833" style="fill: none; stroke: #000000"/>
    </g>
    <g clip-path="url(#pfd190d9d8b)">
     <use xlink:href="#C0_0_df235ddeec" x="78.572328" y="234.038623" style="fill: none; stroke: #000000"/>
    </g>
    <g clip-path="url(#pfd190d9d8b)">
     <use xlink:href="#C0_0_df235ddeec" x="78.531347" y="233.934715" style="fill: none; stroke: #000000"/>
    </g>
    <g clip-path="url(#pfd190d9d8b)">
     <use xlink:href="#C0_0_df235ddeec" x="78.532032" y="233.753885" style="fill: none; stroke: #000000"/>
    </g>
    <g clip-path="url(#pfd190d9d8b)">
     <use xlink:href="#C0_0_df235ddeec" x="78.575863" y="233.59427" style="fill: none; stroke: #000000"/>
    </g>
    <g clip-path="url(#pfd190d9d8b)">
     <use xlink:href="#C0_0_df235ddeec" x="78.558451" y="233.346073" style="fill: none; stroke: #000000"/>
    </g>
    <g clip-path="url(#pfd190d9d8b)">
     <use xlink:href="#C0_0_df235ddeec" x="78.532016" y="233.028908" style="fill: none; stroke: #000000"/>
    </g>
    <g clip-path="url(#pfd190d9d8b)">
     <use xlink:href="#C0_0_df235ddeec" x="78.56021" y="232.683499" style="fill: none; stroke: #000000"/>
    </g>
    <g clip-path="url(#pfd190d9d8b)">
     <use xlink:href="#C0_0_df235ddeec" x="78.543326" y="232.246572" style="fill: none; stroke: #000000"/>
    </g>
    <g clip-path="url(#pfd190d9d8b)">
     <use xlink:href="#C0_0_df235ddeec" x="78.554121" y="231.624139" style="fill: none; stroke: #000000"/>
    </g>
    <g clip-path="url(#pfd190d9d8b)">
     <use xlink:href="#C0_0_df235ddeec" x="78.588056" y="230.92568" style="fill: none; stroke: #000000"/>
    </g>
    <g clip-path="url(#pfd190d9d8b)">
     <use xlink:href="#C0_0_df235ddeec" x="78.564236" y="229.899186" style="fill: none; stroke: #000000"/>
    </g>
    <g clip-path="url(#pfd190d9d8b)">
     <use xlink:href="#C0_0_df235ddeec" x="78.611759" y="228.814814" style="fill: none; stroke: #000000"/>
    </g>
    <g clip-path="url(#pfd190d9d8b)">
     <use xlink:href="#C0_0_df235ddeec" x="78.707776" y="227.329885" style="fill: none; stroke: #000000"/>
    </g>
    <g clip-path="url(#pfd190d9d8b)">
     <use xlink:href="#C0_0_df235ddeec" x="78.805137" y="225.475298" style="fill: none; stroke: #000000"/>
    </g>
    <g clip-path="url(#pfd190d9d8b)">
     <use xlink:href="#C0_0_df235ddeec" x="79.008732" y="223.165897" style="fill: none; stroke: #000000"/>
    </g>
    <g clip-path="url(#pfd190d9d8b)">
     <use xlink:href="#C0_0_df235ddeec" x="79.249505" y="220.202689" style="fill: none; stroke: #000000"/>
    </g>
    <g clip-path="url(#pfd190d9d8b)">
     <use xlink:href="#C0_0_df235ddeec" x="79.663932" y="216.598227" style="fill: none; stroke: #000000"/>
    </g>
    <g clip-path="url(#pfd190d9d8b)">
     <use xlink:href="#C0_0_df235ddeec" x="80.414259" y="212.052413" style="fill: none; stroke: #000000"/>
    </g>
    <g clip-path="url(#pfd190d9d8b)">
     <use xlink:href="#C0_0_df235ddeec" x="81.42759" y="206.406505" style="fill: none; stroke: #000000"/>
    </g>
    <g clip-path="url(#pfd190d9d8b)">
     <use xlink:href="#C0_0_df235ddeec" x="83.090765" y="199.322164" style="fill: none; stroke: #000000"/>
    </g>
    <g clip-path="url(#pfd190d9d8b)">
     <use xlink:href="#C0_0_df235ddeec" x="85.602611" y="190.703906" style="fill: none; stroke: #000000"/>
    </g>
    <g clip-path="url(#pfd190d9d8b)">
     <use xlink:href="#C0_0_df235ddeec" x="89.552859" y="180.328398" style="fill: none; stroke: #000000"/>
    </g>
    <g clip-path="url(#pfd190d9d8b)">
     <use xlink:href="#C0_0_df235ddeec" x="95.469015" y="168.146445" style="fill: none; stroke: #000000"/>
    </g>
    <g clip-path="url(#pfd190d9d8b)">
     <use xlink:href="#C0_0_df235ddeec" x="104.006043" y="154.163687" style="fill: none; stroke: #000000"/>
    </g>
    <g clip-path="url(#pfd190d9d8b)">
     <use xlink:href="#C0_0_df235ddeec" x="116.192014" y="138.944393" style="fill: none; stroke: #000000"/>
    </g>
    <g clip-path="url(#pfd190d9d8b)">
     <use xlink:href="#C0_0_df235ddeec" x="132.312431" y="123.564196" style="fill: none; stroke: #000000"/>
    </g>
    <g clip-path="url(#pfd190d9d8b)">
     <use xlink:href="#C0_0_df235ddeec" x="152.751319" y="109.015785" style="fill: none; stroke: #000000"/>
    </g>
    <g clip-path="url(#pfd190d9d8b)">
     <use xlink:href="#C0_0_df235ddeec" x="176.940289" y="96.704968" style="fill: none; stroke: #000000"/>
    </g>
    <g clip-path="url(#pfd190d9d8b)">
     <use xlink:href="#C0_0_df235ddeec" x="204.451876" y="87.08592" style="fill: none; stroke: #000000"/>
    </g>
    <g clip-path="url(#pfd190d9d8b)">
     <use xlink:href="#C0_0_df235ddeec" x="233.703833" y="81.163955" style="fill: none; stroke: #000000"/>
    </g>
    <g clip-path="url(#pfd190d9d8b)">
     <use xlink:href="#C0_0_df235ddeec" x="264.502878" y="79.201735" style="fill: none; stroke: #000000"/>
    </g>
    <g clip-path="url(#pfd190d9d8b)">
     <use xlink:href="#C0_0_df235ddeec" x="296.169796" y="81.750561" style="fill: none; stroke: #000000"/>
    </g>
    <g clip-path="url(#pfd190d9d8b)">
     <use xlink:href="#C0_0_df235ddeec" x="326.069632" y="89.783109" style="fill: none; stroke: #000000"/>
    </g>
    <g clip-path="url(#pfd190d9d8b)">
     <use xlink:href="#C0_0_df235ddeec" x="353.452633" y="102.099392" style="fill: none; stroke: #000000"/>
    </g>
    <g clip-path="url(#pfd190d9d8b)">
     <use xlink:href="#C0_0_df235ddeec" x="375.642937" y="117.502566" style="fill: none; stroke: #000000"/>
    </g>
    <g clip-path="url(#pfd190d9d8b)">
     <use xlink:href="#C0_0_df235ddeec" x="393.23042" y="134.169446" style="fill: none; stroke: #000000"/>
    </g>
    <g clip-path="url(#pfd190d9d8b)">
     <use xlink:href="#C0_0_df235ddeec" x="406.258362" y="150.273074" style="fill: none; stroke: #000000"/>
    </g>
    <g clip-path="url(#pfd190d9d8b)">
     <use xlink:href="#C0_0_df235ddeec" x="415.233163" y="165.341784" style="fill: none; stroke: #000000"/>
    </g>
    <g clip-path="url(#pfd190d9d8b)">
     <use xlink:href="#C0_0_df235ddeec" x="421.095896" y="178.278511" style="fill: none; stroke: #000000"/>
    </g>
    <g clip-path="url(#pfd190d9d8b)">
     <use xlink:href="#C0_0_df235ddeec" x="424.971761" y="189.059731" style="fill: none; stroke: #000000"/>
    </g>
    <g clip-path="url(#pfd190d9d8b)">
     <use xlink:href="#C0_0_df235ddeec" x="427.485043" y="198.148406" style="fill: none; stroke: #000000"/>
    </g>
    <g clip-path="url(#pfd190d9d8b)">
     <use xlink:href="#C0_0_df235ddeec" x="428.887695" y="205.548935" style="fill: none; stroke: #000000"/>
    </g>
    <g clip-path="url(#pfd190d9d8b)">
     <use xlink:href="#C0_0_df235ddeec" x="430.083614" y="211.721963" style="fill: none; stroke: #000000"/>
    </g>
    <g clip-path="url(#pfd190d9d8b)">
     <use xlink:href="#C0_0_df235ddeec" x="430.799249" y="216.089974" style="fill: none; stroke: #000000"/>
    </g>
    <g clip-path="url(#pfd190d9d8b)">
     <use xlink:href="#C0_0_df235ddeec" x="431.523686" y="219.87148" style="fill: none; stroke: #000000"/>
    </g>
    <g clip-path="url(#pfd190d9d8b)">
     <use xlink:href="#C0_0_df235ddeec" x="431.647222" y="222.806551" style="fill: none; stroke: #000000"/>
    </g>
    <g clip-path="url(#pfd190d9d8b)">
     <use xlink:href="#C0_0_df235ddeec" x="431.393741" y="224.825728" style="fill: none; stroke: #000000"/>
    </g>
    <g clip-path="url(#pfd190d9d8b)">
     <use xlink:href="#C0_0_df235ddeec" x="431.917961" y="227.107684" style="fill: none; stroke: #000000"/>
    </g>
    <g clip-path="url(#pfd190d9d8b)">
     <use xlink:href="#C0_0_df235ddeec" x="431.843064" y="228.636898" style="fill: none; stroke: #000000"/>
    </g>
    <g clip-path="url(#pfd190d9d8b)">
     <use xlink:href="#C0_0_df235ddeec" x="431.82698" y="230.32191" style="fill: none; stroke: #000000"/>
    </g>
    <g clip-path="url(#pfd190d9d8b)">
     <use xlink:href="#C0_0_df235ddeec" x="432.111826" y="230.742428" style="fill: none; stroke: #000000"/>
    </g>
    <g clip-path="url(#pfd190d9d8b)">
     <use xlink:href="#C0_0_df235ddeec" x="432.2127" y="231.6004" style="fill: none; stroke: #000000"/>
    </g>
    <g clip-path="url(#pfd190d9d8b)">
     <use xlink:href="#C0_0_df235ddeec" x="432.203379" y="232.135412" style="fill: none; stroke: #000000"/>
    </g>
    <g clip-path="url(#pfd190d9d8b)">
     <use xlink:href="#C0_0_df235ddeec" x="431.855448" y="232.386013" style="fill: none; stroke: #000000"/>
    </g>
    <g clip-path="url(#pfd190d9d8b)">
     <use xlink:href="#C0_0_df235ddeec" x="431.965855" y="233.231419" style="fill: none; stroke: #000000"/>
    </g>
    <g clip-path="url(#pfd190d9d8b)">
     <use xlink:href="#C0_0_df235ddeec" x="432.096827" y="233.454877" style="fill: none; stroke: #000000"/>
    </g>
    <g clip-path="url(#pfd190d9d8b)">
     <use xlink:href="#C0_0_df235ddeec" x="432.227575" y="233.702723" style="fill: none; stroke: #000000"/>
    </g>
    <g clip-path="url(#pfd190d9d8b)">
     <use xlink:href="#C0_0_df235ddeec" x="431.937237" y="233.551207" style="fill: none; stroke: #000000"/>
    </g>
   </g>
   <g id="PathCollection_2">
    <defs>
     <path id="m7cfa021d7c" d="M -3 0 
L 3 0 
M 0 3 
L 0 -3 
" style="stroke: #ff0000; stroke-width: 1.5"/>
    </defs>
    <g clip-path="url(#pfd190d9d8b)">
     <use xlink:href="#m7cfa021d7c" x="78.376364" y="234.235944" style="fill: #ff0000; stroke: #ff0000; stroke-width: 1.5"/>
     <use xlink:href="#m7cfa021d7c" x="78.376848" y="234.175297" style="fill: #ff0000; stroke: #ff0000; stroke-width: 1.5"/>
     <use xlink:href="#m7cfa021d7c" x="78.377598" y="234.099005" style="fill: #ff0000; stroke: #ff0000; stroke-width: 1.5"/>
     <use xlink:href="#m7cfa021d7c" x="78.378748" y="234.003068" style="fill: #ff0000; stroke: #ff0000; stroke-width: 1.5"/>
     <use xlink:href="#m7cfa021d7c" x="78.380482" y="233.882481" style="fill: #ff0000; stroke: #ff0000; stroke-width: 1.5"/>
     <use xlink:href="#m7cfa021d7c" x="78.383043" y="233.730996" style="fill: #ff0000; stroke: #ff0000; stroke-width: 1.5"/>
     <use xlink:href="#m7cfa021d7c" x="78.386734" y="233.540802" style="fill: #ff0000; stroke: #ff0000; stroke-width: 1.5"/>
     <use xlink:href="#m7cfa021d7c" x="78.391912" y="233.302111" style="fill: #ff0000; stroke: #ff0000; stroke-width: 1.5"/>
     <use xlink:href="#m7cfa021d7c" x="78.399006" y="233.002612" style="fill: #ff0000; stroke: #ff0000; stroke-width: 1.5"/>
     <use xlink:href="#m7cfa021d7c" x="78.408579" y="232.62676" style="fill: #ff0000; stroke: #ff0000; stroke-width: 1.5"/>
     <use xlink:href="#m7cfa021d7c" x="78.421474" y="232.154889" style="fill: #ff0000; stroke: #ff0000; stroke-width: 1.5"/>
     <use xlink:href="#m7cfa021d7c" x="78.439069" y="231.56214" style="fill: #ff0000; stroke: #ff0000; stroke-width: 1.5"/>
     <use xlink:href="#m7cfa021d7c" x="78.463664" y="230.81715" style="fill: #ff0000; stroke: #ff0000; stroke-width: 1.5"/>
     <use xlink:href="#m7cfa021d7c" x="78.499051" y="229.880456" style="fill: #ff0000; stroke: #ff0000; stroke-width: 1.5"/>
     <use xlink:href="#m7cfa021d7c" x="78.551369" y="228.702521" style="fill: #ff0000; stroke: #ff0000; stroke-width: 1.5"/>
     <use xlink:href="#m7cfa021d7c" x="78.630429" y="227.221316" style="fill: #ff0000; stroke: #ff0000; stroke-width: 1.5"/>
     <use xlink:href="#m7cfa021d7c" x="78.751796" y="225.359402" style="fill: #ff0000; stroke: #ff0000; stroke-width: 1.5"/>
     <use xlink:href="#m7cfa021d7c" x="78.940031" y="223.020553" style="fill: #ff0000; stroke: #ff0000; stroke-width: 1.5"/>
     <use xlink:href="#m7cfa021d7c" x="79.233735" y="220.086073" style="fill: #ff0000; stroke: #ff0000; stroke-width: 1.5"/>
     <use xlink:href="#m7cfa021d7c" x="79.693251" y="216.411287" style="fill: #ff0000; stroke: #ff0000; stroke-width: 1.5"/>
     <use xlink:href="#m7cfa021d7c" x="80.412169" y="211.823262" style="fill: #ff0000; stroke: #ff0000; stroke-width: 1.5"/>
     <use xlink:href="#m7cfa021d7c" x="81.533892" y="206.121866" style="fill: #ff0000; stroke: #ff0000; stroke-width: 1.5"/>
     <use xlink:href="#m7cfa021d7c" x="83.274027" y="199.088019" style="fill: #ff0000; stroke: #ff0000; stroke-width: 1.5"/>
     <use xlink:href="#m7cfa021d7c" x="85.94745" y="190.505237" style="fill: #ff0000; stroke: #ff0000; stroke-width: 1.5"/>
     <use xlink:href="#m7cfa021d7c" x="89.994081" y="180.202475" style="fill: #ff0000; stroke: #ff0000; stroke-width: 1.5"/>
     <use xlink:href="#m7cfa021d7c" x="95.988936" y="168.124439" style="fill: #ff0000; stroke: #ff0000; stroke-width: 1.5"/>
     <use xlink:href="#m7cfa021d7c" x="104.612431" y="154.424694" style="fill: #ff0000; stroke: #ff0000; stroke-width: 1.5"/>
     <use xlink:href="#m7cfa021d7c" x="116.557125" y="139.553361" style="fill: #ff0000; stroke: #ff0000; stroke-width: 1.5"/>
     <use xlink:href="#m7cfa021d7c" x="132.373345" y="124.286661" style="fill: #ff0000; stroke: #ff0000; stroke-width: 1.5"/>
     <use xlink:href="#m7cfa021d7c" x="152.307739" y="109.653303" style="fill: #ff0000; stroke: #ff0000; stroke-width: 1.5"/>
     <use xlink:href="#m7cfa021d7c" x="176.218829" y="96.777252" style="fill: #ff0000; stroke: #ff0000; stroke-width: 1.5"/>
     <use xlink:href="#m7cfa021d7c" x="203.600627" y="86.729708" style="fill: #ff0000; stroke: #ff0000; stroke-width: 1.5"/>
     <use xlink:href="#m7cfa021d7c" x="233.638824" y="80.461393" style="fill: #ff0000; stroke: #ff0000; stroke-width: 1.5"/>
     <use xlink:href="#m7cfa021d7c" x="265.203499" y="78.760031" style="fill: #ff0000; stroke: #ff0000; stroke-width: 1.5"/>
     <use xlink:href="#m7cfa021d7c" x="296.813659" y="82.107257" style="fill: #ff0000; stroke: #ff0000; stroke-width: 1.5"/>
     <use xlink:href="#m7cfa021d7c" x="326.739059" y="90.428091" style="fill: #ff0000; stroke: #ff0000; stroke-width: 1.5"/>
     <use xlink:href="#m7cfa021d7c" x="353.333059" y="102.919903" style="fill: #ff0000; stroke: #ff0000; stroke-width: 1.5"/>
     <use xlink:href="#m7cfa021d7c" x="375.458271" y="118.1646" style="fill: #ff0000; stroke: #ff0000; stroke-width: 1.5"/>
     <use xlink:href="#m7cfa021d7c" x="392.739533" y="134.512874" style="fill: #ff0000; stroke: #ff0000; stroke-width: 1.5"/>
     <use xlink:href="#m7cfa021d7c" x="405.50672" y="150.515259" style="fill: #ff0000; stroke: #ff0000; stroke-width: 1.5"/>
     <use xlink:href="#m7cfa021d7c" x="414.5193" y="165.179216" style="fill: #ff0000; stroke: #ff0000; stroke-width: 1.5"/>
     <use xlink:href="#m7cfa021d7c" x="420.663481" y="177.999787" style="fill: #ff0000; stroke: #ff0000; stroke-width: 1.5"/>
     <use xlink:href="#m7cfa021d7c" x="424.747698" y="188.848658" style="fill: #ff0000; stroke: #ff0000; stroke-width: 1.5"/>
     <use xlink:href="#m7cfa021d7c" x="427.415573" y="197.828242" style="fill: #ff0000; stroke: #ff0000; stroke-width: 1.5"/>
     <use xlink:href="#m7cfa021d7c" x="429.138211" y="205.152324" style="fill: #ff0000; stroke: #ff0000; stroke-width: 1.5"/>
     <use xlink:href="#m7cfa021d7c" x="430.242458" y="211.069046" style="fill: #ff0000; stroke: #ff0000; stroke-width: 1.5"/>
     <use xlink:href="#m7cfa021d7c" x="430.947419" y="215.819179" style="fill: #ff0000; stroke: #ff0000; stroke-width: 1.5"/>
     <use xlink:href="#m7cfa021d7c" x="431.396781" y="219.617394" style="fill: #ff0000; stroke: #ff0000; stroke-width: 1.5"/>
     <use xlink:href="#m7cfa021d7c" x="431.683473" y="222.646456" style="fill: #ff0000; stroke: #ff0000; stroke-width: 1.5"/>
     <use xlink:href="#m7cfa021d7c" x="431.867073" y="225.057836" style="fill: #ff0000; stroke: #ff0000; stroke-width: 1.5"/>
     <use xlink:href="#m7cfa021d7c" x="431.985584" y="226.975046" style="fill: #ff0000; stroke: #ff0000; stroke-width: 1.5"/>
     <use xlink:href="#m7cfa021d7c" x="432.063189" y="228.497796" style="fill: #ff0000; stroke: #ff0000; stroke-width: 1.5"/>
     <use xlink:href="#m7cfa021d7c" x="432.115279" y="229.706082" style="fill: #ff0000; stroke: #ff0000; stroke-width: 1.5"/>
     <use xlink:href="#m7cfa021d7c" x="432.151678" y="230.663837" style="fill: #ff0000; stroke: #ff0000; stroke-width: 1.5"/>
     <use xlink:href="#m7cfa021d7c" x="432.178705" y="231.422039" style="fill: #ff0000; stroke: #ff0000; stroke-width: 1.5"/>
     <use xlink:href="#m7cfa021d7c" x="432.200483" y="232.021282" style="fill: #ff0000; stroke: #ff0000; stroke-width: 1.5"/>
     <use xlink:href="#m7cfa021d7c" x="432.219766" y="232.493885" style="fill: #ff0000; stroke: #ff0000; stroke-width: 1.5"/>
     <use xlink:href="#m7cfa021d7c" x="432.238469" y="232.865595" style="fill: #ff0000; stroke: #ff0000; stroke-width: 1.5"/>
     <use xlink:href="#m7cfa021d7c" x="432.257994" y="233.156969" style="fill: #ff0000; stroke: #ff0000; stroke-width: 1.5"/>
     <use xlink:href="#m7cfa021d7c" x="432.279426" y="233.38449" style="fill: #ff0000; stroke: #ff0000; stroke-width: 1.5"/>
     <use xlink:href="#m7cfa021d7c" x="432.303636" y="233.561479" style="fill: #ff0000; stroke: #ff0000; stroke-width: 1.5"/>
    </g>
   </g>
   <g id="matplotlib.axis_1">
    <g id="xtick_1">
     <g id="line2d_1">
      <defs>
       <path id="m755722ddd2" d="M 0 0 
L 0 3.5 
" style="stroke: #000000; stroke-width: 0.8"/>
      </defs>
      <g>
       <use xlink:href="#m755722ddd2" x="78.535694" y="302.2" style="stroke: #000000; stroke-width: 0.8"/>
      </g>
     </g>
     <g id="text_1">
      <!-- 100 -->
      <g transform="translate(68.991944 316.798437) scale(0.1 -0.1)">
       <defs>
        <path id="DejaVuSans-31" d="M 794 531 
L 1825 531 
L 1825 4091 
L 703 3866 
L 703 4441 
L 1819 4666 
L 2450 4666 
L 2450 531 
L 3481 531 
L 3481 0 
L 794 0 
L 794 531 
z
" transform="scale(0.015625)"/>
        <path id="DejaVuSans-30" d="M 2034 4250 
Q 1547 4250 1301 3770 
Q 1056 3291 1056 2328 
Q 1056 1369 1301 889 
Q 1547 409 2034 409 
Q 2525 409 2770 889 
Q 3016 1369 3016 2328 
Q 3016 3291 2770 3770 
Q 2525 4250 2034 4250 
z
M 2034 4750 
Q 2819 4750 3233 4129 
Q 3647 3509 3647 2328 
Q 3647 1150 3233 529 
Q 2819 -91 2034 -91 
Q 1250 -91 836 529 
Q 422 1150 422 2328 
Q 422 3509 836 4129 
Q 1250 4750 2034 4750 
z
" transform="scale(0.015625)"/>
       </defs>
       <use xlink:href="#DejaVuSans-31"/>
       <use xlink:href="#DejaVuSans-30" transform="translate(63.623047 0)"/>
       <use xlink:href="#DejaVuSans-30" transform="translate(127.246094 0)"/>
      </g>
     </g>
    </g>
    <g id="xtick_2">
     <g id="line2d_2">
      <g>
       <use xlink:href="#m755722ddd2" x="125.66894" y="302.2" style="stroke: #000000; stroke-width: 0.8"/>
      </g>
     </g>
     <g id="text_2">
      <!-- 200 -->
      <g transform="translate(116.12519 316.798437) scale(0.1 -0.1)">
       <defs>
        <path id="DejaVuSans-32" d="M 1228 531 
L 3431 531 
L 3431 0 
L 469 0 
L 469 531 
Q 828 903 1448 1529 
Q 2069 2156 2228 2338 
Q 2531 2678 2651 2914 
Q 2772 3150 2772 3378 
Q 2772 3750 2511 3984 
Q 2250 4219 1831 4219 
Q 1534 4219 1204 4116 
Q 875 4013 500 3803 
L 500 4441 
Q 881 4594 1212 4672 
Q 1544 4750 1819 4750 
Q 2544 4750 2975 4387 
Q 3406 4025 3406 3419 
Q 3406 3131 3298 2873 
Q 3191 2616 2906 2266 
Q 2828 2175 2409 1742 
Q 1991 1309 1228 531 
z
" transform="scale(0.015625)"/>
       </defs>
       <use xlink:href="#DejaVuSans-32"/>
       <use xlink:href="#DejaVuSans-30" transform="translate(63.623047 0)"/>
       <use xlink:href="#DejaVuSans-30" transform="translate(127.246094 0)"/>
      </g>
     </g>
    </g>
    <g id="xtick_3">
     <g id="line2d_3">
      <g>
       <use xlink:href="#m755722ddd2" x="172.802187" y="302.2" style="stroke: #000000; stroke-width: 0.8"/>
      </g>
     </g>
     <g id="text_3">
      <!-- 300 -->
      <g transform="translate(163.258437 316.798437) scale(0.1 -0.1)">
       <defs>
        <path id="DejaVuSans-33" d="M 2597 2516 
Q 3050 2419 3304 2112 
Q 3559 1806 3559 1356 
Q 3559 666 3084 287 
Q 2609 -91 1734 -91 
Q 1441 -91 1130 -33 
Q 819 25 488 141 
L 488 750 
Q 750 597 1062 519 
Q 1375 441 1716 441 
Q 2309 441 2620 675 
Q 2931 909 2931 1356 
Q 2931 1769 2642 2001 
Q 2353 2234 1838 2234 
L 1294 2234 
L 1294 2753 
L 1863 2753 
Q 2328 2753 2575 2939 
Q 2822 3125 2822 3475 
Q 2822 3834 2567 4026 
Q 2313 4219 1838 4219 
Q 1578 4219 1281 4162 
Q 984 4106 628 3988 
L 628 4550 
Q 988 4650 1302 4700 
Q 1616 4750 1894 4750 
Q 2613 4750 3031 4423 
Q 3450 4097 3450 3541 
Q 3450 3153 3228 2886 
Q 3006 2619 2597 2516 
z
" transform="scale(0.015625)"/>
       </defs>
       <use xlink:href="#DejaVuSans-33"/>
       <use xlink:href="#DejaVuSans-30" transform="translate(63.623047 0)"/>
       <use xlink:href="#DejaVuSans-30" transform="translate(127.246094 0)"/>
      </g>
     </g>
    </g>
    <g id="xtick_4">
     <g id="line2d_4">
      <g>
       <use xlink:href="#m755722ddd2" x="219.935434" y="302.2" style="stroke: #000000; stroke-width: 0.8"/>
      </g>
     </g>
     <g id="text_4">
      <!-- 400 -->
      <g transform="translate(210.391684 316.798437) scale(0.1 -0.1)">
       <defs>
        <path id="DejaVuSans-34" d="M 2419 4116 
L 825 1625 
L 2419 1625 
L 2419 4116 
z
M 2253 4666 
L 3047 4666 
L 3047 1625 
L 3713 1625 
L 3713 1100 
L 3047 1100 
L 3047 0 
L 2419 0 
L 2419 1100 
L 313 1100 
L 313 1709 
L 2253 4666 
z
" transform="scale(0.015625)"/>
       </defs>
       <use xlink:href="#DejaVuSans-34"/>
       <use xlink:href="#DejaVuSans-30" transform="translate(63.623047 0)"/>
       <use xlink:href="#DejaVuSans-30" transform="translate(127.246094 0)"/>
      </g>
     </g>
    </g>
    <g id="xtick_5">
     <g id="line2d_5">
      <g>
       <use xlink:href="#m755722ddd2" x="267.068681" y="302.2" style="stroke: #000000; stroke-width: 0.8"/>
      </g>
     </g>
     <g id="text_5">
      <!-- 500 -->
      <g transform="translate(257.524931 316.798437) scale(0.1 -0.1)">
       <defs>
        <path id="DejaVuSans-35" d="M 691 4666 
L 3169 4666 
L 3169 4134 
L 1269 4134 
L 1269 2991 
Q 1406 3038 1543 3061 
Q 1681 3084 1819 3084 
Q 2600 3084 3056 2656 
Q 3513 2228 3513 1497 
Q 3513 744 3044 326 
Q 2575 -91 1722 -91 
Q 1428 -91 1123 -41 
Q 819 9 494 109 
L 494 744 
Q 775 591 1075 516 
Q 1375 441 1709 441 
Q 2250 441 2565 725 
Q 2881 1009 2881 1497 
Q 2881 1984 2565 2268 
Q 2250 2553 1709 2553 
Q 1456 2553 1204 2497 
Q 953 2441 691 2322 
L 691 4666 
z
" transform="scale(0.015625)"/>
       </defs>
       <use xlink:href="#DejaVuSans-35"/>
       <use xlink:href="#DejaVuSans-30" transform="translate(63.623047 0)"/>
       <use xlink:href="#DejaVuSans-30" transform="translate(127.246094 0)"/>
      </g>
     </g>
    </g>
    <g id="xtick_6">
     <g id="line2d_6">
      <g>
       <use xlink:href="#m755722ddd2" x="314.201928" y="302.2" style="stroke: #000000; stroke-width: 0.8"/>
      </g>
     </g>
     <g id="text_6">
      <!-- 600 -->
      <g transform="translate(304.658178 316.798437) scale(0.1 -0.1)">
       <defs>
        <path id="DejaVuSans-36" d="M 2113 2584 
Q 1688 2584 1439 2293 
Q 1191 2003 1191 1497 
Q 1191 994 1439 701 
Q 1688 409 2113 409 
Q 2538 409 2786 701 
Q 3034 994 3034 1497 
Q 3034 2003 2786 2293 
Q 2538 2584 2113 2584 
z
M 3366 4563 
L 3366 3988 
Q 3128 4100 2886 4159 
Q 2644 4219 2406 4219 
Q 1781 4219 1451 3797 
Q 1122 3375 1075 2522 
Q 1259 2794 1537 2939 
Q 1816 3084 2150 3084 
Q 2853 3084 3261 2657 
Q 3669 2231 3669 1497 
Q 3669 778 3244 343 
Q 2819 -91 2113 -91 
Q 1303 -91 875 529 
Q 447 1150 447 2328 
Q 447 3434 972 4092 
Q 1497 4750 2381 4750 
Q 2619 4750 2861 4703 
Q 3103 4656 3366 4563 
z
" transform="scale(0.015625)"/>
       </defs>
       <use xlink:href="#DejaVuSans-36"/>
       <use xlink:href="#DejaVuSans-30" transform="translate(63.623047 0)"/>
       <use xlink:href="#DejaVuSans-30" transform="translate(127.246094 0)"/>
      </g>
     </g>
    </g>
    <g id="xtick_7">
     <g id="line2d_7">
      <g>
       <use xlink:href="#m755722ddd2" x="361.335174" y="302.2" style="stroke: #000000; stroke-width: 0.8"/>
      </g>
     </g>
     <g id="text_7">
      <!-- 700 -->
      <g transform="translate(351.791424 316.798437) scale(0.1 -0.1)">
       <defs>
        <path id="DejaVuSans-37" d="M 525 4666 
L 3525 4666 
L 3525 4397 
L 1831 0 
L 1172 0 
L 2766 4134 
L 525 4134 
L 525 4666 
z
" transform="scale(0.015625)"/>
       </defs>
       <use xlink:href="#DejaVuSans-37"/>
       <use xlink:href="#DejaVuSans-30" transform="translate(63.623047 0)"/>
       <use xlink:href="#DejaVuSans-30" transform="translate(127.246094 0)"/>
      </g>
     </g>
    </g>
    <g id="xtick_8">
     <g id="line2d_8">
      <g>
       <use xlink:href="#m755722ddd2" x="408.468421" y="302.2" style="stroke: #000000; stroke-width: 0.8"/>
      </g>
     </g>
     <g id="text_8">
      <!-- 800 -->
      <g transform="translate(398.924671 316.798437) scale(0.1 -0.1)">
       <defs>
        <path id="DejaVuSans-38" d="M 2034 2216 
Q 1584 2216 1326 1975 
Q 1069 1734 1069 1313 
Q 1069 891 1326 650 
Q 1584 409 2034 409 
Q 2484 409 2743 651 
Q 3003 894 3003 1313 
Q 3003 1734 2745 1975 
Q 2488 2216 2034 2216 
z
M 1403 2484 
Q 997 2584 770 2862 
Q 544 3141 544 3541 
Q 544 4100 942 4425 
Q 1341 4750 2034 4750 
Q 2731 4750 3128 4425 
Q 3525 4100 3525 3541 
Q 3525 3141 3298 2862 
Q 3072 2584 2669 2484 
Q 3125 2378 3379 2068 
Q 3634 1759 3634 1313 
Q 3634 634 3220 271 
Q 2806 -91 2034 -91 
Q 1263 -91 848 271 
Q 434 634 434 1313 
Q 434 1759 690 2068 
Q 947 2378 1403 2484 
z
M 1172 3481 
Q 1172 3119 1398 2916 
Q 1625 2713 2034 2713 
Q 2441 2713 2670 2916 
Q 2900 3119 2900 3481 
Q 2900 3844 2670 4047 
Q 2441 4250 2034 4250 
Q 1625 4250 1398 4047 
Q 1172 3844 1172 3481 
z
" transform="scale(0.015625)"/>
       </defs>
       <use xlink:href="#DejaVuSans-38"/>
       <use xlink:href="#DejaVuSans-30" transform="translate(63.623047 0)"/>
       <use xlink:href="#DejaVuSans-30" transform="translate(127.246094 0)"/>
      </g>
     </g>
    </g>
    <g id="text_9">
     <!-- ${\rm Re}(Z)\ (\Omega)$ -->
     <g transform="translate(232.09 330.476562) scale(0.1 -0.1)">
      <defs>
       <path id="DejaVuSans-52" d="M 2841 2188 
Q 3044 2119 3236 1894 
Q 3428 1669 3622 1275 
L 4263 0 
L 3584 0 
L 2988 1197 
Q 2756 1666 2539 1819 
Q 2322 1972 1947 1972 
L 1259 1972 
L 1259 0 
L 628 0 
L 628 4666 
L 2053 4666 
Q 2853 4666 3247 4331 
Q 3641 3997 3641 3322 
Q 3641 2881 3436 2590 
Q 3231 2300 2841 2188 
z
M 1259 4147 
L 1259 2491 
L 2053 2491 
Q 2509 2491 2742 2702 
Q 2975 2913 2975 3322 
Q 2975 3731 2742 3939 
Q 2509 4147 2053 4147 
L 1259 4147 
z
" transform="scale(0.015625)"/>
       <path id="DejaVuSans-65" d="M 3597 1894 
L 3597 1613 
L 953 1613 
Q 991 1019 1311 708 
Q 1631 397 2203 397 
Q 2534 397 2845 478 
Q 3156 559 3463 722 
L 3463 178 
Q 3153 47 2828 -22 
Q 2503 -91 2169 -91 
Q 1331 -91 842 396 
Q 353 884 353 1716 
Q 353 2575 817 3079 
Q 1281 3584 2069 3584 
Q 2775 3584 3186 3129 
Q 3597 2675 3597 1894 
z
M 3022 2063 
Q 3016 2534 2758 2815 
Q 2500 3097 2075 3097 
Q 1594 3097 1305 2825 
Q 1016 2553 972 2059 
L 3022 2063 
z
" transform="scale(0.015625)"/>
       <path id="DejaVuSans-28" d="M 1984 4856 
Q 1566 4138 1362 3434 
Q 1159 2731 1159 2009 
Q 1159 1288 1364 580 
Q 1569 -128 1984 -844 
L 1484 -844 
Q 1016 -109 783 600 
Q 550 1309 550 2009 
Q 550 2706 781 3412 
Q 1013 4119 1484 4856 
L 1984 4856 
z
" transform="scale(0.015625)"/>
       <path id="DejaVuSans-Oblique-5a" d="M 838 4666 
L 4500 4666 
L 4409 4184 
L 794 531 
L 3769 531 
L 3669 0 
L -141 0 
L -50 481 
L 3566 4134 
L 738 4134 
L 838 4666 
z
" transform="scale(0.015625)"/>
       <path id="DejaVuSans-29" d="M 513 4856 
L 1013 4856 
Q 1481 4119 1714 3412 
Q 1947 2706 1947 2009 
Q 1947 1309 1714 600 
Q 1481 -109 1013 -844 
L 513 -844 
Q 928 -128 1133 580 
Q 1338 1288 1338 2009 
Q 1338 2731 1133 3434 
Q 928 4138 513 4856 
z
" transform="scale(0.015625)"/>
       <path id="DejaVuSans-3a9" d="M 4647 556 
L 4647 0 
L 2772 0 
L 2772 556 
Q 3325 859 3634 1378 
Q 3944 1897 3944 2528 
Q 3944 3278 3531 3731 
Q 3119 4184 2444 4184 
Q 1769 4184 1355 3729 
Q 941 3275 941 2528 
Q 941 1897 1250 1378 
Q 1563 859 2119 556 
L 2119 0 
L 244 0 
L 244 556 
L 1241 556 
Q 747 991 519 1456 
Q 294 1922 294 2497 
Q 294 3491 894 4106 
Q 1491 4722 2444 4722 
Q 3391 4722 3994 4106 
Q 4594 3494 4594 2528 
Q 4594 1922 4372 1459 
Q 4150 997 3647 556 
L 4647 556 
z
" transform="scale(0.015625)"/>
      </defs>
      <use xlink:href="#DejaVuSans-52" transform="translate(0 0.125)"/>
      <use xlink:href="#DejaVuSans-65" transform="translate(69.482422 0.125)"/>
      <use xlink:href="#DejaVuSans-28" transform="translate(131.005859 0.125)"/>
      <use xlink:href="#DejaVuSans-Oblique-5a" transform="translate(170.019531 0.125)"/>
      <use xlink:href="#DejaVuSans-29" transform="translate(238.525391 0.125)"/>
      <use xlink:href="#DejaVuSans-28" transform="translate(310.009441 0.125)"/>
      <use xlink:href="#DejaVuSans-3a9" transform="translate(349.023113 0.125)"/>
      <use xlink:href="#DejaVuSans-29" transform="translate(425.439128 0.125)"/>
     </g>
    </g>
   </g>
   <g id="matplotlib.axis_2">
    <g id="ytick_1">
     <g id="line2d_9">
      <defs>
       <path id="m4f0c2db16f" d="M 0 0 
L -3.5 0 
" style="stroke: #000000; stroke-width: 0.8"/>
      </defs>
      <g>
       <use xlink:href="#m4f0c2db16f" x="60.68" y="281.813862" style="stroke: #000000; stroke-width: 0.8"/>
      </g>
     </g>
     <g id="text_10">
      <!-- −100 -->
      <g transform="translate(26.212813 285.613081) scale(0.1 -0.1)">
       <defs>
        <path id="DejaVuSans-2212" d="M 678 2272 
L 4684 2272 
L 4684 1741 
L 678 1741 
L 678 2272 
z
" transform="scale(0.015625)"/>
       </defs>
       <use xlink:href="#DejaVuSans-2212"/>
       <use xlink:href="#DejaVuSans-31" transform="translate(83.789062 0)"/>
       <use xlink:href="#DejaVuSans-30" transform="translate(147.412109 0)"/>
       <use xlink:href="#DejaVuSans-30" transform="translate(211.035156 0)"/>
      </g>
     </g>
    </g>
    <g id="ytick_2">
     <g id="line2d_10">
      <g>
       <use xlink:href="#m4f0c2db16f" x="60.68" y="234.470412" style="stroke: #000000; stroke-width: 0.8"/>
      </g>
     </g>
     <g id="text_11">
      <!-- 0 -->
      <g transform="translate(47.3175 238.269631) scale(0.1 -0.1)">
       <use xlink:href="#DejaVuSans-30"/>
      </g>
     </g>
    </g>
    <g id="ytick_3">
     <g id="line2d_11">
      <g>
       <use xlink:href="#m4f0c2db16f" x="60.68" y="187.126962" style="stroke: #000000; stroke-width: 0.8"/>
      </g>
     </g>
     <g id="text_12">
      <!-- 100 -->
      <g transform="translate(34.5925 190.926181) scale(0.1 -0.1)">
       <use xlink:href="#DejaVuSans-31"/>
       <use xlink:href="#DejaVuSans-30" transform="translate(63.623047 0)"/>
       <use xlink:href="#DejaVuSans-30" transform="translate(127.246094 0)"/>
      </g>
     </g>
    </g>
    <g id="ytick_4">
     <g id="line2d_12">
      <g>
       <use xlink:href="#m4f0c2db16f" x="60.68" y="139.783512" style="stroke: #000000; stroke-width: 0.8"/>
      </g>
     </g>
     <g id="text_13">
      <!-- 200 -->
      <g transform="translate(34.5925 143.58273) scale(0.1 -0.1)">
       <use xlink:href="#DejaVuSans-32"/>
       <use xlink:href="#DejaVuSans-30" transform="translate(63.623047 0)"/>
       <use xlink:href="#DejaVuSans-30" transform="translate(127.246094 0)"/>
      </g>
     </g>
    </g>
    <g id="ytick_5">
     <g id="line2d_13">
      <g>
       <use xlink:href="#m4f0c2db16f" x="60.68" y="92.440061" style="stroke: #000000; stroke-width: 0.8"/>
      </g>
     </g>
     <g id="text_14">
      <!-- 300 -->
      <g transform="translate(34.5925 96.23928) scale(0.1 -0.1)">
       <use xlink:href="#DejaVuSans-33"/>
       <use xlink:href="#DejaVuSans-30" transform="translate(63.623047 0)"/>
       <use xlink:href="#DejaVuSans-30" transform="translate(127.246094 0)"/>
      </g>
     </g>
    </g>
    <g id="ytick_6">
     <g id="line2d_14">
      <g>
       <use xlink:href="#m4f0c2db16f" x="60.68" y="45.096611" style="stroke: #000000; stroke-width: 0.8"/>
      </g>
     </g>
     <g id="text_15">
      <!-- 400 -->
      <g transform="translate(34.5925 48.89583) scale(0.1 -0.1)">
       <use xlink:href="#DejaVuSans-34"/>
       <use xlink:href="#DejaVuSans-30" transform="translate(63.623047 0)"/>
       <use xlink:href="#DejaVuSans-30" transform="translate(127.246094 0)"/>
      </g>
     </g>
    </g>
    <g id="text_16">
     <!-- $-{\rm Im}(Z)\ (\Omega)$ -->
     <g transform="translate(20.133125 183.55) rotate(-90) scale(0.1 -0.1)">
      <defs>
       <path id="DejaVuSans-49" d="M 628 4666 
L 1259 4666 
L 1259 0 
L 628 0 
L 628 4666 
z
" transform="scale(0.015625)"/>
       <path id="DejaVuSans-6d" d="M 3328 2828 
Q 3544 3216 3844 3400 
Q 4144 3584 4550 3584 
Q 5097 3584 5394 3201 
Q 5691 2819 5691 2113 
L 5691 0 
L 5113 0 
L 5113 2094 
Q 5113 2597 4934 2840 
Q 4756 3084 4391 3084 
Q 3944 3084 3684 2787 
Q 3425 2491 3425 1978 
L 3425 0 
L 2847 0 
L 2847 2094 
Q 2847 2600 2669 2842 
Q 2491 3084 2119 3084 
Q 1678 3084 1418 2786 
Q 1159 2488 1159 1978 
L 1159 0 
L 581 0 
L 581 3500 
L 1159 3500 
L 1159 2956 
Q 1356 3278 1631 3431 
Q 1906 3584 2284 3584 
Q 2666 3584 2933 3390 
Q 3200 3197 3328 2828 
z
" transform="scale(0.015625)"/>
      </defs>
      <use xlink:href="#DejaVuSans-2212" transform="translate(0 0.125)"/>
      <use xlink:href="#DejaVuSans-49" transform="translate(83.789062 0.125)"/>
      <use xlink:href="#DejaVuSans-6d" transform="translate(109.65625 0.125)"/>
      <use xlink:href="#DejaVuSans-28" transform="translate(207.068359 0.125)"/>
      <use xlink:href="#DejaVuSans-Oblique-5a" transform="translate(246.082031 0.125)"/>
      <use xlink:href="#DejaVuSans-29" transform="translate(314.587891 0.125)"/>
      <use xlink:href="#DejaVuSans-28" transform="translate(386.071941 0.125)"/>
      <use xlink:href="#DejaVuSans-3a9" transform="translate(425.085613 0.125)"/>
      <use xlink:href="#DejaVuSans-29" transform="translate(501.501628 0.125)"/>
     </g>
    </g>
   </g>
   <g id="patch_3">
    <path d="M 60.68 302.2 
L 60.68 10.8 
" style="fill: none; stroke: #000000; stroke-width: 0.8; stroke-linejoin: miter; stroke-linecap: square"/>
   </g>
   <g id="patch_4">
    <path d="M 450 302.2 
L 450 10.8 
" style="fill: none; stroke: #000000; stroke-width: 0.8; stroke-linejoin: miter; stroke-linecap: square"/>
   </g>
   <g id="patch_5">
    <path d="M 60.68 302.2 
L 450 302.2 
" style="fill: none; stroke: #000000; stroke-width: 0.8; stroke-linejoin: miter; stroke-linecap: square"/>
   </g>
   <g id="patch_6">
    <path d="M 60.68 10.8 
L 450 10.8 
" style="fill: none; stroke: #000000; stroke-width: 0.8; stroke-linejoin: miter; stroke-linecap: square"/>
   </g>
   <g id="legend_1">
    <g id="patch_7">
     <path d="M 316.435937 48.15625 
L 443 48.15625 
Q 445 48.15625 445 46.15625 
L 445 17.8 
Q 445 15.8 443 15.8 
L 316.435937 15.8 
Q 314.435937 15.8 314.435937 17.8 
L 314.435937 46.15625 
Q 314.435937 48.15625 316.435937 48.15625 
z
" style="fill: #ffffff; opacity: 0.8; stroke: #cccccc; stroke-linejoin: miter"/>
    </g>
    <g id="PathCollection_3">
     <path d="M 328.435937 27.773438 
C 329.231547 27.773438 329.994677 27.457339 330.557258 26.894758 
C 331.119839 26.332177 331.435937 25.569047 331.435937 24.773438 
C 331.435937 23.977828 331.119839 23.214698 330.557258 22.652117 
C 329.994677 22.089536 329.231547 21.773438 328.435937 21.773438 
C 327.640328 21.773438 326.877198 22.089536 326.314617 22.652117 
C 325.752036 23.214698 325.435937 23.977828 325.435937 24.773438 
C 325.435937 25.569047 325.752036 26.332177 326.314617 26.894758 
C 326.877198 27.457339 327.640328 27.773438 328.435937 27.773438 
L 328.435937 27.773438 
z
" style="fill: none; stroke: #000000"/>
    </g>
    <g id="text_17">
     <!-- [R(RC)(RC)] (noisy) -->
     <g transform="translate(346.435937 27.398438) scale(0.1 -0.1)">
      <defs>
       <path id="DejaVuSans-5b" d="M 550 4863 
L 1875 4863 
L 1875 4416 
L 1125 4416 
L 1125 -397 
L 1875 -397 
L 1875 -844 
L 550 -844 
L 550 4863 
z
" transform="scale(0.015625)"/>
       <path id="DejaVuSans-43" d="M 4122 4306 
L 4122 3641 
Q 3803 3938 3442 4084 
Q 3081 4231 2675 4231 
Q 1875 4231 1450 3742 
Q 1025 3253 1025 2328 
Q 1025 1406 1450 917 
Q 1875 428 2675 428 
Q 3081 428 3442 575 
Q 3803 722 4122 1019 
L 4122 359 
Q 3791 134 3420 21 
Q 3050 -91 2638 -91 
Q 1578 -91 968 557 
Q 359 1206 359 2328 
Q 359 3453 968 4101 
Q 1578 4750 2638 4750 
Q 3056 4750 3426 4639 
Q 3797 4528 4122 4306 
z
" transform="scale(0.015625)"/>
       <path id="DejaVuSans-5d" d="M 1947 4863 
L 1947 -844 
L 622 -844 
L 622 -397 
L 1369 -397 
L 1369 4416 
L 622 4416 
L 622 4863 
L 1947 4863 
z
" transform="scale(0.015625)"/>
       <path id="DejaVuSans-20" transform="scale(0.015625)"/>
       <path id="DejaVuSans-6e" d="M 3513 2113 
L 3513 0 
L 2938 0 
L 2938 2094 
Q 2938 2591 2744 2837 
Q 2550 3084 2163 3084 
Q 1697 3084 1428 2787 
Q 1159 2491 1159 1978 
L 1159 0 
L 581 0 
L 581 3500 
L 1159 3500 
L 1159 2956 
Q 1366 3272 1645 3428 
Q 1925 3584 2291 3584 
Q 2894 3584 3203 3211 
Q 3513 2838 3513 2113 
z
" transform="scale(0.015625)"/>
       <path id="DejaVuSans-6f" d="M 1959 3097 
Q 1497 3097 1228 2736 
Q 959 2375 959 1747 
Q 959 1119 1226 758 
Q 1494 397 1959 397 
Q 2419 397 2687 759 
Q 2956 1122 2956 1747 
Q 2956 2369 2687 2733 
Q 2419 3097 1959 3097 
z
M 1959 3584 
Q 2709 3584 3137 3096 
Q 3566 2609 3566 1747 
Q 3566 888 3137 398 
Q 2709 -91 1959 -91 
Q 1206 -91 779 398 
Q 353 888 353 1747 
Q 353 2609 779 3096 
Q 1206 3584 1959 3584 
z
" transform="scale(0.015625)"/>
       <path id="DejaVuSans-69" d="M 603 3500 
L 1178 3500 
L 1178 0 
L 603 0 
L 603 3500 
z
M 603 4863 
L 1178 4863 
L 1178 4134 
L 603 4134 
L 603 4863 
z
" transform="scale(0.015625)"/>
       <path id="DejaVuSans-73" d="M 2834 3397 
L 2834 2853 
Q 2591 2978 2328 3040 
Q 2066 3103 1784 3103 
Q 1356 3103 1142 2972 
Q 928 2841 928 2578 
Q 928 2378 1081 2264 
Q 1234 2150 1697 2047 
L 1894 2003 
Q 2506 1872 2764 1633 
Q 3022 1394 3022 966 
Q 3022 478 2636 193 
Q 2250 -91 1575 -91 
Q 1294 -91 989 -36 
Q 684 19 347 128 
L 347 722 
Q 666 556 975 473 
Q 1284 391 1588 391 
Q 1994 391 2212 530 
Q 2431 669 2431 922 
Q 2431 1156 2273 1281 
Q 2116 1406 1581 1522 
L 1381 1569 
Q 847 1681 609 1914 
Q 372 2147 372 2553 
Q 372 3047 722 3315 
Q 1072 3584 1716 3584 
Q 2034 3584 2315 3537 
Q 2597 3491 2834 3397 
z
" transform="scale(0.015625)"/>
       <path id="DejaVuSans-79" d="M 2059 -325 
Q 1816 -950 1584 -1140 
Q 1353 -1331 966 -1331 
L 506 -1331 
L 506 -850 
L 844 -850 
Q 1081 -850 1212 -737 
Q 1344 -625 1503 -206 
L 1606 56 
L 191 3500 
L 800 3500 
L 1894 763 
L 2988 3500 
L 3597 3500 
L 2059 -325 
z
" transform="scale(0.015625)"/>
      </defs>
      <use xlink:href="#DejaVuSans-5b"/>
      <use xlink:href="#DejaVuSans-52" transform="translate(39.013672 0)"/>
      <use xlink:href="#DejaVuSans-28" transform="translate(108.496094 0)"/>
      <use xlink:href="#DejaVuSans-52" transform="translate(147.509766 0)"/>
      <use xlink:href="#DejaVuSans-43" transform="translate(211.992188 0)"/>
      <use xlink:href="#DejaVuSans-29" transform="translate(281.816406 0)"/>
      <use xlink:href="#DejaVuSans-28" transform="translate(320.830078 0)"/>
      <use xlink:href="#DejaVuSans-52" transform="translate(359.84375 0)"/>
      <use xlink:href="#DejaVuSans-43" transform="translate(424.326172 0)"/>
      <use xlink:href="#DejaVuSans-29" transform="translate(494.150391 0)"/>
      <use xlink:href="#DejaVuSans-5d" transform="translate(533.164062 0)"/>
      <use xlink:href="#DejaVuSans-20" transform="translate(572.177734 0)"/>
      <use xlink:href="#DejaVuSans-28" transform="translate(603.964844 0)"/>
      <use xlink:href="#DejaVuSans-6e" transform="translate(642.978516 0)"/>
      <use xlink:href="#DejaVuSans-6f" transform="translate(706.357422 0)"/>
      <use xlink:href="#DejaVuSans-69" transform="translate(767.539062 0)"/>
      <use xlink:href="#DejaVuSans-73" transform="translate(795.322266 0)"/>
      <use xlink:href="#DejaVuSans-79" transform="translate(847.421875 0)"/>
      <use xlink:href="#DejaVuSans-29" transform="translate(906.601562 0)"/>
     </g>
    </g>
    <g id="PathCollection_4">
     <g>
      <use xlink:href="#m7cfa021d7c" x="328.435937" y="39.451563" style="fill: #ff0000; stroke: #ff0000; stroke-width: 1.5"/>
     </g>
    </g>
    <g id="text_18">
     <!-- TR-RBF -->
     <g transform="translate(346.435937 42.076563) scale(0.1 -0.1)">
      <defs>
       <path id="DejaVuSans-54" d="M -19 4666 
L 3928 4666 
L 3928 4134 
L 2272 4134 
L 2272 0 
L 1638 0 
L 1638 4134 
L -19 4134 
L -19 4666 
z
" transform="scale(0.015625)"/>
       <path id="DejaVuSans-2d" d="M 313 2009 
L 1997 2009 
L 1997 1497 
L 313 1497 
L 313 2009 
z
" transform="scale(0.015625)"/>
       <path id="DejaVuSans-42" d="M 1259 2228 
L 1259 519 
L 2272 519 
Q 2781 519 3026 730 
Q 3272 941 3272 1375 
Q 3272 1813 3026 2020 
Q 2781 2228 2272 2228 
L 1259 2228 
z
M 1259 4147 
L 1259 2741 
L 2194 2741 
Q 2656 2741 2882 2914 
Q 3109 3088 3109 3444 
Q 3109 3797 2882 3972 
Q 2656 4147 2194 4147 
L 1259 4147 
z
M 628 4666 
L 2241 4666 
Q 2963 4666 3353 4366 
Q 3744 4066 3744 3513 
Q 3744 3084 3544 2831 
Q 3344 2578 2956 2516 
Q 3422 2416 3680 2098 
Q 3938 1781 3938 1306 
Q 3938 681 3513 340 
Q 3088 0 2303 0 
L 628 0 
L 628 4666 
z
" transform="scale(0.015625)"/>
       <path id="DejaVuSans-46" d="M 628 4666 
L 3309 4666 
L 3309 4134 
L 1259 4134 
L 1259 2759 
L 3109 2759 
L 3109 2228 
L 1259 2228 
L 1259 0 
L 628 0 
L 628 4666 
z
" transform="scale(0.015625)"/>
      </defs>
      <use xlink:href="#DejaVuSans-54"/>
      <use xlink:href="#DejaVuSans-52" transform="translate(61.083984 0)"/>
      <use xlink:href="#DejaVuSans-2d" transform="translate(126.566406 0)"/>
      <use xlink:href="#DejaVuSans-52" transform="translate(162.650391 0)"/>
      <use xlink:href="#DejaVuSans-42" transform="translate(232.132812 0)"/>
      <use xlink:href="#DejaVuSans-46" transform="translate(300.736328 0)"/>
     </g>
    </g>
   </g>
  </g>
 </g>
 <defs>
  <clipPath id="pfd190d9d8b">
   <rect x="60.68" y="10.8" width="389.32" height="291.4"/>
  </clipPath>
 </defs>
</svg>
