<?xml version="1.0" encoding="utf-8" standalone="no"?>
<!DOCTYPE svg PUBLIC "-//W3C//DTD SVG 1.1//EN"
  "http://www.w3.org/Graphics/SVG/1.1/DTD/svg11.dtd">
<svg xmlns:xlink="http://www.w3.org/1999/xlink" width="500.94pt" height="84.346773pt" viewBox="0 0 500.94 84.346773" xmlns="http://www.w3.org/2000/svg" version="1.1">
 <metadata>
  <rdf:RDF xmlns:dc="http://purl.org/dc/elements/1.1/" xmlns:cc="http://creativecommons.org/ns#" xmlns:rdf="http://www.w3.org/1999/02/22-rdf-syntax-ns#">
   <cc:Work>
    <dc:type rdf:resource="http://purl.org/dc/dcmitype/StillImage"/>
    <dc:date>2024-03-14T17:42:33.904858</dc:date>
    <dc:format>image/svg+xml</dc:format>
    <dc:creator>
     <cc:Agent>
      <dc:title>Matplotlib v3.8.3, https://matplotlib.org/</dc:title>
     </cc:Agent>
    </dc:creator>
   </cc:Work>
  </rdf:RDF>
 </metadata>
 <defs>
  <style type="text/css">*{stroke-linejoin: round; stroke-linecap: butt}</style>
 </defs>
 <g id="figure_1">
  <g id="patch_1">
   <path d="M 0 84.346773 
L 500.94 84.346773 
L 500.94 0 
L 0 0 
L 0 84.346773 
z
" style="fill: none"/>
  </g>
  <g id="axes_1">
   <g id="line2d_1">
    <path d="M 25.47 17.512829 
L 43.47 17.512829 
L 61.47 17.512829 
" clip-path="url(#p9ee5e7e90e)" style="fill: none; stroke: #000000; stroke-width: 2; stroke-linecap: round"/>
   </g>
   <g id="line2d_2">
    <path d="M 61.47 17.512829 
L 79.47 17.512829 
L 82.47 8.512829 
L 88.47 26.512829 
L 94.47 8.512829 
L 100.47 26.512829 
L 106.47 8.512829 
L 112.47 26.512829 
L 115.47 17.512829 
L 133.47 17.512829 
" clip-path="url(#p9ee5e7e90e)" style="fill: none; stroke: #000000; stroke-width: 2; stroke-linecap: round"/>
   </g>
   <g id="line2d_3">
    <path d="M 133.47 17.512829 
L 133.47 44.512829 
L 133.47 71.512829 
" clip-path="url(#p9ee5e7e90e)" style="fill: none; stroke: #000000; stroke-width: 2; stroke-linecap: round"/>
   </g>
   <g id="line2d_4">
    <path d="M 133.47 71.512829 
L 166.23 71.512829 
M 166.23 62.512829 
L 166.23 80.512829 
M 172.71 62.512829 
L 172.71 80.512829 
M 172.71 71.512829 
L 205.47 71.512829 
" clip-path="url(#p9ee5e7e90e)" style="fill: none; stroke: #000000; stroke-width: 2; stroke-linecap: round"/>
   </g>
   <g id="line2d_5">
    <path d="M 205.47 71.512829 
L 205.47 44.512829 
L 205.47 17.512829 
" clip-path="url(#p9ee5e7e90e)" style="fill: none; stroke: #000000; stroke-width: 2; stroke-linecap: round"/>
   </g>
   <g id="line2d_6">
    <path d="M 133.47 17.512829 
L 151.47 17.512829 
L 154.47 8.512829 
L 160.47 26.512829 
L 166.47 8.512829 
L 172.47 26.512829 
L 178.47 8.512829 
L 184.47 26.512829 
L 187.47 17.512829 
L 205.47 17.512829 
" clip-path="url(#p9ee5e7e90e)" style="fill: none; stroke: #000000; stroke-width: 2; stroke-linecap: round"/>
   </g>
   <g id="line2d_7">
    <path d="M 205.47 17.512829 
L 214.47 17.512829 
L 223.47 17.512829 
" clip-path="url(#p9ee5e7e90e)" style="fill: none; stroke: #000000; stroke-width: 2; stroke-linecap: round"/>
   </g>
   <g id="line2d_8">
    <path d="M 223.47 17.512829 
L 223.47 44.512829 
L 223.47 71.512829 
" clip-path="url(#p9ee5e7e90e)" style="fill: none; stroke: #000000; stroke-width: 2; stroke-linecap: round"/>
   </g>
   <g id="line2d_9">
    <path d="M 223.47 71.512829 
L 256.23 71.512829 
M 256.23 62.512829 
L 256.23 80.512829 
M 262.71 62.512829 
L 262.71 80.512829 
M 262.71 71.512829 
L 295.47 71.512829 
" clip-path="url(#p9ee5e7e90e)" style="fill: none; stroke: #000000; stroke-width: 2; stroke-linecap: round"/>
   </g>
   <g id="line2d_10">
    <path d="M 295.47 71.512829 
L 295.47 44.512829 
L 295.47 17.512829 
" clip-path="url(#p9ee5e7e90e)" style="fill: none; stroke: #000000; stroke-width: 2; stroke-linecap: round"/>
   </g>
   <g id="line2d_11">
    <path d="M 223.47 17.512829 
L 241.47 17.512829 
L 244.47 8.512829 
L 250.47 26.512829 
L 256.47 8.512829 
L 262.47 26.512829 
L 268.47 8.512829 
L 274.47 26.512829 
L 277.47 17.512829 
L 295.47 17.512829 
" clip-path="url(#p9ee5e7e90e)" style="fill: none; stroke: #000000; stroke-width: 2; stroke-linecap: round"/>
   </g>
   <g id="line2d_12">
    <path d="M 295.47 17.512829 
L 328.23 17.512829 
M 328.23 8.512829 
L 328.23 26.512829 
M 334.71 8.512829 
L 334.71 26.512829 
M 334.71 17.512829 
L 367.47 17.512829 
" clip-path="url(#p9ee5e7e90e)" style="fill: none; stroke: #000000; stroke-width: 2; stroke-linecap: round"/>
   </g>
   <g id="line2d_13">
    <path d="M 367.47 17.512829 
L 385.47 17.512829 
L 385.60407 14.548642 
L 386.01176 11.557722 
L 386.684001 8.790912 
L 387.589538 6.48026 
L 388.114567 5.558521 
L 388.677547 4.819558 
L 389.269767 4.278947 
L 389.881902 3.948085 
L 390.504207 3.833944 
L 391.12672 3.938931 
L 391.739478 4.260833 
L 392.332723 4.792864 
L 392.897106 5.52381 
L 393.423888 6.438265 
L 394.333825 8.737137 
L 395.011342 11.496678 
L 395.42474 14.485449 
L 395.564472 17.452786 
L 395.443942 20.149823 
L 395.098382 22.350364 
L 394.581898 23.869853 
L 394.280537 24.331818 
L 393.962928 24.580852 
L 393.638923 24.611707 
L 393.318509 24.423732 
L 393.011597 24.020889 
L 392.476292 22.608914 
L 392.103029 20.494203 
L 391.948236 17.854113 
L 392.050019 14.910065 
L 392.424963 11.908971 
L 393.066748 9.102528 
L 393.946671 6.726109 
L 394.461402 5.763335 
L 395.016057 4.979021 
L 395.602102 4.389697 
L 396.210342 4.007788 
L 396.831113 3.841341 
L 397.454487 3.893867 
L 398.070482 4.164256 
L 398.669271 4.646811 
L 399.24139 5.33136 
L 399.777935 6.203474 
L 400.712621 8.433299 
L 401.42006 11.149276 
L 401.866046 14.123618 
L 402.038297 17.106872 
L 401.94749 19.848838 
L 401.626365 22.119551 
L 401.126977 23.72857 
L 400.830936 24.24026 
L 400.516332 24.540949 
L 400.192952 24.624299 
L 399.870768 24.488554 
L 399.559731 24.136575 
L 399.269551 23.575781 
L 398.788228 21.879181 
L 398.492289 19.541047 
L 398.431678 16.757474 
L 398.636602 13.761915 
L 399.114998 10.805605 
L 399.851866 8.136483 
L 400.810531 5.978406 
L 401.356371 5.14969 
L 401.935713 4.512368 
L 402.539502 4.079874 
L 403.158169 3.861323 
L 403.781831 3.861323 
L 404.400498 4.079874 
L 405.004287 4.512368 
L 405.583629 5.14969 
L 406.129469 5.978406 
L 406.63346 6.981049 
L 407.487065 9.420356 
L 408.097979 12.263031 
L 408.440087 15.270663 
L 408.509821 18.191007 
L 408.326457 20.779137 
L 407.930496 22.817992 
L 407.380269 24.136575 
L 407.069232 24.488554 
L 406.747048 24.624299 
L 406.423668 24.540949 
L 406.109064 24.24026 
L 405.813023 23.72857 
L 405.313635 22.119551 
L 404.99251 19.848838 
L 404.901703 17.106872 
L 405.073954 14.123618 
L 405.51994 11.149276 
L 406.227379 8.433299 
L 407.162065 6.203474 
L 407.69861 5.33136 
L 408.270729 4.646811 
L 408.869518 4.164256 
L 409.485513 3.893867 
L 410.108887 3.841341 
L 410.729658 4.007788 
L 411.337898 4.389697 
L 411.923943 4.979021 
L 412.478598 5.763335 
L 412.993329 6.726109 
L 413.873252 9.102528 
L 414.515037 11.908971 
L 414.889981 14.910065 
L 414.991764 17.854113 
L 414.836971 20.494203 
L 414.463708 22.608914 
L 413.928403 24.020889 
L 413.621491 24.423732 
L 413.301077 24.611707 
L 412.977072 24.580852 
L 412.659463 24.331818 
L 412.358102 23.869853 
L 411.841618 22.350364 
L 411.496058 20.149823 
L 411.375528 17.452786 
L 411.51526 14.485449 
L 411.928658 11.496678 
L 412.606175 8.737137 
L 413.516112 6.438265 
L 414.042894 5.52381 
L 414.607277 4.792864 
L 415.200522 4.260833 
L 415.81328 3.938931 
L 416.435793 3.833944 
L 417.058098 3.948085 
L 417.670233 4.278947 
L 418.262453 4.819558 
L 418.825433 5.558521 
L 419.350462 6.48026 
L 420.255999 8.790912 
L 420.92824 11.557722 
L 421.33593 14.548642 
L 421.47 17.512829 
L 439.47 17.512829 
L 439.47 17.512829 
" clip-path="url(#p9ee5e7e90e)" style="fill: none; stroke: #000000; stroke-width: 2; stroke-linecap: round"/>
   </g>
   <g id="line2d_14">
    <path d="M 439.47 17.512829 
L 457.47 17.512829 
L 475.47 17.512829 
" clip-path="url(#p9ee5e7e90e)" style="fill: none; stroke: #000000; stroke-width: 2; stroke-linecap: round"/>
   </g>
   <g id="text_1">
    <!-- $R_{\rm ser}$ -->
    <g transform="translate(86.1575 2.313219) scale(0.125 -0.125)">
     <defs>
      <path id="DejaVuSans-Oblique-52" d="M 1613 4147 
L 1294 2491 
L 2106 2491 
Q 2584 2491 2879 2755 
Q 3175 3019 3175 3444 
Q 3175 3784 2976 3965 
Q 2778 4147 2406 4147 
L 1613 4147 
z
M 2772 2241 
Q 2972 2194 3105 2009 
Q 3238 1825 3413 1275 
L 3809 0 
L 3144 0 
L 2778 1197 
Q 2638 1659 2453 1815 
Q 2269 1972 1888 1972 
L 1191 1972 
L 806 0 
L 172 0 
L 1081 4666 
L 2503 4666 
Q 3150 4666 3495 4373 
Q 3841 4081 3841 3531 
Q 3841 3044 3547 2687 
Q 3253 2331 2772 2241 
z
" transform="scale(0.015625)"/>
      <path id="DejaVuSans-73" d="M 2834 3397 
L 2834 2853 
Q 2591 2978 2328 3040 
Q 2066 3103 1784 3103 
Q 1356 3103 1142 2972 
Q 928 2841 928 2578 
Q 928 2378 1081 2264 
Q 1234 2150 1697 2047 
L 1894 2003 
Q 2506 1872 2764 1633 
Q 3022 1394 3022 966 
Q 3022 478 2636 193 
Q 2250 -91 1575 -91 
Q 1294 -91 989 -36 
Q 684 19 347 128 
L 347 722 
Q 666 556 975 473 
Q 1284 391 1588 391 
Q 1994 391 2212 530 
Q 2431 669 2431 922 
Q 2431 1156 2273 1281 
Q 2116 1406 1581 1522 
L 1381 1569 
Q 847 1681 609 1914 
Q 372 2147 372 2553 
Q 372 3047 722 3315 
Q 1072 3584 1716 3584 
Q 2034 3584 2315 3537 
Q 2597 3491 2834 3397 
z
" transform="scale(0.015625)"/>
      <path id="DejaVuSans-65" d="M 3597 1894 
L 3597 1613 
L 953 1613 
Q 991 1019 1311 708 
Q 1631 397 2203 397 
Q 2534 397 2845 478 
Q 3156 559 3463 722 
L 3463 178 
Q 3153 47 2828 -22 
Q 2503 -91 2169 -91 
Q 1331 -91 842 396 
Q 353 884 353 1716 
Q 353 2575 817 3079 
Q 1281 3584 2069 3584 
Q 2775 3584 3186 3129 
Q 3597 2675 3597 1894 
z
M 3022 2063 
Q 3016 2534 2758 2815 
Q 2500 3097 2075 3097 
Q 1594 3097 1305 2825 
Q 1016 2553 972 2059 
L 3022 2063 
z
" transform="scale(0.015625)"/>
      <path id="DejaVuSans-72" d="M 2631 2963 
Q 2534 3019 2420 3045 
Q 2306 3072 2169 3072 
Q 1681 3072 1420 2755 
Q 1159 2438 1159 1844 
L 1159 0 
L 581 0 
L 581 3500 
L 1159 3500 
L 1159 2956 
Q 1341 3275 1631 3429 
Q 1922 3584 2338 3584 
Q 2397 3584 2469 3576 
Q 2541 3569 2628 3553 
L 2631 2963 
z
" transform="scale(0.015625)"/>
     </defs>
     <use xlink:href="#DejaVuSans-Oblique-52" transform="translate(0 0.09375)"/>
     <use xlink:href="#DejaVuSans-73" transform="translate(69.482422 -16.3125) scale(0.7)"/>
     <use xlink:href="#DejaVuSans-65" transform="translate(105.952148 -16.3125) scale(0.7)"/>
     <use xlink:href="#DejaVuSans-72" transform="translate(149.018555 -16.3125) scale(0.7)"/>
    </g>
   </g>
   <g id="text_2">
    <!-- $C_i$ -->
    <g transform="translate(163.6575 56.313219) scale(0.125 -0.125)">
     <defs>
      <path id="DejaVuSans-Oblique-43" d="M 4447 4306 
L 4319 3641 
Q 4019 3944 3683 4091 
Q 3347 4238 2956 4238 
Q 2422 4238 2017 3981 
Q 1613 3725 1319 3200 
Q 1131 2863 1032 2486 
Q 934 2109 934 1728 
Q 934 1091 1264 756 
Q 1594 422 2222 422 
Q 2656 422 3056 561 
Q 3456 700 3834 978 
L 3688 231 
Q 3316 72 2936 -9 
Q 2556 -91 2175 -91 
Q 1278 -91 773 396 
Q 269 884 269 1753 
Q 269 2309 461 2846 
Q 653 3384 1013 3828 
Q 1394 4300 1883 4525 
Q 2372 4750 3022 4750 
Q 3422 4750 3780 4639 
Q 4138 4528 4447 4306 
z
" transform="scale(0.015625)"/>
      <path id="DejaVuSans-Oblique-69" d="M 1172 4863 
L 1747 4863 
L 1606 4134 
L 1031 4134 
L 1172 4863 
z
M 909 3500 
L 1484 3500 
L 800 0 
L 225 0 
L 909 3500 
z
" transform="scale(0.015625)"/>
     </defs>
     <use xlink:href="#DejaVuSans-Oblique-43" transform="translate(0 0.78125)"/>
     <use xlink:href="#DejaVuSans-Oblique-69" transform="translate(69.824219 -15.625) scale(0.7)"/>
    </g>
   </g>
   <g id="text_3">
    <!-- $R_i$ -->
    <g transform="translate(163.72 2.313219) scale(0.125 -0.125)">
     <use xlink:href="#DejaVuSans-Oblique-52" transform="translate(0 0.09375)"/>
     <use xlink:href="#DejaVuSans-Oblique-69" transform="translate(69.482422 -16.3125) scale(0.7)"/>
    </g>
   </g>
   <g id="text_4">
    <!-- $C_n$ -->
    <g transform="translate(252.1575 56.313219) scale(0.125 -0.125)">
     <defs>
      <path id="DejaVuSans-Oblique-6e" d="M 3566 2113 
L 3156 0 
L 2578 0 
L 2988 2091 
Q 3016 2238 3031 2350 
Q 3047 2463 3047 2528 
Q 3047 2791 2881 2937 
Q 2716 3084 2419 3084 
Q 1956 3084 1622 2776 
Q 1288 2469 1184 1941 
L 800 0 
L 225 0 
L 903 3500 
L 1478 3500 
L 1363 2950 
Q 1603 3253 1940 3418 
Q 2278 3584 2650 3584 
Q 3113 3584 3367 3334 
Q 3622 3084 3622 2631 
Q 3622 2519 3608 2391 
Q 3594 2263 3566 2113 
z
" transform="scale(0.015625)"/>
     </defs>
     <use xlink:href="#DejaVuSans-Oblique-43" transform="translate(0 0.78125)"/>
     <use xlink:href="#DejaVuSans-Oblique-6e" transform="translate(69.824219 -15.625) scale(0.7)"/>
    </g>
   </g>
   <g id="text_5">
    <!-- $R_n$ -->
    <g transform="translate(252.1575 2.313219) scale(0.125 -0.125)">
     <use xlink:href="#DejaVuSans-Oblique-52" transform="translate(0 0.09375)"/>
     <use xlink:href="#DejaVuSans-Oblique-6e" transform="translate(69.482422 -16.3125) scale(0.7)"/>
    </g>
   </g>
   <g id="text_6">
    <!-- $C_{\rm ser}$ -->
    <g transform="translate(320.1575 2.313219) scale(0.125 -0.125)">
     <use xlink:href="#DejaVuSans-Oblique-43" transform="translate(0 0.78125)"/>
     <use xlink:href="#DejaVuSans-73" transform="translate(69.824219 -15.625) scale(0.7)"/>
     <use xlink:href="#DejaVuSans-65" transform="translate(106.293945 -15.625) scale(0.7)"/>
     <use xlink:href="#DejaVuSans-72" transform="translate(149.360352 -15.625) scale(0.7)"/>
    </g>
   </g>
   <g id="text_7">
    <!-- $L_{\rm ser}$ -->
    <g transform="translate(393.0325 -2.365665) scale(0.125 -0.125)">
     <defs>
      <path id="DejaVuSans-Oblique-4c" d="M 1075 4666 
L 1709 4666 
L 909 525 
L 3181 525 
L 3078 0 
L 172 0 
L 1075 4666 
z
" transform="scale(0.015625)"/>
     </defs>
     <use xlink:href="#DejaVuSans-Oblique-4c" transform="translate(0 0.09375)"/>
     <use xlink:href="#DejaVuSans-73" transform="translate(55.712891 -16.3125) scale(0.7)"/>
     <use xlink:href="#DejaVuSans-65" transform="translate(92.182617 -16.3125) scale(0.7)"/>
     <use xlink:href="#DejaVuSans-72" transform="translate(135.249023 -16.3125) scale(0.7)"/>
    </g>
   </g>
   <g id="patch_2">
    <path d="M 25.47 20.212829 
C 26.186048 20.212829 26.872866 19.92834 27.379188 19.422017 
C 27.885511 18.915694 28.17 18.228877 28.17 17.512829 
C 28.17 16.79678 27.885511 16.109963 27.379188 15.60364 
C 26.872866 15.097318 26.186048 14.812829 25.47 14.812829 
C 24.753952 14.812829 24.067134 15.097318 23.560812 15.60364 
C 23.054489 16.109963 22.77 16.79678 22.77 17.512829 
C 22.77 18.228877 23.054489 18.915694 23.560812 19.422017 
C 24.067134 19.92834 24.753952 20.212829 25.47 20.212829 
z
" clip-path="url(#p9ee5e7e90e)" style="fill: #ffffff; stroke: #000000; stroke-width: 2; stroke-linejoin: miter"/>
   </g>
   <g id="patch_3">
    <path d="M 475.47 20.212829 
C 476.186048 20.212829 476.872866 19.92834 477.379188 19.422017 
C 477.885511 18.915694 478.17 18.228877 478.17 17.512829 
C 478.17 16.79678 477.885511 16.109963 477.379188 15.60364 
C 476.872866 15.097318 476.186048 14.812829 475.47 14.812829 
C 474.753952 14.812829 474.067134 15.097318 473.560812 15.60364 
C 473.054489 16.109963 472.77 16.79678 472.77 17.512829 
C 472.77 18.228877 473.054489 18.915694 473.560812 19.422017 
C 474.067134 19.92834 474.753952 20.212829 475.47 20.212829 
z
" clip-path="url(#p9ee5e7e90e)" style="fill: #ffffff; stroke: #000000; stroke-width: 2; stroke-linejoin: miter"/>
   </g>
  </g>
 </g>
 <defs>
  <clipPath id="p9ee5e7e90e">
   <rect x="0" y="0" width="500.94" height="84.346773"/>
  </clipPath>
 </defs>
</svg>
