<?xml version="1.0" encoding="utf-8" standalone="no"?>
<!DOCTYPE svg PUBLIC "-//W3C//DTD SVG 1.1//EN"
  "http://www.w3.org/Graphics/SVG/1.1/DTD/svg11.dtd">
<svg xmlns:xlink="http://www.w3.org/1999/xlink" width="464.76pt" height="100.838884pt" viewBox="0 0 464.76 100.838884" xmlns="http://www.w3.org/2000/svg" version="1.1">
 <metadata>
  <rdf:RDF xmlns:dc="http://purl.org/dc/elements/1.1/" xmlns:cc="http://creativecommons.org/ns#" xmlns:rdf="http://www.w3.org/1999/02/22-rdf-syntax-ns#">
   <cc:Work>
    <dc:type rdf:resource="http://purl.org/dc/dcmitype/StillImage"/>
    <dc:date>2025-03-02T11:09:58.667518</dc:date>
    <dc:format>image/svg+xml</dc:format>
    <dc:creator>
     <cc:Agent>
      <dc:title>Matplotlib v3.10.1, https://matplotlib.org/</dc:title>
     </cc:Agent>
    </dc:creator>
   </cc:Work>
  </rdf:RDF>
 </metadata>
 <defs>
  <style type="text/css">*{stroke-linejoin: round; stroke-linecap: butt}</style>
 </defs>
 <g id="figure_1">
  <g id="patch_1">
   <path d="M 0 100.838884 
L 464.76 100.838884 
L 464.76 0 
L 0 0 
L 0 100.838884 
z
" style="fill: none"/>
  </g>
  <g id="axes_1">
   <g id="line2d_1">
    <path d="M 7.38 33.158884 
L 25.38 33.158884 
L 43.38 33.158884 
" clip-path="url(#pb5a6decbd3)" style="fill: none; stroke: #000000; stroke-width: 2; stroke-linecap: round"/>
   </g>
   <g id="line2d_2">
    <path d="M 43.38 33.158884 
L 61.38 33.158884 
L 64.38 24.158884 
L 70.38 42.158884 
L 76.38 24.158884 
L 82.38 42.158884 
L 88.38 24.158884 
L 94.38 42.158884 
L 97.38 33.158884 
L 115.38 33.158884 
" clip-path="url(#pb5a6decbd3)" style="fill: none; stroke: #000000; stroke-width: 2; stroke-linecap: round"/>
   </g>
   <g id="line2d_3">
    <path d="M 115.38 33.158884 
L 115.38 60.158884 
L 115.38 87.158884 
" clip-path="url(#pb5a6decbd3)" style="fill: none; stroke: #000000; stroke-width: 2; stroke-linecap: round"/>
   </g>
   <g id="line2d_4">
    <path d="M 115.38 87.158884 
L 148.14 87.158884 
M 148.14 78.158884 
L 148.14 96.158884 
M 154.62 78.158884 
L 154.62 96.158884 
M 154.62 87.158884 
L 187.38 87.158884 
" clip-path="url(#pb5a6decbd3)" style="fill: none; stroke: #000000; stroke-width: 2; stroke-linecap: round"/>
   </g>
   <g id="line2d_5">
    <path d="M 187.38 87.158884 
L 187.38 60.158884 
L 187.38 33.158884 
" clip-path="url(#pb5a6decbd3)" style="fill: none; stroke: #000000; stroke-width: 2; stroke-linecap: round"/>
   </g>
   <g id="line2d_6">
    <path d="M 115.38 33.158884 
L 133.38 33.158884 
L 136.38 24.158884 
L 142.38 42.158884 
L 148.38 24.158884 
L 154.38 42.158884 
L 160.38 24.158884 
L 166.38 42.158884 
L 169.38 33.158884 
L 187.38 33.158884 
" clip-path="url(#pb5a6decbd3)" style="fill: none; stroke: #000000; stroke-width: 2; stroke-linecap: round"/>
   </g>
   <g id="line2d_7">
    <path d="M 187.38 33.158884 
L 196.38 33.158884 
L 205.38 33.158884 
" clip-path="url(#pb5a6decbd3)" style="fill: none; stroke: #000000; stroke-width: 2; stroke-linecap: round"/>
   </g>
   <g id="line2d_8">
    <path d="M 205.38 33.158884 
L 205.38 60.158884 
L 205.38 87.158884 
" clip-path="url(#pb5a6decbd3)" style="fill: none; stroke: #000000; stroke-width: 2; stroke-linecap: round"/>
   </g>
   <g id="line2d_9">
    <path d="M 205.38 87.158884 
L 238.14 87.158884 
M 238.14 78.158884 
L 238.14 96.158884 
M 244.62 78.158884 
L 244.62 96.158884 
M 244.62 87.158884 
L 277.38 87.158884 
" clip-path="url(#pb5a6decbd3)" style="fill: none; stroke: #000000; stroke-width: 2; stroke-linecap: round"/>
   </g>
   <g id="line2d_10">
    <path d="M 277.38 87.158884 
L 277.38 60.158884 
L 277.38 33.158884 
" clip-path="url(#pb5a6decbd3)" style="fill: none; stroke: #000000; stroke-width: 2; stroke-linecap: round"/>
   </g>
   <g id="line2d_11">
    <path d="M 205.38 33.158884 
L 223.38 33.158884 
L 226.38 24.158884 
L 232.38 42.158884 
L 238.38 24.158884 
L 244.38 42.158884 
L 250.38 24.158884 
L 256.38 42.158884 
L 259.38 33.158884 
L 277.38 33.158884 
" clip-path="url(#pb5a6decbd3)" style="fill: none; stroke: #000000; stroke-width: 2; stroke-linecap: round"/>
   </g>
   <g id="line2d_12">
    <path d="M 277.38 33.158884 
L 310.14 33.158884 
M 310.14 24.158884 
L 310.14 42.158884 
M 316.62 24.158884 
L 316.62 42.158884 
M 316.62 33.158884 
L 349.38 33.158884 
" clip-path="url(#pb5a6decbd3)" style="fill: none; stroke: #000000; stroke-width: 2; stroke-linecap: round"/>
   </g>
   <g id="line2d_13">
    <path d="M 349.38 33.158884 
L 367.38 33.158884 
L 367.51407 30.194698 
L 367.92176 27.203778 
L 368.594001 24.436968 
L 369.499538 22.126316 
L 370.024567 21.204576 
L 370.587547 20.465613 
L 371.179767 19.925003 
L 371.791902 19.594141 
L 372.414207 19.48 
L 373.03672 19.584987 
L 373.649478 19.906888 
L 374.242723 20.43892 
L 374.807106 21.169866 
L 375.333888 22.084321 
L 376.243825 24.383193 
L 376.921342 27.142734 
L 377.33474 30.131505 
L 377.474472 33.098842 
L 377.353942 35.795879 
L 377.008382 37.99642 
L 376.491898 39.515908 
L 376.190537 39.977873 
L 375.872928 40.226908 
L 375.548923 40.257763 
L 375.228509 40.069788 
L 374.921597 39.666945 
L 374.386292 38.25497 
L 374.013029 36.140259 
L 373.858236 33.500169 
L 373.960019 30.55612 
L 374.334963 27.555026 
L 374.976748 24.748584 
L 375.856671 22.372165 
L 376.371402 21.409391 
L 376.926057 20.625076 
L 377.512102 20.035753 
L 378.120342 19.653843 
L 378.741113 19.487397 
L 379.364487 19.539922 
L 379.980482 19.810312 
L 380.579271 20.292867 
L 381.15139 20.977416 
L 381.687935 21.84953 
L 382.622621 24.079355 
L 383.33006 26.795331 
L 383.776046 29.769673 
L 383.948297 32.752928 
L 383.85749 35.494894 
L 383.536365 37.765607 
L 383.036977 39.374626 
L 382.740936 39.886316 
L 382.426332 40.187005 
L 382.102952 40.270355 
L 381.780768 40.13461 
L 381.469731 39.782631 
L 381.179551 39.221836 
L 380.698228 37.525237 
L 380.402289 35.187103 
L 380.341678 32.403529 
L 380.546602 29.407971 
L 381.024998 26.451661 
L 381.761866 23.782539 
L 382.720531 21.624462 
L 383.266371 20.795746 
L 383.845713 20.158424 
L 384.449502 19.72593 
L 385.068169 19.507379 
L 385.691831 19.507379 
L 386.310498 19.72593 
L 386.914287 20.158424 
L 387.493629 20.795746 
L 388.039469 21.624462 
L 388.54346 22.627105 
L 389.397065 25.066412 
L 390.007979 27.909087 
L 390.350087 30.916719 
L 390.419821 33.837063 
L 390.236457 36.425193 
L 389.840496 38.464048 
L 389.290269 39.782631 
L 388.979232 40.13461 
L 388.657048 40.270355 
L 388.333668 40.187005 
L 388.019064 39.886316 
L 387.723023 39.374626 
L 387.223635 37.765607 
L 386.90251 35.494894 
L 386.811703 32.752928 
L 386.983954 29.769673 
L 387.42994 26.795331 
L 388.137379 24.079355 
L 389.072065 21.84953 
L 389.60861 20.977416 
L 390.180729 20.292867 
L 390.779518 19.810312 
L 391.395513 19.539922 
L 392.018887 19.487397 
L 392.639658 19.653843 
L 393.247898 20.035753 
L 393.833943 20.625076 
L 394.388598 21.409391 
L 394.903329 22.372165 
L 395.783252 24.748584 
L 396.425037 27.555026 
L 396.799981 30.55612 
L 396.901764 33.500169 
L 396.746971 36.140259 
L 396.373708 38.25497 
L 395.838403 39.666945 
L 395.531491 40.069788 
L 395.211077 40.257763 
L 394.887072 40.226908 
L 394.569463 39.977873 
L 394.268102 39.515908 
L 393.751618 37.99642 
L 393.406058 35.795879 
L 393.285528 33.098842 
L 393.42526 30.131505 
L 393.838658 27.142734 
L 394.516175 24.383193 
L 395.426112 22.084321 
L 395.952894 21.169866 
L 396.517277 20.43892 
L 397.110522 19.906888 
L 397.72328 19.584987 
L 398.345793 19.48 
L 398.968098 19.594141 
L 399.580233 19.925003 
L 400.172453 20.465613 
L 400.735433 21.204576 
L 401.260462 22.126316 
L 402.165999 24.436968 
L 402.83824 27.203778 
L 403.24593 30.194698 
L 403.38 33.158884 
L 421.38 33.158884 
L 421.38 33.158884 
" clip-path="url(#pb5a6decbd3)" style="fill: none; stroke: #000000; stroke-width: 2; stroke-linecap: round"/>
   </g>
   <g id="line2d_14">
    <path d="M 421.38 33.158884 
L 439.38 33.158884 
L 457.38 33.158884 
" clip-path="url(#pb5a6decbd3)" style="fill: none; stroke: #000000; stroke-width: 2; stroke-linecap: round"/>
   </g>
   <g id="text_1">
    <!-- $R_{\rm ser}$ -->
    <g transform="translate(66.71 17.647322) scale(0.14 -0.14)">
     <defs>
      <path id="DejaVuSans-Oblique-52" d="M 1613 4147 
L 1294 2491 
L 2106 2491 
Q 2584 2491 2879 2755 
Q 3175 3019 3175 3444 
Q 3175 3784 2976 3965 
Q 2778 4147 2406 4147 
L 1613 4147 
z
M 2772 2241 
Q 2972 2194 3105 2009 
Q 3238 1825 3413 1275 
L 3809 0 
L 3144 0 
L 2778 1197 
Q 2638 1659 2453 1815 
Q 2269 1972 1888 1972 
L 1191 1972 
L 806 0 
L 172 0 
L 1081 4666 
L 2503 4666 
Q 3150 4666 3495 4373 
Q 3841 4081 3841 3531 
Q 3841 3044 3547 2687 
Q 3253 2331 2772 2241 
z
" transform="scale(0.015625)"/>
      <path id="DejaVuSans-73" d="M 2834 3397 
L 2834 2853 
Q 2591 2978 2328 3040 
Q 2066 3103 1784 3103 
Q 1356 3103 1142 2972 
Q 928 2841 928 2578 
Q 928 2378 1081 2264 
Q 1234 2150 1697 2047 
L 1894 2003 
Q 2506 1872 2764 1633 
Q 3022 1394 3022 966 
Q 3022 478 2636 193 
Q 2250 -91 1575 -91 
Q 1294 -91 989 -36 
Q 684 19 347 128 
L 347 722 
Q 666 556 975 473 
Q 1284 391 1588 391 
Q 1994 391 2212 530 
Q 2431 669 2431 922 
Q 2431 1156 2273 1281 
Q 2116 1406 1581 1522 
L 1381 1569 
Q 847 1681 609 1914 
Q 372 2147 372 2553 
Q 372 3047 722 3315 
Q 1072 3584 1716 3584 
Q 2034 3584 2315 3537 
Q 2597 3491 2834 3397 
z
" transform="scale(0.015625)"/>
      <path id="DejaVuSans-65" d="M 3597 1894 
L 3597 1613 
L 953 1613 
Q 991 1019 1311 708 
Q 1631 397 2203 397 
Q 2534 397 2845 478 
Q 3156 559 3463 722 
L 3463 178 
Q 3153 47 2828 -22 
Q 2503 -91 2169 -91 
Q 1331 -91 842 396 
Q 353 884 353 1716 
Q 353 2575 817 3079 
Q 1281 3584 2069 3584 
Q 2775 3584 3186 3129 
Q 3597 2675 3597 1894 
z
M 3022 2063 
Q 3016 2534 2758 2815 
Q 2500 3097 2075 3097 
Q 1594 3097 1305 2825 
Q 1016 2553 972 2059 
L 3022 2063 
z
" transform="scale(0.015625)"/>
      <path id="DejaVuSans-72" d="M 2631 2963 
Q 2534 3019 2420 3045 
Q 2306 3072 2169 3072 
Q 1681 3072 1420 2755 
Q 1159 2438 1159 1844 
L 1159 0 
L 581 0 
L 581 3500 
L 1159 3500 
L 1159 2956 
Q 1341 3275 1631 3429 
Q 1922 3584 2338 3584 
Q 2397 3584 2469 3576 
Q 2541 3569 2628 3553 
L 2631 2963 
z
" transform="scale(0.015625)"/>
     </defs>
     <use xlink:href="#DejaVuSans-Oblique-52" transform="translate(0 0.09375)"/>
     <use xlink:href="#DejaVuSans-73" transform="translate(69.482422 -16.3125) scale(0.7)"/>
     <use xlink:href="#DejaVuSans-65" transform="translate(105.952148 -16.3125) scale(0.7)"/>
     <use xlink:href="#DejaVuSans-72" transform="translate(149.018555 -16.3125) scale(0.7)"/>
    </g>
   </g>
   <g id="text_2">
    <!-- $C_1$ -->
    <g transform="translate(143.12 71.647322) scale(0.14 -0.14)">
     <defs>
      <path id="DejaVuSans-Oblique-43" d="M 4447 4306 
L 4319 3641 
Q 4019 3944 3683 4091 
Q 3347 4238 2956 4238 
Q 2422 4238 2017 3981 
Q 1613 3725 1319 3200 
Q 1131 2863 1032 2486 
Q 934 2109 934 1728 
Q 934 1091 1264 756 
Q 1594 422 2222 422 
Q 2656 422 3056 561 
Q 3456 700 3834 978 
L 3688 231 
Q 3316 72 2936 -9 
Q 2556 -91 2175 -91 
Q 1278 -91 773 396 
Q 269 884 269 1753 
Q 269 2309 461 2846 
Q 653 3384 1013 3828 
Q 1394 4300 1883 4525 
Q 2372 4750 3022 4750 
Q 3422 4750 3780 4639 
Q 4138 4528 4447 4306 
z
" transform="scale(0.015625)"/>
      <path id="DejaVuSans-31" d="M 794 531 
L 1825 531 
L 1825 4091 
L 703 3866 
L 703 4441 
L 1819 4666 
L 2450 4666 
L 2450 531 
L 3481 531 
L 3481 0 
L 794 0 
L 794 531 
z
" transform="scale(0.015625)"/>
     </defs>
     <use xlink:href="#DejaVuSans-Oblique-43" transform="translate(0 0.78125)"/>
     <use xlink:href="#DejaVuSans-31" transform="translate(69.824219 -15.625) scale(0.7)"/>
    </g>
   </g>
   <g id="text_3">
    <!-- $R_1$ -->
    <g transform="translate(143.19 17.647322) scale(0.14 -0.14)">
     <use xlink:href="#DejaVuSans-Oblique-52" transform="translate(0 0.09375)"/>
     <use xlink:href="#DejaVuSans-31" transform="translate(69.482422 -16.3125) scale(0.7)"/>
    </g>
   </g>
   <g id="text_4">
    <!-- $C_k$ -->
    <g transform="translate(233.4 71.647322) scale(0.14 -0.14)">
     <defs>
      <path id="DejaVuSans-Oblique-6b" d="M 1172 4863 
L 1747 4863 
L 1197 2028 
L 3169 3500 
L 3916 3500 
L 1716 1825 
L 3322 0 
L 2625 0 
L 1131 1709 
L 800 0 
L 225 0 
L 1172 4863 
z
" transform="scale(0.015625)"/>
     </defs>
     <use xlink:href="#DejaVuSans-Oblique-43" transform="translate(0 0.78125)"/>
     <use xlink:href="#DejaVuSans-Oblique-6b" transform="translate(69.824219 -15.625) scale(0.7)"/>
    </g>
   </g>
   <g id="text_5">
    <!-- $R_k$ -->
    <g transform="translate(233.47 17.647322) scale(0.14 -0.14)">
     <use xlink:href="#DejaVuSans-Oblique-52" transform="translate(0 0.09375)"/>
     <use xlink:href="#DejaVuSans-Oblique-6b" transform="translate(69.482422 -16.3125) scale(0.7)"/>
    </g>
   </g>
   <g id="text_6">
    <!-- $C_{\rm ser}$ -->
    <g transform="translate(300.71 17.647322) scale(0.14 -0.14)">
     <use xlink:href="#DejaVuSans-Oblique-43" transform="translate(0 0.78125)"/>
     <use xlink:href="#DejaVuSans-73" transform="translate(69.824219 -15.625) scale(0.7)"/>
     <use xlink:href="#DejaVuSans-65" transform="translate(106.293945 -15.625) scale(0.7)"/>
     <use xlink:href="#DejaVuSans-72" transform="translate(149.360352 -15.625) scale(0.7)"/>
    </g>
   </g>
   <g id="text_7">
    <!-- $L_{\rm ser}$ -->
    <g transform="translate(373.69 12.968437) scale(0.14 -0.14)">
     <defs>
      <path id="DejaVuSans-Oblique-4c" d="M 1075 4666 
L 1709 4666 
L 909 525 
L 3181 525 
L 3078 0 
L 172 0 
L 1075 4666 
z
" transform="scale(0.015625)"/>
     </defs>
     <use xlink:href="#DejaVuSans-Oblique-4c" transform="translate(0 0.09375)"/>
     <use xlink:href="#DejaVuSans-73" transform="translate(55.712891 -16.3125) scale(0.7)"/>
     <use xlink:href="#DejaVuSans-65" transform="translate(92.182617 -16.3125) scale(0.7)"/>
     <use xlink:href="#DejaVuSans-72" transform="translate(135.249023 -16.3125) scale(0.7)"/>
    </g>
   </g>
   <g id="patch_2">
    <path d="M 7.38 35.858884 
C 8.096048 35.858884 8.782866 35.574395 9.289188 35.068073 
C 9.795511 34.56175 10.08 33.874933 10.08 33.158884 
C 10.08 32.442836 9.795511 31.756019 9.289188 31.249696 
C 8.782866 30.743374 8.096048 30.458884 7.38 30.458884 
C 6.663952 30.458884 5.977134 30.743374 5.470812 31.249696 
C 4.964489 31.756019 4.68 32.442836 4.68 33.158884 
C 4.68 33.874933 4.964489 34.56175 5.470812 35.068073 
C 5.977134 35.574395 6.663952 35.858884 7.38 35.858884 
z
" clip-path="url(#pb5a6decbd3)" style="fill: #ffffff; stroke: #000000; stroke-width: 2; stroke-linejoin: miter"/>
   </g>
   <g id="patch_3">
    <path d="M 457.38 35.858884 
C 458.096048 35.858884 458.782866 35.574395 459.289188 35.068073 
C 459.795511 34.56175 460.08 33.874933 460.08 33.158884 
C 460.08 32.442836 459.795511 31.756019 459.289188 31.249696 
C 458.782866 30.743374 458.096048 30.458884 457.38 30.458884 
C 456.663952 30.458884 455.977134 30.743374 455.470812 31.249696 
C 454.964489 31.756019 454.68 32.442836 454.68 33.158884 
C 454.68 33.874933 454.964489 34.56175 455.470812 35.068073 
C 455.977134 35.574395 456.663952 35.858884 457.38 35.858884 
z
" clip-path="url(#pb5a6decbd3)" style="fill: #ffffff; stroke: #000000; stroke-width: 2; stroke-linejoin: miter"/>
   </g>
  </g>
 </g>
 <defs>
  <clipPath id="pb5a6decbd3">
   <rect x="0" y="0" width="464.76" height="100.838884"/>
  </clipPath>
 </defs>
</svg>
