<?xml version="1.0" encoding="utf-8" standalone="no"?>
<!DOCTYPE svg PUBLIC "-//W3C//DTD SVG 1.1//EN"
  "http://www.w3.org/Graphics/SVG/1.1/DTD/svg11.dtd">
<svg xmlns:xlink="http://www.w3.org/1999/xlink" width="410.76pt" height="96.16pt" viewBox="0 0 410.76 96.16" xmlns="http://www.w3.org/2000/svg" version="1.1">
 <metadata>
  <rdf:RDF xmlns:dc="http://purl.org/dc/elements/1.1/" xmlns:cc="http://creativecommons.org/ns#" xmlns:rdf="http://www.w3.org/1999/02/22-rdf-syntax-ns#">
   <cc:Work>
    <dc:type rdf:resource="http://purl.org/dc/dcmitype/StillImage"/>
    <dc:date>2025-03-02T11:09:48.928614</dc:date>
    <dc:format>image/svg+xml</dc:format>
    <dc:creator>
     <cc:Agent>
      <dc:title>Matplotlib v3.10.1, https://matplotlib.org/</dc:title>
     </cc:Agent>
    </dc:creator>
   </cc:Work>
  </rdf:RDF>
 </metadata>
 <defs>
  <style type="text/css">*{stroke-linejoin: round; stroke-linecap: butt}</style>
 </defs>
 <g id="figure_1">
  <g id="patch_1">
   <path d="M 0 96.16 
L 410.76 96.16 
L 410.76 0 
L 0 0 
L 0 96.16 
z
" style="fill: none"/>
  </g>
  <g id="axes_1">
   <g id="line2d_1">
    <path d="M 7.38 28.48 
L 25.38 28.48 
L 43.38 28.48 
" clip-path="url(#pa695e6e9ef)" style="fill: none; stroke: #000000; stroke-width: 2; stroke-linecap: round"/>
   </g>
   <g id="line2d_2">
    <path d="M 43.38 28.48 
L 61.38 28.48 
L 64.38 19.48 
L 70.38 37.48 
L 76.38 19.48 
L 82.38 37.48 
L 88.38 19.48 
L 94.38 37.48 
L 97.38 28.48 
L 115.38 28.48 
" clip-path="url(#pa695e6e9ef)" style="fill: none; stroke: #000000; stroke-width: 2; stroke-linecap: round"/>
   </g>
   <g id="line2d_3">
    <path d="M 115.38 28.48 
L 115.38 55.48 
L 115.38 82.48 
" clip-path="url(#pa695e6e9ef)" style="fill: none; stroke: #000000; stroke-width: 2; stroke-linecap: round"/>
   </g>
   <g id="line2d_4">
    <path d="M 115.38 82.48 
L 148.14 82.48 
M 148.14 73.48 
L 148.14 91.48 
M 154.62 73.48 
L 154.62 91.48 
M 154.62 82.48 
L 187.38 82.48 
" clip-path="url(#pa695e6e9ef)" style="fill: none; stroke: #000000; stroke-width: 2; stroke-linecap: round"/>
   </g>
   <g id="line2d_5">
    <path d="M 187.38 82.48 
L 187.38 55.48 
L 187.38 28.48 
" clip-path="url(#pa695e6e9ef)" style="fill: none; stroke: #000000; stroke-width: 2; stroke-linecap: round"/>
   </g>
   <g id="line2d_6">
    <path d="M 115.38 28.48 
L 133.38 28.48 
L 136.38 19.48 
L 142.38 37.48 
L 148.38 19.48 
L 154.38 37.48 
L 160.38 19.48 
L 166.38 37.48 
L 169.38 28.48 
L 187.38 28.48 
" clip-path="url(#pa695e6e9ef)" style="fill: none; stroke: #000000; stroke-width: 2; stroke-linecap: round"/>
   </g>
   <g id="line2d_7">
    <path d="M 187.38 28.48 
L 196.38 28.48 
L 205.38 28.48 
" clip-path="url(#pa695e6e9ef)" style="fill: none; stroke: #000000; stroke-width: 2; stroke-linecap: round"/>
   </g>
   <g id="line2d_8">
    <path d="M 205.38 28.48 
L 205.38 55.48 
L 205.38 82.48 
" clip-path="url(#pa695e6e9ef)" style="fill: none; stroke: #000000; stroke-width: 2; stroke-linecap: round"/>
   </g>
   <g id="line2d_9">
    <path d="M 205.38 82.48 
L 238.14 82.48 
M 238.14 73.48 
L 238.14 91.48 
M 244.62 73.48 
L 244.62 91.48 
M 244.62 82.48 
L 277.38 82.48 
" clip-path="url(#pa695e6e9ef)" style="fill: none; stroke: #000000; stroke-width: 2; stroke-linecap: round"/>
   </g>
   <g id="line2d_10">
    <path d="M 277.38 82.48 
L 277.38 55.48 
L 277.38 28.48 
" clip-path="url(#pa695e6e9ef)" style="fill: none; stroke: #000000; stroke-width: 2; stroke-linecap: round"/>
   </g>
   <g id="line2d_11">
    <path d="M 205.38 28.48 
L 223.38 28.48 
L 226.38 19.48 
L 232.38 37.48 
L 238.38 19.48 
L 244.38 37.48 
L 250.38 19.48 
L 256.38 37.48 
L 259.38 28.48 
L 277.38 28.48 
" clip-path="url(#pa695e6e9ef)" style="fill: none; stroke: #000000; stroke-width: 2; stroke-linecap: round"/>
   </g>
   <g id="line2d_12">
    <path d="M 277.38 28.48 
L 286.38 28.48 
L 295.38 28.48 
" clip-path="url(#pa695e6e9ef)" style="fill: none; stroke: #000000; stroke-width: 2; stroke-linecap: round"/>
   </g>
   <g id="line2d_13">
    <path d="M 295.38 28.48 
L 295.38 55.48 
L 295.38 82.48 
" clip-path="url(#pa695e6e9ef)" style="fill: none; stroke: #000000; stroke-width: 2; stroke-linecap: round"/>
   </g>
   <g id="line2d_14">
    <path d="M 295.38 82.48 
L 313.38 82.48 
L 313.51407 79.515813 
L 313.92176 76.524893 
L 314.594001 73.758083 
L 315.499538 71.447432 
L 316.024567 70.525692 
L 316.587547 69.786729 
L 317.179767 69.246119 
L 317.791902 68.915256 
L 318.414207 68.801116 
L 319.03672 68.906102 
L 319.649478 69.228004 
L 320.242723 69.760035 
L 320.807106 70.490982 
L 321.333888 71.405436 
L 322.243825 73.704309 
L 322.921342 76.46385 
L 323.33474 79.45262 
L 323.474472 82.419957 
L 323.353942 85.116994 
L 323.008382 87.317535 
L 322.491898 88.837024 
L 322.190537 89.298989 
L 321.872928 89.548023 
L 321.548923 89.578878 
L 321.228509 89.390903 
L 320.921597 88.98806 
L 320.386292 87.576085 
L 320.013029 85.461374 
L 319.858236 82.821284 
L 319.960019 79.877236 
L 320.334963 76.876142 
L 320.976748 74.0697 
L 321.856671 71.693281 
L 322.371402 70.730506 
L 322.926057 69.946192 
L 323.512102 69.356869 
L 324.120342 68.974959 
L 324.741113 68.808513 
L 325.364487 68.861038 
L 325.980482 69.131428 
L 326.579271 69.613983 
L 327.15139 70.298532 
L 327.687935 71.170645 
L 328.622621 73.400471 
L 329.33006 76.116447 
L 329.776046 79.090789 
L 329.948297 82.074044 
L 329.85749 84.81601 
L 329.536365 87.086723 
L 329.036977 88.695742 
L 328.740936 89.207431 
L 328.426332 89.50812 
L 328.102952 89.591471 
L 327.780768 89.455725 
L 327.469731 89.103746 
L 327.179551 88.542952 
L 326.698228 86.846352 
L 326.402289 84.508218 
L 326.341678 81.724645 
L 326.546602 78.729087 
L 327.024998 75.772776 
L 327.761866 73.103655 
L 328.720531 70.945578 
L 329.266371 70.116862 
L 329.845713 69.47954 
L 330.449502 69.047045 
L 331.068169 68.828495 
L 331.691831 68.828495 
L 332.310498 69.047045 
L 332.914287 69.47954 
L 333.493629 70.116862 
L 334.039469 70.945578 
L 334.54346 71.94822 
L 335.397065 74.387527 
L 336.007979 77.230202 
L 336.350087 80.237835 
L 336.419821 83.158178 
L 336.236457 85.746309 
L 335.840496 87.785163 
L 335.290269 89.103746 
L 334.979232 89.455725 
L 334.657048 89.591471 
L 334.333668 89.50812 
L 334.019064 89.207431 
L 333.723023 88.695742 
L 333.223635 87.086723 
L 332.90251 84.81601 
L 332.811703 82.074044 
L 332.983954 79.090789 
L 333.42994 76.116447 
L 334.137379 73.400471 
L 335.072065 71.170645 
L 335.60861 70.298532 
L 336.180729 69.613983 
L 336.779518 69.131428 
L 337.395513 68.861038 
L 338.018887 68.808513 
L 338.639658 68.974959 
L 339.247898 69.356869 
L 339.833943 69.946192 
L 340.388598 70.730506 
L 340.903329 71.693281 
L 341.783252 74.0697 
L 342.425037 76.876142 
L 342.799981 79.877236 
L 342.901764 82.821284 
L 342.746971 85.461374 
L 342.373708 87.576085 
L 341.838403 88.98806 
L 341.531491 89.390903 
L 341.211077 89.578878 
L 340.887072 89.548023 
L 340.569463 89.298989 
L 340.268102 88.837024 
L 339.751618 87.317535 
L 339.406058 85.116994 
L 339.285528 82.419957 
L 339.42526 79.45262 
L 339.838658 76.46385 
L 340.516175 73.704309 
L 341.426112 71.405436 
L 341.952894 70.490982 
L 342.517277 69.760035 
L 343.110522 69.228004 
L 343.72328 68.906102 
L 344.345793 68.801116 
L 344.968098 68.915256 
L 345.580233 69.246119 
L 346.172453 69.786729 
L 346.735433 70.525692 
L 347.260462 71.447432 
L 348.165999 73.758083 
L 348.83824 76.524893 
L 349.24593 79.515813 
L 349.38 82.48 
L 367.38 82.48 
L 367.38 82.48 
" clip-path="url(#pa695e6e9ef)" style="fill: none; stroke: #000000; stroke-width: 2; stroke-linecap: round"/>
   </g>
   <g id="line2d_15">
    <path d="M 367.38 82.48 
L 367.38 55.48 
L 367.38 28.48 
" clip-path="url(#pa695e6e9ef)" style="fill: none; stroke: #000000; stroke-width: 2; stroke-linecap: round"/>
   </g>
   <g id="line2d_16">
    <path d="M 295.38 28.48 
L 313.38 28.48 
L 316.38 19.48 
L 322.38 37.48 
L 328.38 19.48 
L 334.38 37.48 
L 340.38 19.48 
L 346.38 37.48 
L 349.38 28.48 
L 367.38 28.48 
" clip-path="url(#pa695e6e9ef)" style="fill: none; stroke: #000000; stroke-width: 2; stroke-linecap: round"/>
   </g>
   <g id="line2d_17">
    <path d="M 367.38 28.48 
L 385.38 28.48 
L 403.38 28.48 
" clip-path="url(#pa695e6e9ef)" style="fill: none; stroke: #000000; stroke-width: 2; stroke-linecap: round"/>
   </g>
   <g id="text_1">
    <!-- $R_{\rm 1}$ -->
    <g transform="translate(71.19 12.968438) scale(0.14 -0.14)">
     <defs>
      <path id="DejaVuSans-Oblique-52" d="M 1613 4147 
L 1294 2491 
L 2106 2491 
Q 2584 2491 2879 2755 
Q 3175 3019 3175 3444 
Q 3175 3784 2976 3965 
Q 2778 4147 2406 4147 
L 1613 4147 
z
M 2772 2241 
Q 2972 2194 3105 2009 
Q 3238 1825 3413 1275 
L 3809 0 
L 3144 0 
L 2778 1197 
Q 2638 1659 2453 1815 
Q 2269 1972 1888 1972 
L 1191 1972 
L 806 0 
L 172 0 
L 1081 4666 
L 2503 4666 
Q 3150 4666 3495 4373 
Q 3841 4081 3841 3531 
Q 3841 3044 3547 2687 
Q 3253 2331 2772 2241 
z
" transform="scale(0.015625)"/>
      <path id="DejaVuSans-31" d="M 794 531 
L 1825 531 
L 1825 4091 
L 703 3866 
L 703 4441 
L 1819 4666 
L 2450 4666 
L 2450 531 
L 3481 531 
L 3481 0 
L 794 0 
L 794 531 
z
" transform="scale(0.015625)"/>
     </defs>
     <use xlink:href="#DejaVuSans-Oblique-52" transform="translate(0 0.09375)"/>
     <use xlink:href="#DejaVuSans-31" transform="translate(69.482422 -16.3125) scale(0.7)"/>
    </g>
   </g>
   <g id="text_2">
    <!-- $C_{\rm 1}$ -->
    <g transform="translate(143.12 66.968437) scale(0.14 -0.14)">
     <defs>
      <path id="DejaVuSans-Oblique-43" d="M 4447 4306 
L 4319 3641 
Q 4019 3944 3683 4091 
Q 3347 4238 2956 4238 
Q 2422 4238 2017 3981 
Q 1613 3725 1319 3200 
Q 1131 2863 1032 2486 
Q 934 2109 934 1728 
Q 934 1091 1264 756 
Q 1594 422 2222 422 
Q 2656 422 3056 561 
Q 3456 700 3834 978 
L 3688 231 
Q 3316 72 2936 -9 
Q 2556 -91 2175 -91 
Q 1278 -91 773 396 
Q 269 884 269 1753 
Q 269 2309 461 2846 
Q 653 3384 1013 3828 
Q 1394 4300 1883 4525 
Q 2372 4750 3022 4750 
Q 3422 4750 3780 4639 
Q 4138 4528 4447 4306 
z
" transform="scale(0.015625)"/>
     </defs>
     <use xlink:href="#DejaVuSans-Oblique-43" transform="translate(0 0.78125)"/>
     <use xlink:href="#DejaVuSans-31" transform="translate(69.824219 -15.625) scale(0.7)"/>
    </g>
   </g>
   <g id="text_3">
    <!-- $R_{\rm 2}$ -->
    <g transform="translate(143.19 12.968438) scale(0.14 -0.14)">
     <defs>
      <path id="DejaVuSans-32" d="M 1228 531 
L 3431 531 
L 3431 0 
L 469 0 
L 469 531 
Q 828 903 1448 1529 
Q 2069 2156 2228 2338 
Q 2531 2678 2651 2914 
Q 2772 3150 2772 3378 
Q 2772 3750 2511 3984 
Q 2250 4219 1831 4219 
Q 1534 4219 1204 4116 
Q 875 4013 500 3803 
L 500 4441 
Q 881 4594 1212 4672 
Q 1544 4750 1819 4750 
Q 2544 4750 2975 4387 
Q 3406 4025 3406 3419 
Q 3406 3131 3298 2873 
Q 3191 2616 2906 2266 
Q 2828 2175 2409 1742 
Q 1991 1309 1228 531 
z
" transform="scale(0.015625)"/>
     </defs>
     <use xlink:href="#DejaVuSans-Oblique-52" transform="translate(0 0.09375)"/>
     <use xlink:href="#DejaVuSans-32" transform="translate(69.482422 -16.3125) scale(0.7)"/>
    </g>
   </g>
   <g id="text_4">
    <!-- $C_{\rm 2}$ -->
    <g transform="translate(233.12 66.968437) scale(0.14 -0.14)">
     <use xlink:href="#DejaVuSans-Oblique-43" transform="translate(0 0.78125)"/>
     <use xlink:href="#DejaVuSans-32" transform="translate(69.824219 -15.625) scale(0.7)"/>
    </g>
   </g>
   <g id="text_5">
    <!-- $R_{\rm 3}$ -->
    <g transform="translate(233.19 12.968438) scale(0.14 -0.14)">
     <defs>
      <path id="DejaVuSans-33" d="M 2597 2516 
Q 3050 2419 3304 2112 
Q 3559 1806 3559 1356 
Q 3559 666 3084 287 
Q 2609 -91 1734 -91 
Q 1441 -91 1130 -33 
Q 819 25 488 141 
L 488 750 
Q 750 597 1062 519 
Q 1375 441 1716 441 
Q 2309 441 2620 675 
Q 2931 909 2931 1356 
Q 2931 1769 2642 2001 
Q 2353 2234 1838 2234 
L 1294 2234 
L 1294 2753 
L 1863 2753 
Q 2328 2753 2575 2939 
Q 2822 3125 2822 3475 
Q 2822 3834 2567 4026 
Q 2313 4219 1838 4219 
Q 1578 4219 1281 4162 
Q 984 4106 628 3988 
L 628 4550 
Q 988 4650 1302 4700 
Q 1616 4750 1894 4750 
Q 2613 4750 3031 4423 
Q 3450 4097 3450 3541 
Q 3450 3153 3228 2886 
Q 3006 2619 2597 2516 
z
" transform="scale(0.015625)"/>
     </defs>
     <use xlink:href="#DejaVuSans-Oblique-52" transform="translate(0 0.09375)"/>
     <use xlink:href="#DejaVuSans-33" transform="translate(69.482422 -16.3125) scale(0.7)"/>
    </g>
   </g>
   <g id="text_6">
    <!-- $L_{\rm 1}$ -->
    <g transform="translate(324.17 62.289553) scale(0.14 -0.14)">
     <defs>
      <path id="DejaVuSans-Oblique-4c" d="M 1075 4666 
L 1709 4666 
L 909 525 
L 3181 525 
L 3078 0 
L 172 0 
L 1075 4666 
z
" transform="scale(0.015625)"/>
     </defs>
     <use xlink:href="#DejaVuSans-Oblique-4c" transform="translate(0 0.09375)"/>
     <use xlink:href="#DejaVuSans-31" transform="translate(55.712891 -16.3125) scale(0.7)"/>
    </g>
   </g>
   <g id="text_7">
    <!-- $R_{\rm 4}$ -->
    <g transform="translate(323.19 12.968438) scale(0.14 -0.14)">
     <defs>
      <path id="DejaVuSans-34" d="M 2419 4116 
L 825 1625 
L 2419 1625 
L 2419 4116 
z
M 2253 4666 
L 3047 4666 
L 3047 1625 
L 3713 1625 
L 3713 1100 
L 3047 1100 
L 3047 0 
L 2419 0 
L 2419 1100 
L 313 1100 
L 313 1709 
L 2253 4666 
z
" transform="scale(0.015625)"/>
     </defs>
     <use xlink:href="#DejaVuSans-Oblique-52" transform="translate(0 0.09375)"/>
     <use xlink:href="#DejaVuSans-34" transform="translate(69.482422 -16.3125) scale(0.7)"/>
    </g>
   </g>
   <g id="patch_2">
    <path d="M 7.38 31.18 
C 8.096048 31.18 8.782866 30.895511 9.289188 30.389188 
C 9.795511 29.882866 10.08 29.196048 10.08 28.48 
C 10.08 27.763952 9.795511 27.077134 9.289188 26.570812 
C 8.782866 26.064489 8.096048 25.78 7.38 25.78 
C 6.663952 25.78 5.977134 26.064489 5.470812 26.570812 
C 4.964489 27.077134 4.68 27.763952 4.68 28.48 
C 4.68 29.196048 4.964489 29.882866 5.470812 30.389188 
C 5.977134 30.895511 6.663952 31.18 7.38 31.18 
z
" clip-path="url(#pa695e6e9ef)" style="fill: #ffffff; stroke: #000000; stroke-width: 2; stroke-linejoin: miter"/>
   </g>
   <g id="patch_3">
    <path d="M 403.38 31.18 
C 404.096048 31.18 404.782866 30.895511 405.289188 30.389188 
C 405.795511 29.882866 406.08 29.196048 406.08 28.48 
C 406.08 27.763952 405.795511 27.077134 405.289188 26.570812 
C 404.782866 26.064489 404.096048 25.78 403.38 25.78 
C 402.663952 25.78 401.977134 26.064489 401.470812 26.570812 
C 400.964489 27.077134 400.68 27.763952 400.68 28.48 
C 400.68 29.196048 400.964489 29.882866 401.470812 30.389188 
C 401.977134 30.895511 402.663952 31.18 403.38 31.18 
z
" clip-path="url(#pa695e6e9ef)" style="fill: #ffffff; stroke: #000000; stroke-width: 2; stroke-linejoin: miter"/>
   </g>
  </g>
 </g>
 <defs>
  <clipPath id="pa695e6e9ef">
   <rect x="0" y="0" width="410.76" height="96.16"/>
  </clipPath>
 </defs>
</svg>
