<?xml version="1.0" encoding="utf-8" standalone="no"?>
<!DOCTYPE svg PUBLIC "-//W3C//DTD SVG 1.1//EN"
  "http://www.w3.org/Graphics/SVG/1.1/DTD/svg11.dtd">
<svg xmlns:xlink="http://www.w3.org/1999/xlink" width="302.76pt" height="98.96pt" viewBox="0 0 302.76 98.96" xmlns="http://www.w3.org/2000/svg" version="1.1">
 <metadata>
  <rdf:RDF xmlns:dc="http://purl.org/dc/elements/1.1/" xmlns:cc="http://creativecommons.org/ns#" xmlns:rdf="http://www.w3.org/1999/02/22-rdf-syntax-ns#">
   <cc:Work>
    <dc:type rdf:resource="http://purl.org/dc/dcmitype/StillImage"/>
    <dc:date>2026-04-12T12:05:39.820373</dc:date>
    <dc:format>image/svg+xml</dc:format>
    <dc:creator>
     <cc:Agent>
      <dc:title>Matplotlib v3.10.8, https://matplotlib.org/</dc:title>
     </cc:Agent>
    </dc:creator>
   </cc:Work>
  </rdf:RDF>
 </metadata>
 <defs>
  <style type="text/css">*{stroke-linejoin: round; stroke-linecap: butt}</style>
 </defs>
 <g id="figure_1">
  <g id="patch_1">
   <path d="M 0 98.96 
L 302.76 98.96 
L 302.76 0 
L 0 0 
L 0 98.96 
z
" style="fill: none"/>
  </g>
  <g id="axes_1">
   <g id="line2d_1">
    <path d="M 7.38 31.28 
L 25.38 31.28 
L 43.38 31.28 
" clip-path="url(#pd27c5a84cb)" style="fill: none; stroke: #000000; stroke-width: 2; stroke-linecap: round"/>
   </g>
   <g id="line2d_2">
    <path d="M 43.38 31.28 
L 61.38 31.28 
L 64.38 22.28 
L 70.38 40.28 
L 76.38 22.28 
L 82.38 40.28 
L 88.38 22.28 
L 94.38 40.28 
L 97.38 31.28 
L 115.38 31.28 
" clip-path="url(#pd27c5a84cb)" style="fill: none; stroke: #000000; stroke-width: 2; stroke-linecap: round"/>
   </g>
   <g id="line2d_3">
    <path d="M 115.38 31.28 
L 115.38 58.28 
L 115.38 85.28 
" clip-path="url(#pd27c5a84cb)" style="fill: none; stroke: #000000; stroke-width: 2; stroke-linecap: round"/>
   </g>
   <g id="line2d_4">
    <path d="M 115.38 85.28 
L 133.38 85.28 
L 136.38 76.28 
L 142.38 94.28 
L 148.38 76.28 
L 154.38 94.28 
L 160.38 76.28 
L 166.38 94.28 
L 169.38 85.28 
L 187.38 85.28 
" clip-path="url(#pd27c5a84cb)" style="fill: none; stroke: #000000; stroke-width: 2; stroke-linecap: round"/>
   </g>
   <g id="line2d_5">
    <path d="M 187.38 85.28 
L 205.38 85.28 
L 205.38 76.28 
L 241.38 76.28 
L 241.38 94.28 
L 205.38 94.28 
L 205.38 85.28 
M 241.38 85.28 
L 259.38 85.28 
" clip-path="url(#pd27c5a84cb)" style="fill: none; stroke: #000000; stroke-width: 2; stroke-linecap: round"/>
   </g>
   <g id="line2d_6">
    <path d="M 259.38 85.28 
L 259.38 58.28 
L 259.38 31.28 
" clip-path="url(#pd27c5a84cb)" style="fill: none; stroke: #000000; stroke-width: 2; stroke-linecap: round"/>
   </g>
   <g id="line2d_7">
    <path d="M 115.38 31.28 
L 148.14 31.28 
M 148.14 22.28 
L 148.14 40.28 
M 154.62 22.28 
L 154.62 40.28 
M 154.62 31.28 
L 187.38 31.28 
" clip-path="url(#pd27c5a84cb)" style="fill: none; stroke: #000000; stroke-width: 2; stroke-linecap: round"/>
   </g>
   <g id="line2d_8">
    <path d="M 187.38 31.28 
L 223.38 31.28 
L 259.38 31.28 
" clip-path="url(#pd27c5a84cb)" style="fill: none; stroke: #000000; stroke-width: 2; stroke-linecap: round"/>
   </g>
   <g id="line2d_9">
    <path d="M 259.38 31.28 
L 277.38 31.28 
L 295.38 31.28 
" clip-path="url(#pd27c5a84cb)" style="fill: none; stroke: #000000; stroke-width: 2; stroke-linecap: round"/>
   </g>
   <g id="text_1">
    <!-- $R_{\rm 1}$ -->
    <g transform="translate(71.19 15.768438) scale(0.14 -0.14)">
     <defs>
      <path id="DejaVuSans-Oblique-52" d="M 1613 4147 
L 1294 2491 
L 2106 2491 
Q 2584 2491 2879 2755 
Q 3175 3019 3175 3444 
Q 3175 3784 2976 3965 
Q 2778 4147 2406 4147 
L 1613 4147 
z
M 2772 2241 
Q 2972 2194 3105 2009 
Q 3238 1825 3413 1275 
L 3809 0 
L 3144 0 
L 2778 1197 
Q 2638 1659 2453 1815 
Q 2269 1972 1888 1972 
L 1191 1972 
L 806 0 
L 172 0 
L 1081 4666 
L 2503 4666 
Q 3150 4666 3495 4373 
Q 3841 4081 3841 3531 
Q 3841 3044 3547 2687 
Q 3253 2331 2772 2241 
z
" transform="scale(0.015625)"/>
      <path id="DejaVuSans-31" d="M 794 531 
L 1825 531 
L 1825 4091 
L 703 3866 
L 703 4441 
L 1819 4666 
L 2450 4666 
L 2450 531 
L 3481 531 
L 3481 0 
L 794 0 
L 794 531 
z
" transform="scale(0.015625)"/>
     </defs>
     <use xlink:href="#DejaVuSans-Oblique-52" transform="translate(0 0.09375)"/>
     <use xlink:href="#DejaVuSans-31" transform="translate(69.482422 -16.3125) scale(0.7)"/>
    </g>
   </g>
   <g id="text_2">
    <!-- $R_{\rm 2}$ -->
    <g transform="translate(143.19 69.768437) scale(0.14 -0.14)">
     <defs>
      <path id="DejaVuSans-32" d="M 1228 531 
L 3431 531 
L 3431 0 
L 469 0 
L 469 531 
Q 828 903 1448 1529 
Q 2069 2156 2228 2338 
Q 2531 2678 2651 2914 
Q 2772 3150 2772 3378 
Q 2772 3750 2511 3984 
Q 2250 4219 1831 4219 
Q 1534 4219 1204 4116 
Q 875 4013 500 3803 
L 500 4441 
Q 881 4594 1212 4672 
Q 1544 4750 1819 4750 
Q 2544 4750 2975 4387 
Q 3406 4025 3406 3419 
Q 3406 3131 3298 2873 
Q 3191 2616 2906 2266 
Q 2828 2175 2409 1742 
Q 1991 1309 1228 531 
z
" transform="scale(0.015625)"/>
     </defs>
     <use xlink:href="#DejaVuSans-Oblique-52" transform="translate(0 0.09375)"/>
     <use xlink:href="#DejaVuSans-32" transform="translate(69.482422 -16.3125) scale(0.7)"/>
    </g>
   </g>
   <g id="text_3">
    <!-- $W_{\rm 1}$ -->
    <g transform="translate(213.09 69.768437) scale(0.14 -0.14)">
     <defs>
      <path id="DejaVuSans-Oblique-57" d="M 616 4666 
L 1228 4666 
L 1453 697 
L 3213 4666 
L 3916 4666 
L 4147 697 
L 5888 4666 
L 6528 4666 
L 4453 0 
L 3659 0 
L 3444 3891 
L 1697 0 
L 903 0 
L 616 4666 
z
" transform="scale(0.015625)"/>
     </defs>
     <use xlink:href="#DejaVuSans-Oblique-57" transform="translate(0 0.09375)"/>
     <use xlink:href="#DejaVuSans-31" transform="translate(98.876953 -16.3125) scale(0.7)"/>
    </g>
   </g>
   <g id="text_4">
    <!-- $C_{\rm 1}$ -->
    <g transform="translate(143.12 15.768438) scale(0.14 -0.14)">
     <defs>
      <path id="DejaVuSans-Oblique-43" d="M 4447 4306 
L 4319 3641 
Q 4019 3944 3683 4091 
Q 3347 4238 2956 4238 
Q 2422 4238 2017 3981 
Q 1613 3725 1319 3200 
Q 1131 2863 1032 2486 
Q 934 2109 934 1728 
Q 934 1091 1264 756 
Q 1594 422 2222 422 
Q 2656 422 3056 561 
Q 3456 700 3834 978 
L 3688 231 
Q 3316 72 2936 -9 
Q 2556 -91 2175 -91 
Q 1278 -91 773 396 
Q 269 884 269 1753 
Q 269 2309 461 2846 
Q 653 3384 1013 3828 
Q 1394 4300 1883 4525 
Q 2372 4750 3022 4750 
Q 3422 4750 3780 4639 
Q 4138 4528 4447 4306 
z
" transform="scale(0.015625)"/>
     </defs>
     <use xlink:href="#DejaVuSans-Oblique-43" transform="translate(0 0.78125)"/>
     <use xlink:href="#DejaVuSans-31" transform="translate(69.824219 -15.625) scale(0.7)"/>
    </g>
   </g>
   <g id="patch_2">
    <path d="M 7.38 33.98 
C 8.096048 33.98 8.782866 33.695511 9.289188 33.189188 
C 9.795511 32.682866 10.08 31.996048 10.08 31.28 
C 10.08 30.563952 9.795511 29.877134 9.289188 29.370812 
C 8.782866 28.864489 8.096048 28.58 7.38 28.58 
C 6.663952 28.58 5.977134 28.864489 5.470812 29.370812 
C 4.964489 29.877134 4.68 30.563952 4.68 31.28 
C 4.68 31.996048 4.964489 32.682866 5.470812 33.189188 
C 5.977134 33.695511 6.663952 33.98 7.38 33.98 
z
" clip-path="url(#pd27c5a84cb)" style="fill: #ffffff; stroke: #000000; stroke-width: 2; stroke-linejoin: miter"/>
   </g>
   <g id="patch_3">
    <path d="M 295.38 33.98 
C 296.096048 33.98 296.782866 33.695511 297.289188 33.189188 
C 297.795511 32.682866 298.08 31.996048 298.08 31.28 
C 298.08 30.563952 297.795511 29.877134 297.289188 29.370812 
C 296.782866 28.864489 296.096048 28.58 295.38 28.58 
C 294.663952 28.58 293.977134 28.864489 293.470812 29.370812 
C 292.964489 29.877134 292.68 30.563952 292.68 31.28 
C 292.68 31.996048 292.964489 32.682866 293.470812 33.189188 
C 293.977134 33.695511 294.663952 33.98 295.38 33.98 
z
" clip-path="url(#pd27c5a84cb)" style="fill: #ffffff; stroke: #000000; stroke-width: 2; stroke-linejoin: miter"/>
   </g>
  </g>
 </g>
 <defs>
  <clipPath id="pd27c5a84cb">
   <rect x="0" y="0" width="302.76" height="98.96"/>
  </clipPath>
 </defs>
</svg>
